<svg width="50" xmlns="http://www.w3.org/2000/svg" height="50" fill="none"><g class="fills"><rect rx="0" ry="0" width="50" height="50" transform="matrix(1.000000, 0.000000, 0.000000, 1.000000, 0.000000, 0.000000)" class="frame-background"/></g><g class="frame-children"><g class="fills"><rect rx="0" ry="0" width="50" height="50" transform="matrix(1.000000, 0.000000, 0.000000, 1.000000, 0.000000, 0.000000)" class="frame-background"/></g><g class="frame-children"><path d="M39.063,7.031L10.938,7.031C8.780,7.031,7.031,8.780,7.031,10.938L7.031,39.063C7.031,41.220,8.780,42.969,10.938,42.969L39.063,42.969C41.220,42.969,42.969,41.220,42.969,39.063L42.969,10.938C42.969,8.780,41.220,7.031,39.063,7.031ZZM38.281,11.719L38.281,22.656L11.719,22.656L11.719,11.719ZM22.656,27.344L22.656,38.281L19.531,38.281L19.531,27.344ZM27.344,27.344L30.469,27.344L30.469,38.281L27.344,38.281ZM11.719,27.344L14.844,27.344L14.844,38.281L11.719,38.281ZM35.156,38.281L35.156,27.344L38.281,27.344L38.281,38.281Z" style="fill: rgb(0, 0, 0);" class="fills"/></g></g></svg>