<svg width="50" xmlns="http://www.w3.org/2000/svg" height="50" fill="none"><g class="fills"><rect rx="0" ry="0" width="50" height="50" transform="matrix(1.000000, 0.000000, 0.000000, 1.000000, 0.000000, 0.000000)" class="frame-background"/></g><g class="frame-children"><g class="fills"><rect rx="0" ry="0" width="50" height="50" transform="matrix(1.000000, 0.000000, 0.000000, 1.000000, 0.000000, 0.000000)" class="frame-background"/></g><g class="frame-children"><path d="M42.795,7.852L42.795,7.852ZL36.313,1.883C34.783,0.404,32.353,0.421,30.844,1.920L21.555,11.154C19.105,8.837,15.259,8.880,12.862,11.252C10.466,13.625,10.383,17.470,12.676,19.943L9.734,22.873C9.001,23.606,8.590,24.599,8.590,25.636C8.590,26.672,9.001,27.666,9.734,28.398L13.195,31.859L7.297,37.758C4.856,40.199,4.856,44.157,7.297,46.598C9.738,49.039,13.696,49.039,16.137,46.598L16.137,46.598L34.010,28.566C34.752,27.821,35.163,26.809,35.149,25.757C35.135,24.705,34.698,23.703,33.936,22.979L31.396,20.557L33.723,18.252L36.600,20.791C38.136,22.262,40.567,22.233,42.068,20.727L42.793,20.002C44.405,18.390,45.310,16.204,45.310,13.925C45.310,11.645,44.405,9.459,42.795,7.852ZZM13.604,25.648L15.988,23.268L18.893,26.172L16.510,28.557ZM12.822,43.297C12.211,43.906,11.222,43.905,10.612,43.294C10.003,42.683,10.004,41.693,10.615,41.084L23.869,27.830C24.310,27.390,24.558,26.793,24.558,26.170C24.558,25.547,24.310,24.950,23.869,24.510L16.080,16.730C15.470,16.120,15.470,15.130,16.080,14.520C16.691,13.909,17.680,13.909,18.291,14.520C18.303,14.533,18.316,14.545,18.328,14.557L30.133,25.830ZM39.480,16.691L39.285,16.887L36.381,14.344C34.844,12.904,32.444,12.937,30.947,14.418L28.018,17.324L24.947,14.395L33.613,5.768L39.510,11.197C41.007,12.727,40.994,15.177,39.480,16.691ZZ" style="fill: rgb(0, 0, 0);" class="fills"/></g></g></svg>