<svg width="50" xmlns="http://www.w3.org/2000/svg" height="50" fill="none"><g class="fills"><rect rx="0" ry="0" width="50" height="50" transform="matrix(1.000000, 0.000000, 0.000000, 1.000000, 0.000000, 0.000000)" class="frame-background"/></g><g class="frame-children"><g class="fills"><rect rx="0" ry="0" width="50" height="50" transform="matrix(1.000000, 0.000000, 0.000000, 1.000000, 0.000000, 0.000000)" class="frame-background"/></g><g class="frame-children"><path d="M15.234,7.031C10.704,7.031,7.031,10.704,7.031,15.234C7.031,19.765,10.704,23.438,15.234,23.438C19.765,23.438,23.438,19.765,23.438,15.234C23.438,10.704,19.765,7.031,15.234,7.031ZZM15.234,18.750C13.293,18.750,11.719,17.176,11.719,15.234C11.719,13.293,13.293,11.719,15.234,11.719C17.176,11.719,18.750,13.293,18.750,15.234C18.750,17.176,17.176,18.750,15.234,18.750ZZM34.766,23.438C39.296,23.438,42.969,19.765,42.969,15.234C42.969,10.704,39.296,7.031,34.766,7.031C30.235,7.031,26.563,10.704,26.563,15.234C26.563,19.765,30.235,23.438,34.766,23.438ZZM34.766,11.719C36.707,11.719,38.281,13.293,38.281,15.234C38.281,17.176,36.707,18.750,34.766,18.750C32.824,18.750,31.250,17.176,31.250,15.234C31.250,13.293,32.824,11.719,34.766,11.719ZZM15.234,26.563C10.704,26.563,7.031,30.235,7.031,34.766C7.031,39.296,10.704,42.969,15.234,42.969C19.765,42.969,23.438,39.296,23.438,34.766C23.438,30.235,19.765,26.563,15.234,26.563ZZM15.234,38.281C13.293,38.281,11.719,36.707,11.719,34.766C11.719,32.824,13.293,31.250,15.234,31.250C17.176,31.250,18.750,32.824,18.750,34.766C18.750,36.707,17.176,38.281,15.234,38.281ZZM34.766,26.563C30.235,26.563,26.563,30.235,26.563,34.766C26.563,39.296,30.235,42.969,34.766,42.969C39.296,42.969,42.969,39.296,42.969,34.766C42.969,30.235,39.296,26.563,34.766,26.563ZZM34.766,38.281C32.824,38.281,31.250,36.707,31.250,34.766C31.250,32.824,32.824,31.250,34.766,31.250C36.707,31.250,38.281,32.824,38.281,34.766C38.281,36.707,36.707,38.281,34.766,38.281ZZ" style="fill: rgb(0, 0, 0);" class="fills"/></g></g></svg>