<svg width="50" xmlns="http://www.w3.org/2000/svg" height="50" fill="none"><g class="fills"><rect rx="0" ry="0" width="50" height="50" transform="matrix(1.000000, 0.000000, 0.000000, 1.000000, 0.000000, 0.000000)" class="frame-background"/></g><g class="frame-children"><g class="fills"><rect rx="0" ry="0" width="50" height="50" transform="matrix(1.000000, 0.000000, 0.000000, 1.000000, 0.000000, 0.000000)" class="frame-background"/></g><g class="frame-children"><path d="M47.656,17.188L47.656,29.688C47.656,30.982,46.607,32.031,45.313,32.031L32.813,32.031C31.518,32.031,30.469,30.982,30.469,29.688C30.469,28.393,31.518,27.344,32.813,27.344L39.629,27.344L36.605,24.342C31.914,19.647,24.857,18.241,18.725,20.780C12.593,23.318,8.594,29.301,8.594,35.938C8.594,37.232,7.544,38.281,6.250,38.281C4.956,38.281,3.906,37.232,3.906,35.938C3.906,27.406,9.045,19.714,16.928,16.449C24.810,13.183,33.883,14.988,39.916,21.021L42.969,24.055L42.969,17.188C42.969,15.893,44.018,14.844,45.313,14.844C46.607,14.844,47.656,15.893,47.656,17.188ZZ" style="fill: rgb(0, 0, 0);" class="fills"/></g></g></svg>