<svg width="50" xmlns="http://www.w3.org/2000/svg" height="50" fill="none"><g class="fills"><rect rx="0" ry="0" width="50" height="50" transform="matrix(1.000000, 0.000000, 0.000000, 1.000000, 0.000000, 0.000000)" class="frame-background"/></g><g class="frame-children"><g class="fills"><rect rx="0" ry="0" width="50" height="50" transform="matrix(1.000000, 0.000000, 0.000000, 1.000000, 0.000000, 0.000000)" class="frame-background"/></g><g class="frame-children"><path d="M46.094,35.938C46.094,37.232,45.044,38.281,43.750,38.281C42.456,38.281,41.406,37.232,41.406,35.938C41.407,29.301,37.409,23.319,31.279,20.779C25.148,18.239,18.091,19.643,13.398,24.336L10.373,27.344L17.187,27.344C18.482,27.344,19.531,28.393,19.531,29.688C19.531,30.982,18.482,32.031,17.187,32.031L4.687,32.031C3.393,32.031,2.344,30.982,2.344,29.688L2.344,17.188C2.344,15.893,3.393,14.844,4.687,14.844C5.982,14.844,7.031,15.893,7.031,17.188L7.031,24.055L10.090,21.018C16.124,14.988,25.195,13.186,33.075,16.452C40.956,19.717,46.093,27.407,46.094,35.938ZZ" style="fill: rgb(0, 0, 0);" class="fills"/></g></g></svg>