<svg width="350" xmlns="http://www.w3.org/2000/svg" height="140" fill="none"><g class="fills"><rect rx="0" ry="0" width="350" height="140" class="frame-background"/></g><g class="frame-children"><rect rx="0" ry="0" x="7" y="5.5" width="336" height="129" style="fill: rgb(204, 204, 204); fill-opacity: 1;" class="fills"/><g class="strokes"><rect rx="0" ry="0" x="7" y="5.5" width="336" height="129" style="fill: none; stroke-width: 3; stroke: rgb(0, 0, 0); stroke-opacity: 1;" class="stroke-shape"/></g><g class="fills"><rect rx="0" ry="0" x="163.5" y="62" width="23" height="16" class="frame-background"/></g><g class="frame-children"><g class="fills"><rect rx="0" ry="0" x="176.217" y="62" width="10.283" height="16" class="frame-background"/></g><g class="frame-children"><path d="M186.5 69.989c0 1.684-.178 3.12-.533 4.31-.342 1.19-.889 2.105-1.643 2.743-.754.639-1.749.958-2.987.958-1.749 0-3.043-.704-3.882-2.112-.825-1.422-1.238-3.388-1.238-5.899 0-1.669.164-3.098.491-4.288.341-1.205.889-2.119 1.643-2.743.753-.639 1.749-.958 2.986-.958 1.735 0 3.03.704 3.883 2.112.853 1.393 1.28 3.352 1.28 5.877Zm-8.021 0c0 2.032.213 3.556.64 4.572.426 1.001 1.166 1.502 2.218 1.502 1.039 0 1.778-.501 2.219-1.502.441-1.002.661-2.526.661-4.572 0-2.017-.22-3.526-.661-4.528-.441-1.016-1.18-1.524-2.219-1.524-1.052 0-1.792.508-2.218 1.524-.427 1.002-.64 2.511-.64 4.528Z" style="display: inline; font-weight: 500; font-size: 5.64444px; line-height: 1.25; font-family: &quot;Noto Sans&quot;; stroke-width: 0.264583; fill: rgb(0, 0, 0); fill-opacity: 1;" class="fills"/></g><g class="fills"><rect rx="0" ry="0" x="163.5" y="62.352" width="11.371" height="15.296" class="frame-background"/></g><g class="frame-children"><path d="M174.871 74.277h-2.112v3.371h-2.198v-3.371H163.5v-1.792l7.019-10.133h2.24v10.005h2.112Zm-4.31-6.058c0-.669.015-1.295.043-1.878.028-.597.05-1.095.064-1.493h-.085a7.08 7.08 0 0 1-.427.875 5.79 5.79 0 0 1-.491.789l-4.032 5.845h4.928Z" style="display: inline; font-weight: 500; font-size: 5.64444px; line-height: 1.25; font-family: &quot;Noto Sans&quot;; stroke-width: 0.264583; fill: rgb(0, 0, 0); fill-opacity: 1;" class="fills"/></g></g></g></svg>