<svg width="350" xmlns="http://www.w3.org/2000/svg" height="30" fill="none"><g class="fills"><rect rx="0" ry="0" width="350" height="30" class="frame-background"/></g><g class="frame-children"><g class="fills"><rect rx="0" ry="0" width="350" height="30" class="frame-background"/></g><g class="frame-children"><rect rx="0" ry="0" x="7" y="3" width="336" height="24" style="fill: rgb(152, 255, 152); fill-opacity: 1;" class="fills"/><g class="strokes"><rect rx="0" ry="0" x="7" y="3" width="336" height="24" style="fill: none; stroke-width: 3; stroke: rgb(0, 0, 0); stroke-opacity: 1;" class="stroke-shape"/></g><g class="fills"><rect rx="0" ry="0" x="164.652" y="7" width="20.697" height="16" class="frame-background"/></g><g class="frame-children"><g class="fills"><rect rx="0" ry="0" x="175.066" y="7" width="10.283" height="16" class="frame-background"/></g><g class="frame-children"><path d="M185.348 14.989c0 1.684-.178 3.12-.533 4.31-.341 1.19-.889 2.105-1.643 2.743-.754.639-1.749.958-2.986.958-1.75 0-3.044-.704-3.883-2.112-.825-1.422-1.237-3.388-1.237-5.899 0-1.669.163-3.098.49-4.288.342-1.205.889-2.119 1.643-2.743.754-.639 1.749-.958 2.987-.958 1.735 0 3.029.704 3.882 2.112.854 1.393 1.28 3.352 1.28 5.877Zm-8.021 0c0 2.032.213 3.556.64 4.572.427 1.001 1.166 1.502 2.219 1.502 1.038 0 1.777-.501 2.218-1.502.441-1.002.662-2.526.662-4.572 0-2.017-.221-3.526-.662-4.528-.441-1.016-1.18-1.524-2.218-1.524-1.053 0-1.792.508-2.219 1.524-.427 1.002-.64 2.511-.64 4.528Z" style="display: inline; font-weight: 500; font-size: 5.64444px; line-height: 1.25; font-family: &quot;Noto Sans&quot;; stroke-width: 0.264583; fill: rgb(0, 0, 0); fill-opacity: 1;" class="fills"/></g><g class="fills"><rect rx="0" ry="0" x="164.652" y="7.229" width="6.23" height="15.543" class="frame-background"/></g><g class="frame-children"><path d="M170.881 22.771h-2.24V12.453a39.559 39.559 0 0 1 .085-2.786 20.7 20.7 0 0 1-.576.566c-.199.174-.426.37-.682.587l-1.664 1.372-1.152-1.48 4.352-3.483h1.877Z" style="display: inline; font-weight: 500; font-size: 5.64444px; line-height: 1.25; font-family: &quot;Noto Sans&quot;; stroke-width: 0.264583; fill: rgb(0, 0, 0); fill-opacity: 1;" class="fills"/></g></g></g></g></svg>