<svg width="350" xmlns="http://www.w3.org/2000/svg" height="105" fill="none"><g class="fills"><rect rx="0" ry="0" width="350" height="105" class="frame-background"/></g><g class="frame-children"><g class="fills"><rect rx="0" ry="0" width="350" height="105" class="frame-background"/></g><g class="frame-children"><rect rx="0" ry="0" x="7" y="5.5" width="336" height="94" style="fill: rgb(152, 255, 152); fill-opacity: 1;" class="fills"/><g class="strokes"><rect rx="0" ry="0" x="7" y="5.5" width="336" height="94" style="fill: none; stroke-width: 3; stroke: rgb(0, 0, 0); stroke-opacity: 1;" class="stroke-shape"/></g><g class="fills"><rect rx="0" ry="0" x="164" y="44.5" width="22" height="16" class="frame-background"/></g><g class="frame-children"><g class="fills"><rect rx="0" ry="0" x="175.717" y="44.5" width="10.283" height="16" class="frame-background"/></g><g class="frame-children"><path d="M186 52.489c0 1.684-.178 3.12-.533 4.31-.342 1.19-.889 2.105-1.643 2.743-.754.639-1.749.958-2.987.958-1.749 0-3.043-.704-3.882-2.112-.825-1.422-1.238-3.388-1.238-5.899 0-1.669.164-3.098.491-4.288.341-1.205.889-2.119 1.643-2.743.753-.639 1.749-.958 2.986-.958 1.735 0 3.03.704 3.883 2.112.853 1.393 1.28 3.352 1.28 5.877Zm-8.021 0c0 2.032.213 3.556.64 4.572.426 1.001 1.166 1.502 2.218 1.502 1.039 0 1.778-.501 2.219-1.502.441-1.002.661-2.526.661-4.572 0-2.017-.22-3.526-.661-4.528-.441-1.016-1.18-1.524-2.219-1.524-1.052 0-1.792.508-2.218 1.524-.427 1.002-.64 2.511-.64 4.528Z" style="display: inline; font-weight: 500; font-size: 5.64444px; line-height: 1.25; font-family: &quot;Noto Sans&quot;; stroke-width: 0.264583; fill: rgb(0, 0, 0); fill-opacity: 1;" class="fills"/></g><g class="fills"><rect rx="0" ry="0" x="164" y="44.671" width="10.176" height="15.659" class="frame-background"/></g><g class="frame-children"><path d="M173.707 48.404c0 1.038-.299 1.863-.896 2.475-.583.611-1.344 1.017-2.283 1.216v.085c1.209.142 2.119.526 2.731 1.152.611.612.917 1.422.917 2.432 0 .882-.213 1.671-.64 2.368-.412.683-1.06 1.223-1.941 1.621-.868.384-1.984.576-3.35.576-.81 0-1.564-.064-2.261-.192a7.884 7.884 0 0 1-1.984-.64v-2.048a9.05 9.05 0 0 0 2.048.747c.74.171 1.444.256 2.112.256 1.294 0 2.226-.242 2.795-.725.569-.498.853-1.188.853-2.07 0-.853-.341-1.479-1.024-1.877-.683-.398-1.707-.597-3.072-.597h-1.387v-1.856h1.408c1.295 0 2.233-.242 2.816-.726.583-.483.875-1.116.875-1.898 0-.683-.228-1.209-.683-1.579-.441-.384-1.081-.576-1.92-.576-.782 0-1.465.121-2.048.363a9.12 9.12 0 0 0-1.6.874l-1.109-1.557c.555-.427 1.23-.789 2.027-1.088.81-.313 1.742-.469 2.794-.469 1.579 0 2.774.348 3.584 1.045.825.683 1.238 1.579 1.238 2.688Z" style="display: inline; font-weight: 500; font-size: 5.64444px; line-height: 1.25; font-family: &quot;Noto Sans&quot;; stroke-width: 0.264583; fill: rgb(0, 0, 0); fill-opacity: 1;" class="fills"/></g></g></g></g></svg>