<svg width="350" xmlns="http://www.w3.org/2000/svg" height="70" fill="none"><g class="fills"><rect rx="0" ry="0" width="350" height="70" class="frame-background"/></g><g class="frame-children"><g class="fills"><rect rx="0" ry="0" width="350" height="70" class="frame-background"/></g><g class="frame-children"><rect rx="0" ry="0" x="7" y="5.5" width="336" height="59" style="fill: rgb(152, 255, 152); fill-opacity: 1;" class="fills"/><g class="strokes"><rect rx="0" ry="0" x="7" y="5.5" width="336" height="59" style="fill: none; stroke-width: 3; stroke: rgb(0, 0, 0); stroke-opacity: 1;" class="stroke-shape"/></g><g class="fills"><rect rx="0" ry="0" x="164" y="27" width="22" height="16" class="frame-background"/></g><g class="frame-children"><g class="fills"><rect rx="0" ry="0" x="175.717" y="27" width="10.283" height="16" class="frame-background"/></g><g class="frame-children"><path d="M186 34.989c0 1.684-.178 3.12-.533 4.31-.342 1.19-.889 2.105-1.643 2.743-.754.639-1.749.958-2.987.958-1.749 0-3.043-.704-3.882-2.112-.825-1.422-1.238-3.388-1.238-5.899 0-1.669.164-3.098.491-4.288.341-1.205.889-2.119 1.643-2.743.753-.639 1.749-.958 2.986-.958 1.735 0 3.03.704 3.883 2.112.853 1.393 1.28 3.352 1.28 5.877Zm-8.021 0c0 2.032.213 3.556.64 4.572.426 1.001 1.166 1.502 2.218 1.502 1.039 0 1.778-.501 2.219-1.502.441-1.002.661-2.526.661-4.572 0-2.017-.22-3.526-.661-4.528-.441-1.016-1.18-1.524-2.219-1.524-1.052 0-1.792.508-2.218 1.524-.427 1.002-.64 2.511-.64 4.528Z" style="display: inline; font-weight: 500; font-size: 5.64444px; line-height: 1.25; font-family: &quot;Noto Sans&quot;; stroke-width: 0.264583; fill: rgb(0, 0, 0); fill-opacity: 1;" class="fills"/></g><g class="fills"><rect rx="0" ry="0" x="164" y="27.277" width="10.24" height="15.445" class="frame-background"/></g><g class="frame-children"><path d="M174.24 42.723H164v-1.75l3.925-3.989a65.467 65.467 0 0 0 1.92-2.027c.512-.583.896-1.137 1.152-1.664a4.03 4.03 0 0 0 .384-1.749c0-.768-.227-1.351-.682-1.749-.455-.399-1.046-.598-1.771-.598-.697 0-1.323.128-1.877.384-.555.256-1.131.626-1.728 1.11l-1.216-1.515a9.681 9.681 0 0 1 2.09-1.323c.783-.384 1.714-.576 2.795-.576 1.451 0 2.588.37 3.413 1.11.839.739 1.259 1.728 1.259 2.965a5.24 5.24 0 0 1-.491 2.261c-.327.683-.789 1.366-1.386 2.048a36.965 36.965 0 0 1-2.112 2.198l-2.838 2.752v.106h7.403Z" style="display: inline; font-weight: 500; font-size: 5.64444px; line-height: 1.25; font-family: &quot;Noto Sans&quot;; stroke-width: 0.264583; fill: rgb(0, 0, 0); fill-opacity: 1;" class="fills"/></g></g></g></g></svg>