<svg width="171.979" xmlns="http://www.w3.org/2000/svg" height="127" fill="none"><g class="fills"><rect rx="0" ry="0" width="171.979" height="127" transform="matrix(1.000000, 0.000000, 0.000000, 1.000000, 0.000000, 0.000000)" class="frame-background"/></g><g style="fill: rgb(0, 0, 0);" xml:space="preserve" class="frame-children"><path d="M26.458,6.615C15.465,6.615,6.615,15.465,6.615,26.458C6.615,37.452,15.465,46.302,26.458,46.302L145.521,46.302C156.514,46.302,165.365,37.452,165.365,26.458C165.365,15.465,156.514,6.615,145.521,6.615ZM26.458,80.698C15.465,80.698,6.615,89.548,6.615,100.542C6.615,111.535,15.465,120.385,26.458,120.385L145.521,120.385C156.514,120.385,165.365,111.535,165.365,100.542C165.365,89.548,156.514,80.698,145.521,80.698Z" style="stroke-linejoin: round; stroke-dasharray: none; display: inline; fill: rgb(23, 229, 23); fill-opacity: 1;" class="fills"/><g class="strokes" style="stroke-linejoin: round; stroke-dasharray: none; display: inline;"><path d="M26.458,6.615C15.465,6.615,6.615,15.465,6.615,26.458C6.615,37.452,15.465,46.302,26.458,46.302L145.521,46.302C156.514,46.302,165.365,37.452,165.365,26.458C165.365,15.465,156.514,6.615,145.521,6.615ZM26.458,80.698C15.465,80.698,6.615,89.548,6.615,100.542C6.615,111.535,15.465,120.385,26.458,120.385L145.521,120.385C156.514,120.385,165.365,111.535,165.365,100.542C165.365,89.548,156.514,80.698,145.521,80.698Z" style="fill: none; stroke-width: 13.2292; stroke: rgb(0, 0, 0); stroke-opacity: 1;" class="stroke-shape"/></g></g></svg>