<svg width="256" xmlns="http://www.w3.org/2000/svg" height="256" fill="none"><g class="fills"><rect rx="0" ry="0" width="256" height="256" transform="matrix(1.000000, 0.000000, 0.000000, 1.000000, 0.000000, 0.000000)" class="frame-background"/></g><g class="frame-children"><path d="M91.330,72.000C97.497,57.877,111.228,48.553,126.629,48.029C142.031,47.506,156.363,55.877,163.474,69.548C170.586,83.219,169.211,99.760,159.940,112.070L88.000,208.000L168.000,208.000" style="fill: none;" class="fills"/><g stroke-linejoin="round" class="strokes"><path d="M91.330,72.000C97.497,57.877,111.228,48.553,126.629,48.029C142.031,47.506,156.363,55.877,163.474,69.548C170.586,83.219,169.211,99.760,159.940,112.070L88.000,208.000L168.000,208.000" style="fill: none; stroke-width: 48; stroke: rgb(0, 0, 0); stroke-opacity: 1; stroke-linecap: round;" class="stroke-shape"/></g><path d="M91.330,72.000C97.497,57.877,111.228,48.553,126.629,48.029C142.031,47.506,156.363,55.877,163.474,69.548C170.586,83.219,169.211,99.760,159.940,112.070L88.000,208.000L168.000,208.000" style="fill: none;" class="fills"/><g stroke-linejoin="round" class="strokes"><path d="M91.330,72.000C97.497,57.877,111.228,48.553,126.629,48.029C142.031,47.506,156.363,55.877,163.474,69.548C170.586,83.219,169.211,99.760,159.940,112.070L88.000,208.000L168.000,208.000" style="fill: none; stroke-width: 24; stroke: rgb(128, 128, 255); stroke-opacity: 1; stroke-linecap: round;" class="stroke-shape"/></g></g></svg>