<svg width="256" xmlns="http://www.w3.org/2000/svg" height="256" fill="none"><g class="fills"><rect rx="0" ry="0" width="256" height="256" transform="matrix(1.000000, 0.000000, 0.000000, 1.000000, 0.000000, 0.000000)" class="frame-background"/></g><g class="frame-children"><path d="M88.000,48.000L168.000,48.000L120.000,112.000C141.394,112.001,160.204,126.161,166.123,146.719C172.042,167.278,163.641,189.272,145.524,200.649C127.407,212.027,103.947,210.041,88.000,195.780" style="fill: none;" class="fills"/><g stroke-linejoin="round" class="strokes"><path d="M88.000,48.000L168.000,48.000L120.000,112.000C141.394,112.001,160.204,126.161,166.123,146.719C172.042,167.278,163.641,189.272,145.524,200.649C127.407,212.027,103.947,210.041,88.000,195.780" style="fill: none; stroke-width: 48; stroke: rgb(0, 0, 0); stroke-opacity: 1; stroke-linecap: round;" class="stroke-shape"/></g><path d="M88.000,48.000L168.000,48.000L120.000,112.000C141.394,112.001,160.204,126.161,166.123,146.719C172.042,167.278,163.641,189.272,145.524,200.649C127.407,212.027,103.947,210.041,88.000,195.780" style="fill: none;" class="fills"/><g stroke-linejoin="round" class="strokes"><path d="M88.000,48.000L168.000,48.000L120.000,112.000C141.394,112.001,160.204,126.161,166.123,146.719C172.042,167.278,163.641,189.272,145.524,200.649C127.407,212.027,103.947,210.041,88.000,195.780" style="fill: none; stroke-width: 24; stroke: rgb(128, 128, 255); stroke-opacity: 1; stroke-linecap: round;" class="stroke-shape"/></g></g></svg>