<svg width="256" xmlns="http://www.w3.org/2000/svg" height="256" fill="none"><g class="fills"><rect rx="0" ry="0" width="256" height="256" transform="matrix(1.000000, 0.000000, 0.000000, 1.000000, 0.000000, 0.000000)" class="frame-background"/></g><g class="frame-children"><ellipse cx="128" cy="168" rx="48" ry="48" transform="matrix(1.000000, 0.000000, 0.000000, 1.000000, 0.000000, 0.000000)" style="fill: none;" class="fills"/><g stroke-linejoin="round" class="strokes"><g class="inner-stroke-shape" transform="matrix(1.000000, 0.000000, 0.000000, 1.000000, 0.000000, 0.000000)"><defs><clipPath id="b"><use href="#a"/></clipPath><ellipse cx="128" cy="168" rx="48" ry="48" id="a" style="fill: none; stroke-width: 48; stroke: rgb(0, 0, 0); stroke-opacity: 1;"/></defs><use href="#a" clip-path="url('#b')"/></g></g><ellipse cx="128" cy="168" rx="48" ry="48" transform="matrix(1.000000, 0.000000, 0.000000, 1.000000, 0.000000, 0.000000)" style="fill: none;" class="fills"/><g stroke-linejoin="round" class="strokes"><g class="outer-stroke-shape"><defs><mask id="d" x="46.059" y="86.059" width="163.882" height="163.882" maskUnits="userSpaceOnUse"><use href="#c" style="fill: none; stroke: white; stroke-width: 48;"/><use href="#c" style="fill: black; stroke: none;"/></mask><ellipse cx="128" cy="168" rx="48" ry="48" transform="matrix(1.000000, 0.000000, 0.000000, 1.000000, 0.000000, 0.000000)" id="c"/></defs><use href="#c" mask="url(#d)" style="fill: none; stroke-width: 48; stroke: rgb(0, 0, 0); stroke-opacity: 1;"/><use href="#c" style="fill: none; stroke-width: 24; stroke: none; stroke-opacity: 1;"/></g></g><ellipse cx="128" cy="80" rx="40" ry="40" transform="matrix(1.000000, 0.000000, 0.000000, 1.000000, 0.000000, 0.000000)" style="fill: none;" class="fills"/><g stroke-linejoin="round" class="strokes"><g class="inner-stroke-shape" transform="matrix(1.000000, 0.000000, 0.000000, 1.000000, 0.000000, 0.000000)"><defs><clipPath id="f"><use href="#e"/></clipPath><ellipse cx="128" cy="80" rx="40" ry="40" id="e" style="fill: none; stroke-width: 48; stroke: rgb(0, 0, 0); stroke-opacity: 1;"/></defs><use href="#e" clip-path="url('#f')"/></g></g><ellipse cx="128" cy="80" rx="40" ry="40" transform="matrix(1.000000, 0.000000, 0.000000, 1.000000, 0.000000, 0.000000)" style="fill: none;" class="fills"/><g stroke-linejoin="round" class="strokes"><g class="outer-stroke-shape"><defs><mask id="h" x="54.059" y="6.059" width="147.882" height="147.882" maskUnits="userSpaceOnUse"><use href="#g" style="fill: none; stroke: white; stroke-width: 48;"/><use href="#g" style="fill: black; stroke: none;"/></mask><ellipse cx="128" cy="80" rx="40" ry="40" transform="matrix(1.000000, 0.000000, 0.000000, 1.000000, 0.000000, 0.000000)" id="g"/></defs><use href="#g" mask="url(#h)" style="fill: none; stroke-width: 48; stroke: rgb(0, 0, 0); stroke-opacity: 1;"/><use href="#g" style="fill: none; stroke-width: 24; stroke: none; stroke-opacity: 1;"/></g></g><ellipse cx="128" cy="168" rx="48" ry="48" transform="matrix(1.000000, 0.000000, 0.000000, 1.000000, 0.000000, 0.000000)" style="fill: none;" class="fills"/><g stroke-linejoin="round" class="strokes"><ellipse cx="128" cy="168" rx="48" ry="48" transform="matrix(1.000000, 0.000000, 0.000000, 1.000000, 0.000000, 0.000000)" style="fill: none; stroke-width: 24; stroke: rgb(128, 128, 255); stroke-opacity: 1;" class="stroke-shape"/></g><ellipse cx="128" cy="80" rx="40" ry="40" transform="matrix(1.000000, 0.000000, 0.000000, 1.000000, 0.000000, 0.000000)" style="fill: none;" class="fills"/><g stroke-linejoin="round" class="strokes"><ellipse cx="128" cy="80" rx="40" ry="40" transform="matrix(1.000000, 0.000000, 0.000000, 1.000000, 0.000000, 0.000000)" style="fill: none; stroke-width: 24; stroke: rgb(128, 128, 255); stroke-opacity: 1;" class="stroke-shape"/></g></g></svg>