<svg width="171.979" xmlns="http://www.w3.org/2000/svg" height="190.616" fill="none"><g class="fills"><rect rx="0" ry="0" width="171.979" height="190.616" transform="matrix(1.000000, 0.000000, 0.000000, 1.000000, 0.000000, 0.000000)" class="frame-background"/></g><g style="fill: rgb(0, 0, 0);" xml:space="preserve" class="frame-children"><path d="M126.043,6.623C119.246,6.425,112.575,9.868,108.910,16.186L96.021,38.406L26.458,38.406C15.465,38.406,6.615,47.256,6.615,58.250C6.615,69.243,15.465,78.094,26.458,78.094L72.999,78.094L53.046,112.489L26.458,112.489C15.465,112.489,6.615,121.340,6.615,132.333C6.615,143.327,15.465,152.177,26.458,152.177L30.025,152.177L28.549,154.721C23.218,163.911,26.324,175.601,35.514,180.932L36.384,181.437C45.574,186.768,57.264,183.661,62.595,174.471L75.528,152.177L145.521,152.177C156.514,152.177,165.365,143.327,165.365,132.333C165.365,121.340,156.514,112.489,145.521,112.489L98.550,112.489L118.502,78.094L145.521,78.094C156.514,78.094,165.365,69.243,165.365,58.250C165.365,47.256,156.514,38.406,145.521,38.406L141.524,38.406L142.957,35.936C148.287,26.746,145.181,15.056,135.991,9.725L135.120,9.220C132.249,7.554,129.133,6.712,126.043,6.623ZZ" style="stroke-linejoin: miter; stroke-dasharray: none; display: inline; fill: rgb(229, 22, 22); fill-opacity: 1;" class="fills"/><g class="strokes" style="stroke-linejoin: miter; stroke-dasharray: none; display: inline;"><path d="M126.043,6.623C119.246,6.425,112.575,9.868,108.910,16.186L96.021,38.406L26.458,38.406C15.465,38.406,6.615,47.256,6.615,58.250C6.615,69.243,15.465,78.094,26.458,78.094L72.999,78.094L53.046,112.489L26.458,112.489C15.465,112.489,6.615,121.340,6.615,132.333C6.615,143.327,15.465,152.177,26.458,152.177L30.025,152.177L28.549,154.721C23.218,163.911,26.324,175.601,35.514,180.932L36.384,181.437C45.574,186.768,57.264,183.661,62.595,174.471L75.528,152.177L145.521,152.177C156.514,152.177,165.365,143.327,165.365,132.333C165.365,121.340,156.514,112.489,145.521,112.489L98.550,112.489L118.502,78.094L145.521,78.094C156.514,78.094,165.365,69.243,165.365,58.250C165.365,47.256,156.514,38.406,145.521,38.406L141.524,38.406L142.957,35.936C148.287,26.746,145.181,15.056,135.991,9.725L135.120,9.220C132.249,7.554,129.133,6.712,126.043,6.623ZZ" style="fill: none; stroke-width: 13.2292; stroke: rgb(0, 0, 0); stroke-opacity: 1;" class="stroke-shape"/></g></g></svg>