<svg width="50" xmlns="http://www.w3.org/2000/svg" height="50" id="screenshot-a05f08f4-e485-8026-8006-0a5d0e0f0747" viewBox="0 0 50 50" xmlns:xlink="http://www.w3.org/1999/xlink" fill="none" version="1.1"><g id="shape-a05f08f4-e485-8026-8006-0a5d0e0f0747"><g class="frame-container-wrapper"><g class="frame-container-blur"><g class="frame-container-shadows"><g fill="none"><g class="fills" id="fills-a05f08f4-e485-8026-8006-0a5d0e0f0747"><rect rx="0" ry="0" x="0" y="0" width="50" height="50" transform="matrix(1.000000, 0.000000, 0.000000, 1.000000, 0.000000, 0.000000)" class="frame-background"/></g><g class="frame-children"><g id="shape-a05f08f4-e485-8026-8006-0a5d0e0f0748" width="50" height="50" rx="0" ry="0" style="fill: rgb(0, 0, 0);"><g id="shape-a05f08f4-e485-8026-8006-0a5d0e0f0749"><g class="fills" id="fills-a05f08f4-e485-8026-8006-0a5d0e0f0749"><path d="M48.000,44.000C48.000,47.000,47.000,48.000,44.000,48.000L6.000,48.000C3.000,48.000,2.000,47.000,2.000,44.000L2.000,6.000C2.000,3.000,3.000,2.000,6.000,2.000L44.000,2.000C47.000,2.000,48.000,3.000,48.000,6.000ZM4.000,6.000L4.000,44.000C4.000,45.500,4.500,46.000,6.000,46.000L44.000,46.000C45.500,46.000,46.000,45.500,46.000,44.000L46.000,6.000C46.000,4.500,45.500,4.000,44.000,4.000L6.000,4.000C4.500,4.000,4.000,4.500,4.000,6.000ZZ" style="fill: rgb(255, 255, 255);"/></g></g><g id="shape-a05f08f4-e485-8026-8006-0a5d0e0f074a"><g class="fills" id="fills-a05f08f4-e485-8026-8006-0a5d0e0f074a"><path d="M44.000,4.000C45.500,4.000,46.000,4.500,46.000,6.000L46.000,44.000C46.000,45.500,45.500,46.000,44.000,46.000L6.000,46.000C4.500,46.000,4.000,45.500,4.000,44.000L4.000,6.000C4.000,4.500,4.500,4.000,6.000,4.000Z" style="fill: rgb(218, 220, 231);"/></g></g><g id="shape-a05f08f4-e485-8026-8006-0a5d0e0f074b"><g class="fills" id="fills-a05f08f4-e485-8026-8006-0a5d0e0f074b"><path d="M44.000,2.000L6.000,2.000C3.000,2.000,2.000,3.000,2.000,6.000L2.000,44.000C2.000,47.000,3.000,48.000,6.000,48.000L44.000,48.000C47.000,48.000,48.000,47.000,48.000,44.000L48.000,6.000C48.000,3.000,47.000,2.000,44.000,2.000ZZM0.000,6.000C0.000,2.000,2.000,0.000,6.000,0.000L44.000,0.000C48.000,0.000,50.000,2.000,50.000,6.000L50.000,44.000C50.000,48.000,48.000,50.000,44.000,50.000L6.000,50.000C2.000,50.000,0.000,48.000,0.000,44.000Z" style="fill: rgb(152, 154, 175);"/></g></g></g></g></g></g></g></g></g></svg>