<?xml version="1.0" encoding="UTF-8" standalone="no"?>
<svg
   width="64"
   height="64"
   version="1.1"
   id="svg5"
   sodipodi:docname="button_square_border_edit6.svg"
   inkscape:version="1.4 (e7c3feb, 2024-10-09)"
   xmlns:inkscape="http://www.inkscape.org/namespaces/inkscape"
   xmlns:sodipodi="http://sodipodi.sourceforge.net/DTD/sodipodi-0.dtd"
   xmlns="http://www.w3.org/2000/svg"
   xmlns:svg="http://www.w3.org/2000/svg">
  <sodipodi:namedview
     id="namedview5"
     pagecolor="#ffffff"
     bordercolor="#666666"
     borderopacity="1.0"
     inkscape:showpageshadow="2"
     inkscape:pageopacity="0.0"
     inkscape:pagecheckerboard="0"
     inkscape:deskcolor="#d1d1d1"
     inkscape:zoom="12.875"
     inkscape:cx="31.728155"
     inkscape:cy="37.359223"
     inkscape:window-width="1920"
     inkscape:window-height="1027"
     inkscape:window-x="0"
     inkscape:window-y="0"
     inkscape:window-maximized="1"
     inkscape:current-layer="g5"
     showgrid="true">
    <inkscape:grid
       id="grid5"
       units="px"
       originx="0"
       originy="0"
       spacingx="0.5"
       spacingy="0.5"
       empcolor="#0099e5"
       empopacity="0.30196078"
       color="#0099e5"
       opacity="0.14901961"
       empspacing="5"
       enabled="true"
       visible="true" />
  </sodipodi:namedview>
  <defs
     id="defs1" />
  <g
     id="g5">
    <path
       stroke="none"
       fill="#dadce7"
       d="M 6,58 V 6 h 52 v 52"
       id="path5"
       style="display:inline;fill:#cdced9;fill-opacity:1"
       sodipodi:nodetypes="cccc"
       inkscape:label="in" />
    <path
       stroke="none"
       fill="#36bdf7"
       d="m 62,58 c 0,3 -1,4 -4,4 H 6 C 3,62 2,61 2,58 V 6 C 2,3 3,2 6,2 h 52 c 3,0 4,1 4,4 z M 4,6 v 52 c 0,1.5 0.5,2 2,2 H 27.45 28 58 c 1.5,0 2,-0.5 2,-2 V 6 C 60,4.5 59.5,4 58,4 H 6 C 4.5,4 4,4.5 4,6 Z"
       id="path1"
       style="display:inline;fill:#99bdcc;fill-opacity:1"
       sodipodi:nodetypes="ssssssssssssccsssscs"
       inkscape:label="out2" />
    <path
       stroke="none"
       fill="#1c9fd7"
       d="m 58,4 c 1.5,0 2,0.5 2,2 v 52 c 0,1.5 -0.5,2 -2,2 H 6 C 4.5,60 4,59.5 4,58 V 6 C 4,4.5 4.5,4 6,4 Z M 6,6 V 58 H 58 V 6 H 6"
       id="path2"
       style="display:inline;fill:#7d9aa6;fill-opacity:1"
       sodipodi:nodetypes="sssssssssccccc"
       inkscape:label="out3" />
    <path
       stroke="none"
       fill="#167da8"
       d="M 0,58.25 V 6 C 0,2 2,0 6,0 h 52 c 4,0 6,2 6,6 v 52 c 0,4 -2,6 -6,6 H 6 C 2,64 0,62 0,58.25 M 58,2 H 6 C 3,2 2,3 2,6 v 52 c 0,3 1,4 4,4 h 52 c 3,0 4,-1 4,-4 V 6 C 62,3 61,2 58,2 Z"
       id="path3"
       style="display:inline;fill:#516873;fill-opacity:1"
       sodipodi:nodetypes="cssssssscsssssssss"
       inkscape:label="out1" />
    <path
       stroke="none"
       fill="#ffffff"
       d="M 6,6 H 58 V 58 H 6 V 6 M 57,57 V 7 H 7 v 50 z"
       id="path4"
       inkscape:label="out4"
       sodipodi:nodetypes="cccccccccc" />
  </g>
</svg>
