<?xml version="1.0" encoding="UTF-8" standalone="no"?>
<svg
   width="50"
   height="50"
   fill="none"
   version="1.1"
   id="svg3"
   sodipodi:docname="slot_frame_normal.svg"
   inkscape:version="1.4 (e7c3feb, 2024-10-09)"
   viewBox="0 0 50 50"
   xmlns:inkscape="http://www.inkscape.org/namespaces/inkscape"
   xmlns:sodipodi="http://sodipodi.sourceforge.net/DTD/sodipodi-0.dtd"
   xmlns="http://www.w3.org/2000/svg"
   xmlns:svg="http://www.w3.org/2000/svg">
  <defs
     id="defs3" />
  <sodipodi:namedview
     id="namedview3"
     pagecolor="#ffffff"
     bordercolor="#666666"
     borderopacity="1.0"
     inkscape:showpageshadow="2"
     inkscape:pageopacity="0.0"
     inkscape:pagecheckerboard="0"
     inkscape:deskcolor="#d1d1d1"
     inkscape:zoom="9.1039998"
     inkscape:cx="13.016257"
     inkscape:cy="28.449034"
     inkscape:window-width="1920"
     inkscape:window-height="1027"
     inkscape:window-x="0"
     inkscape:window-y="0"
     inkscape:window-maximized="1"
     inkscape:current-layer="svg3"
     showgrid="true">
    <inkscape:grid
       id="grid3"
       units="px"
       originx="0"
       originy="0"
       spacingx="0.5"
       spacingy="0.5"
       empcolor="#0099e5"
       empopacity="0.30196078"
       color="#0099e5"
       opacity="0.14901961"
       empspacing="5"
       enabled="true"
       visible="true" />
  </sodipodi:namedview>
  <g
     style="fill:#000000"
     class="frame-children"
     id="g3">
    <path
       d="m 6,2 h 38 c 3,0 4,1 4,4 v 38 c 0,3 -1,4 -4,4 H 6 C 3,48 2,47 2,44 V 6 C 2,3 3,2 6,2 Z M 6,4 C 4.5,4 4,4.5 4,6 v 38 c 0,1.5 0.5,2 2,2 h 38 c 1.5,0 2,-0.5 2,-2 V 6 C 46,4.5 45.5,4 44,4 Z"
       style="display:inline;fill:#dadce7"
       class="fills"
       id="path1"
       sodipodi:nodetypes="ssssssssssssssssss" />
    <path
       d="m 6,4 h 38 c 1.5,0 2,0.5 2,2 v 38 c 0,1.5 -0.5,2 -2,2 H 6 C 4.5,46 4,45.5 4,44 V 6 C 4,4.5 4.5,4 6,4 Z M 6,0 h 38 c 4,0 6,2 6,6 v 38 c 0,4 -2,6 -6,6 H 6 C 2,50 0,48 0,44 V 6 C 0,2 2,0 6,0 Z M 44,6 H 6 V 44 H 44 Z M 6,2 C 3,2 2,3 2,6 v 38 c 0,3 1,4 4,4 h 38 c 3,0 4,-1 4,-4 V 6 C 48,3 47,2 44,2 Z"
       style="display:inline;fill:#989aaf"
       class="fills"
       id="path2"
       sodipodi:nodetypes="sssssssssssssssssscccccsssssssss" />
  </g>
</svg>
