<svg width="50" xmlns="http://www.w3.org/2000/svg" height="50" fill="none"><g class="fills"><rect rx="0" ry="0" width="50" height="50" transform="matrix(1.000000, 0.000000, 0.000000, 1.000000, 0.000000, 0.000000)" class="frame-background"/></g><g style="fill: rgb(0, 0, 0);" class="frame-children"><g class="fills"><path d="M6.000,2.000L44.000,2.000C47.000,2.000,48.000,3.000,48.000,6.000L48.000,44.000C48.000,47.000,47.000,48.000,44.000,48.000L6.000,48.000C3.000,48.000,2.000,47.000,2.000,44.000L2.000,6.000C2.000,3.000,3.000,2.000,6.000,2.000ZZM6.000,4.000C4.500,4.000,4.000,4.500,4.000,6.000L4.000,44.000C4.000,45.500,4.500,46.000,6.000,46.000L44.000,46.000C45.500,46.000,46.000,45.500,46.000,44.000L46.000,6.000C46.000,4.500,45.500,4.000,44.000,4.000Z" class="fills" style="display: inline; fill: rgb(218, 220, 231);"/></g><g class="fills"><path d="M6.000,4.000L44.000,4.000C45.500,4.000,46.000,4.500,46.000,6.000L46.000,44.000C46.000,45.500,45.500,46.000,44.000,46.000L6.000,46.000C4.500,46.000,4.000,45.500,4.000,44.000L4.000,6.000C4.000,4.500,4.500,4.000,6.000,4.000ZZM6.000,0.000L44.000,0.000C48.000,0.000,50.000,2.000,50.000,6.000L50.000,44.000C50.000,48.000,48.000,50.000,44.000,50.000L6.000,50.000C2.000,50.000,0.000,48.000,0.000,44.000L0.000,6.000C0.000,2.000,2.000,0.000,6.000,0.000ZZM44.000,6.000L6.000,6.000L6.000,44.000L44.000,44.000ZM6.000,2.000C3.000,2.000,2.000,3.000,2.000,6.000L2.000,44.000C2.000,47.000,3.000,48.000,6.000,48.000L44.000,48.000C47.000,48.000,48.000,47.000,48.000,44.000L48.000,6.000C48.000,3.000,47.000,2.000,44.000,2.000Z" class="fills" style="display: inline; fill: rgb(152, 154, 175);"/></g></g></svg>