<svg width="140" xmlns="http://www.w3.org/2000/svg" height="30" fill="none"><g class="fills"><rect rx="0" ry="0" width="140" height="30" class="frame-background"/></g><g class="frame-children"><rect rx="0" ry="0" x="7" y="3" width="126" height="24" style="fill: rgb(204, 204, 204); fill-opacity: 1;" class="fills"/><g class="strokes"><rect rx="0" ry="0" x="7" y="3" width="126" height="24" style="fill: none; stroke-width: 3; stroke: rgb(0, 0, 0); stroke-opacity: 1;" class="stroke-shape"/></g><g class="fills"><rect rx="0" ry="0" x="64.315" y="7.352" width="11.371" height="15.296" class="frame-background"/></g><g class="frame-children"><path d="M75.685 19.277h-2.112v3.371h-2.197v-3.371h-7.061v-1.792l7.018-10.133h2.24v10.005h2.112Zm-4.309-6.058c0-.669.014-1.295.043-1.878.028-.597.049-1.095.064-1.493h-.086a7.068 7.068 0 0 1-.426.875 5.89 5.89 0 0 1-.491.789l-4.032 5.845h4.928Z" style="display: inline; font-weight: 500; font-size: 5.64444px; line-height: 1.25; font-family: &quot;Noto Sans&quot;; stroke-width: 0.264583; fill: rgb(0, 0, 0); fill-opacity: 1;" class="fills"/></g></g></svg>