<svg width="50" xmlns="http://www.w3.org/2000/svg" height="50" fill="none"><defs><clipPath id="a" class="frame-clip frame-clip-def"><rect rx="0" ry="0" width="50" height="50"/></clipPath></defs><g clip-path="url(#a)"><g class="fills"><rect rx="0" ry="0" width="50" height="50" class="frame-background"/></g><g class="frame-children"><g class="fills"><rect rx="0" ry="0" x="-27.5" y="10" width="105" height="30" class="frame-background"/></g><g class="frame-children"><rect rx="0" ry="0" x="-20.5" y="13" width="91" height="24" style="fill: rgb(204, 204, 204); fill-opacity: 1;" class="fills"/><g class="strokes"><rect rx="0" ry="0" x="-20.5" y="13" width="91" height="24" style="fill: none; stroke-width: 3; stroke: rgb(0, 0, 0); stroke-opacity: 1;" class="stroke-shape"/></g><g class="fills"><rect rx="0" ry="0" x="19.912" y="17.171" width="10.176" height="15.659" class="frame-background"/></g><g class="frame-children"><path d="M29.619 20.904c0 1.038-.299 1.863-.896 2.475-.583.611-1.344 1.017-2.283 1.216v.085c1.209.142 2.119.526 2.731 1.152.611.612.917 1.422.917 2.432 0 .882-.213 1.671-.64 2.368-.412.683-1.06 1.223-1.941 1.621-.868.384-1.984.576-3.35.576-.81 0-1.564-.064-2.261-.192a7.884 7.884 0 0 1-1.984-.64v-2.048a9.05 9.05 0 0 0 2.048.747c.74.171 1.444.256 2.112.256 1.294 0 2.226-.242 2.795-.725.569-.498.853-1.188.853-2.07 0-.853-.341-1.479-1.024-1.877-.683-.398-1.707-.597-3.072-.597h-1.387v-1.856h1.408c1.295 0 2.233-.242 2.816-.726.583-.483.875-1.116.875-1.898 0-.683-.228-1.209-.683-1.579-.441-.384-1.081-.576-1.92-.576-.782 0-1.465.121-2.048.363a9.12 9.12 0 0 0-1.6.874l-1.109-1.557c.555-.427 1.23-.789 2.027-1.088.81-.313 1.742-.469 2.794-.469 1.579 0 2.774.348 3.584 1.045.825.683 1.238 1.579 1.238 2.688Z" style="display: inline; font-weight: 500; font-size: 5.64444px; line-height: 1.25; font-family: &quot;Noto Sans&quot;; stroke-width: 0.264583; fill: rgb(0, 0, 0); fill-opacity: 1;" class="fills"/></g></g></g></g></svg>