<svg width="50" xmlns="http://www.w3.org/2000/svg" height="50" fill="none"><defs><clipPath id="a" class="frame-clip frame-clip-def"><rect rx="0" ry="0" width="50" height="50"/></clipPath></defs><g clip-path="url(#a)"><g class="fills"><rect rx="0" ry="0" width="50" height="50" class="frame-background"/></g><g class="frame-children"><g class="fills"><rect rx="0" ry="0" x="-10" y="10" width="70" height="30" class="frame-background"/></g><g class="frame-children"><rect rx="0" ry="0" x="-3" y="13" width="56" height="24" style="fill: rgb(204, 204, 204); fill-opacity: 1;" class="fills"/><g class="strokes"><rect rx="0" ry="0" x="-3" y="13" width="56" height="24" style="fill: none; stroke-width: 3; stroke: rgb(0, 0, 0); stroke-opacity: 1;" class="stroke-shape"/></g><g class="fills"><rect rx="0" ry="0" x="19.88" y="17.277" width="10.24" height="15.445" class="frame-background"/></g><g class="frame-children"><path d="M30.12 32.723H19.88v-1.75l3.925-3.989a65.467 65.467 0 0 0 1.92-2.027c.512-.583.896-1.137 1.152-1.664a4.03 4.03 0 0 0 .384-1.749c0-.768-.227-1.351-.682-1.749-.455-.399-1.046-.598-1.771-.598-.697 0-1.323.128-1.877.384-.555.256-1.131.626-1.728 1.11l-1.216-1.515a9.681 9.681 0 0 1 2.09-1.323c.783-.384 1.714-.576 2.795-.576 1.451 0 2.588.37 3.413 1.11.839.739 1.259 1.728 1.259 2.965 0 .811-.164 1.564-.491 2.261-.327.683-.789 1.366-1.386 2.048a36.965 36.965 0 0 1-2.112 2.198l-2.838 2.752v.106h7.403Z" style="display: inline; font-weight: 500; font-size: 5.64444px; line-height: 1.25; font-family: &quot;Noto Sans&quot;; stroke-width: 0.264583; fill: rgb(0, 0, 0); fill-opacity: 1;" class="fills"/></g></g></g></g></svg>