<svg width="64" xmlns="http://www.w3.org/2000/svg" height="64" fill="none"><g class="fills"><rect rx="0" ry="0" width="64" height="64" transform="matrix(1.000000, 0.000000, 0.000000, 1.000000, 0.000000, 0.000000)" class="frame-background"/></g><g style="fill: rgb(0, 0, 0);" class="frame-children"><path d="M6.000,58.000L6.000,6.000L58.000,6.000L58.000,58.000" style="display: inline; fill: rgb(205, 206, 217); fill-opacity: 1;" class="fills"/><path d="M62.000,58.000C62.000,61.000,61.000,62.000,58.000,62.000L6.000,62.000C3.000,62.000,2.000,61.000,2.000,58.000L2.000,6.000C2.000,3.000,3.000,2.000,6.000,2.000L58.000,2.000C61.000,2.000,62.000,3.000,62.000,6.000ZM4.000,6.000L4.000,58.000C4.000,59.500,4.500,60.000,6.000,60.000L27.450,60.000L28.000,60.000L58.000,60.000C59.500,60.000,60.000,59.500,60.000,58.000L60.000,6.000C60.000,4.500,59.500,4.000,58.000,4.000L6.000,4.000C4.500,4.000,4.000,4.500,4.000,6.000ZZ" style="display: inline; fill: rgb(153, 189, 204); fill-opacity: 1;" class="fills"/><path d="M58.000,4.000C59.500,4.000,60.000,4.500,60.000,6.000L60.000,58.000C60.000,59.500,59.500,60.000,58.000,60.000L6.000,60.000C4.500,60.000,4.000,59.500,4.000,58.000L4.000,6.000C4.000,4.500,4.500,4.000,6.000,4.000ZM6.000,6.000L6.000,58.000L58.000,58.000L58.000,6.000L6.000,6.000Z" style="display: inline; fill: rgb(125, 154, 166); fill-opacity: 1;" class="fills"/><path d="M0.000,58.250L0.000,6.000C0.000,2.000,2.000,0.000,6.000,0.000L58.000,0.000C62.000,0.000,64.000,2.000,64.000,6.000L64.000,58.000C64.000,62.000,62.000,64.000,58.000,64.000L6.000,64.000C2.000,64.000,0.000,62.000,0.000,58.250ZM58.000,2.000L6.000,2.000C3.000,2.000,2.000,3.000,2.000,6.000L2.000,58.000C2.000,61.000,3.000,62.000,6.000,62.000L58.000,62.000C61.000,62.000,62.000,61.000,62.000,58.000L62.000,6.000C62.000,3.000,61.000,2.000,58.000,2.000ZZ" style="display: inline; fill: rgb(81, 104, 115); fill-opacity: 1;" class="fills"/><path d="M6.000,6.000L58.000,6.000L58.000,58.000L6.000,58.000L6.000,6.000ZM57.000,57.000L57.000,7.000L7.000,7.000L7.000,57.000Z" style="fill: rgb(255, 255, 255);" class="fills"/></g></svg>