<svg width="50" xmlns="http://www.w3.org/2000/svg" height="50" fill="none"><g class="frame-container-wrapper"><g class="frame-container-blur"><g class="frame-container-shadows"><g class="fills"><rect rx="0" ry="0" width="50" height="50" transform="matrix(1.000000, 0.000000, 0.000000, 1.000000, 0.000000, 0.000000)" class="frame-background"/></g><g class="frame-children"><g class="frame-container-wrapper"><g class="frame-container-blur"><g class="frame-container-shadows"><g class="fills"><rect rx="0" ry="0" width="50" height="50" transform="matrix(1.000000, 0.000000, 0.000000, 1.000000, 0.000000, 0.000000)" class="frame-background"/></g><g class="frame-children"><path d="M43.387,20.674L27.762,5.049C26.236,3.524,23.764,3.524,22.238,5.049L6.613,20.674C5.878,21.405,5.465,22.400,5.469,23.438L5.469,42.188C5.469,43.482,6.518,44.531,7.813,44.531L20.313,44.531C21.607,44.531,22.656,43.482,22.656,42.188L22.656,32.031L27.344,32.031L27.344,42.188C27.344,43.482,28.393,44.531,29.688,44.531L42.188,44.531C43.482,44.531,44.531,43.482,44.531,42.188L44.531,23.438C44.535,22.400,44.122,21.405,43.387,20.674ZZM39.844,39.844L32.031,39.844L32.031,29.688C32.031,28.393,30.982,27.344,29.688,27.344L20.313,27.344C19.018,27.344,17.969,28.393,17.969,29.688L17.969,39.844L10.156,39.844L10.156,23.760L25.000,8.916L39.844,23.760Z" style="fill: rgb(0, 0, 0);" class="fills"/></g></g></g></g></g></g></g></g></svg>