<svg width="50" xmlns="http://www.w3.org/2000/svg" height="50" id="screenshot-add6defc-a363-8029-8006-2544568851de" viewBox="-0 0 50 50" xmlns:xlink="http://www.w3.org/1999/xlink" fill="none" version="1.1"><g id="shape-add6defc-a363-8029-8006-2544568851de"><g class="frame-container-wrapper"><g class="frame-container-blur"><g class="frame-container-shadows"><g fill="none"><g class="fills" id="fills-add6defc-a363-8029-8006-2544568851de"><rect rx="0" ry="0" x="0" y="0" width="50" height="50" transform="matrix(1.000000, 0.000000, 0.000000, 1.000000, 0.000000, 0.000000)" class="frame-background"/></g><g class="frame-children"><g id="shape-add6defc-a363-8029-8006-254138b501c0"><g class="frame-container-wrapper"><g class="frame-container-blur"><g class="frame-container-shadows"><g fill="none"><g class="fills" id="fills-add6defc-a363-8029-8006-254138b501c0"><rect rx="0" ry="0" x="0" y="0" width="50" height="50" transform="matrix(1.000000, 0.000000, 0.000000, 1.000000, 0.000000, 0.000000)" class="frame-background"/></g><g class="frame-children"><g id="shape-add6defc-a363-8029-8006-254138b54d3c" width="32" height="32" rx="0" ry="0" style="fill: rgb(0, 0, 0);"><g id="shape-add6defc-a363-8029-8006-254138b54d3d" style="display: none;"><g class="fills" id="fills-add6defc-a363-8029-8006-254138b54d3d"><rect width="50" height="50" x="0" transform="matrix(1.000000, 0.000000, 0.000000, 1.000000, 0.000000, 0.000000)" style="fill: none;" ry="0" fill="none" rx="0" y="0"/></g></g><g id="shape-add6defc-a363-8029-8006-254138b54d3e"><g class="fills" id="fills-add6defc-a363-8029-8006-254138b54d3e"><path d="M31.250,15.625C34.702,15.625,37.500,12.827,37.500,9.375C37.500,5.923,34.702,3.125,31.250,3.125C27.798,3.125,25.000,5.923,25.000,9.375C25.000,12.827,27.798,15.625,31.250,15.625ZZM31.250,7.813C32.113,7.813,32.813,8.512,32.813,9.375C32.813,10.238,32.113,10.938,31.250,10.938C30.387,10.938,29.688,10.238,29.688,9.375C29.688,8.512,30.387,7.813,31.250,7.813ZZM49.672,37.867L39.016,19.883C38.316,18.691,37.036,17.962,35.654,17.969L35.654,17.969C34.273,17.962,32.993,18.692,32.295,19.883L28.643,26.045L21.334,13.643C20.632,12.451,19.352,11.720,17.969,11.720C16.586,11.720,15.306,12.451,14.604,13.643L0.324,37.873C-0.103,38.598,-0.108,39.495,0.309,40.226C0.726,40.956,1.503,41.406,2.344,41.406L47.656,41.406C48.498,41.406,49.276,40.954,49.692,40.222C50.109,39.491,50.101,38.592,49.672,37.867ZZM17.969,17.162L21.205,22.656L14.732,22.656ZM6.445,36.719L11.969,27.344L23.969,27.344L29.492,36.719ZM34.934,36.719L31.359,30.664L35.656,23.418L43.543,36.719Z"/></g></g></g></g></g></g></g></g></g></g></g></g></g></g></g></svg>