<svg width="50" xmlns="http://www.w3.org/2000/svg" height="50" id="screenshot-add6defc-a363-8029-8006-2544d8dcd988" viewBox="0 0 50 50" xmlns:xlink="http://www.w3.org/1999/xlink" fill="none" version="1.1"><g id="shape-add6defc-a363-8029-8006-2544d8dcd988"><g class="frame-container-wrapper"><g class="frame-container-blur"><g class="frame-container-shadows"><g fill="none"><g class="fills" id="fills-add6defc-a363-8029-8006-2544d8dcd988"><rect rx="0" ry="0" x="0" y="0" width="50" height="50" transform="matrix(1.000000, 0.000000, 0.000000, 1.000000, 0.000000, 0.000000)" class="frame-background"/></g><g class="frame-children"><g id="shape-add6defc-a363-8029-8006-253f514d59b8"><g class="frame-container-wrapper"><g class="frame-container-blur"><g class="frame-container-shadows"><g fill="none"><g class="fills" id="fills-add6defc-a363-8029-8006-253f514d59b8"><rect rx="0" ry="0" x="0" y="0" width="50" height="50" transform="matrix(1.000000, 0.000000, 0.000000, 1.000000, 0.000000, 0.000000)" class="frame-background"/></g><g class="frame-children"><g id="shape-add6defc-a363-8029-8006-253f514d59b9" rx="0" ry="0" style="fill: rgb(0, 0, 0);"><g id="shape-add6defc-a363-8029-8006-253f514d59ba" style="display: none;"><g class="fills" id="fills-add6defc-a363-8029-8006-253f514d59ba"><rect width="50" height="50" x="0" transform="matrix(1.000000, 0.000000, 0.000000, 1.000000, 0.000000, 0.000000)" style="fill: none;" ry="0" fill="none" rx="0" y="0"/></g></g><g id="shape-add6defc-a363-8029-8006-253f514d59bb"><g class="fills" id="fills-add6defc-a363-8029-8006-253f514d59bb"><path d="M44.531,25.000C44.531,26.294,43.482,27.344,42.188,27.344L13.477,27.344L23.539,37.404C24.456,38.321,24.456,39.808,23.539,40.725C22.622,41.641,21.136,41.641,20.219,40.725L6.156,26.662C5.715,26.222,5.467,25.625,5.467,25.002C5.467,24.379,5.715,23.782,6.156,23.342L20.219,9.279C21.136,8.362,22.622,8.362,23.539,9.279C24.456,10.196,24.456,11.683,23.539,12.600L13.477,22.656L42.188,22.656C43.482,22.656,44.531,23.706,44.531,25.000ZZ" style="fill: rgb(0, 0, 0);"/></g></g></g></g></g></g></g></g></g></g></g></g></g></g></g></svg>