<svg width="50" xmlns="http://www.w3.org/2000/svg" height="50" id="screenshot-add6defc-a363-8029-8006-2544c8926e04" viewBox="0 0 50 50" xmlns:xlink="http://www.w3.org/1999/xlink" fill="none" version="1.1"><g id="shape-add6defc-a363-8029-8006-2544c8926e04"><g class="frame-container-wrapper"><g class="frame-container-blur"><g class="frame-container-shadows"><g fill="none"><g class="fills" id="fills-add6defc-a363-8029-8006-2544c8926e04"><rect rx="0" ry="0" x="0" y="0" width="50" height="50" transform="matrix(1.000000, 0.000000, 0.000000, 1.000000, 0.000000, 0.000000)" class="frame-background"/></g><g class="frame-children"><g id="shape-add6defc-a363-8029-8006-253f0f641c3e"><g class="frame-container-wrapper"><g class="frame-container-blur"><g class="frame-container-shadows"><g fill="none"><g class="fills" id="fills-add6defc-a363-8029-8006-253f0f641c3e"><rect rx="0" ry="0" x="0" y="0" width="50" height="50" transform="matrix(1.000000, 0.000000, 0.000000, 1.000000, 0.000000, 0.000000)" class="frame-background"/></g><g class="frame-children"><g id="shape-add6defc-a363-8029-8006-253f0f641c3f" rx="0" ry="0" style="fill: rgb(0, 0, 0);"><g id="shape-add6defc-a363-8029-8006-253f0f647a50" style="display: none;"><g class="fills" id="fills-add6defc-a363-8029-8006-253f0f647a50"><rect width="50" height="50" x="0" transform="matrix(1.000000, 0.000000, 0.000000, 1.000000, 0.000000, 0.000000)" style="fill: none;" ry="0" fill="none" rx="0" y="0"/></g></g><g id="shape-add6defc-a363-8029-8006-253f0f647a51"><g class="fills" id="fills-add6defc-a363-8029-8006-253f0f647a51"><path d="M41.406,43.750C41.406,45.044,40.357,46.094,39.063,46.094C27.418,46.081,17.982,36.644,17.969,25.000L17.969,11.914L12.596,17.283C11.679,18.200,10.192,18.200,9.275,17.283C8.359,16.366,8.359,14.880,9.275,13.963L18.650,4.588C19.090,4.147,19.688,3.899,20.311,3.899C20.934,3.899,21.531,4.147,21.971,4.588L31.346,13.963C32.263,14.880,32.263,16.366,31.346,17.283C30.429,18.200,28.942,18.200,28.025,17.283L22.656,11.914L22.656,25.000C22.666,34.057,30.006,41.397,39.063,41.406C40.357,41.406,41.406,42.456,41.406,43.750ZZ" style="fill: rgb(0, 0, 0);"/></g></g></g></g></g></g></g></g></g></g></g></g></g></g></g></svg>