<svg width="50" xmlns="http://www.w3.org/2000/svg" height="50" id="screenshot-add6defc-a363-8029-8006-2544d9a84247" viewBox="0 0 50 50" xmlns:xlink="http://www.w3.org/1999/xlink" fill="none" version="1.1"><g id="shape-add6defc-a363-8029-8006-2544d9a84247"><g class="frame-container-wrapper"><g class="frame-container-blur"><g class="frame-container-shadows"><g fill="none"><g class="fills" id="fills-add6defc-a363-8029-8006-2544d9a84247"><rect rx="0" ry="0" x="0" y="0" width="50" height="50" transform="matrix(1.000000, 0.000000, 0.000000, 1.000000, 0.000000, 0.000000)" class="frame-background"/></g><g class="frame-children"><g id="shape-add6defc-a363-8029-8006-254266f8e911"><g class="frame-container-wrapper"><g class="frame-container-blur"><g class="frame-container-shadows"><g fill="none"><g class="fills" id="fills-add6defc-a363-8029-8006-254266f8e911"><rect rx="0" ry="0" x="0" y="0" width="50" height="50" transform="matrix(1.000000, 0.000000, 0.000000, 1.000000, 0.000000, 0.000000)" class="frame-background"/></g><g class="frame-children"><g id="shape-add6defc-a363-8029-8006-254266f8e912" rx="0" ry="0" style="fill: rgb(0, 0, 0);"><g id="shape-add6defc-a363-8029-8006-254266f8e913" style="display: none;"><g class="fills" id="fills-add6defc-a363-8029-8006-254266f8e913"><rect width="50" height="50" x="0" transform="matrix(1.000000, 0.000000, 0.000000, 1.000000, 0.000000, 0.000000)" style="fill: none;" ry="0" fill="none" rx="0" y="0"/></g></g><g id="shape-add6defc-a363-8029-8006-254266f8e914"><g class="fills" id="fills-add6defc-a363-8029-8006-254266f8e914"><path d="M25.000,27.344C25.000,28.638,23.951,29.688,22.656,29.688L14.063,29.688C12.768,29.688,11.719,28.638,11.719,27.344C11.719,26.049,12.768,25.000,14.063,25.000L22.656,25.000C23.951,25.000,25.000,26.049,25.000,27.344ZZM22.656,17.188L14.063,17.188C12.768,17.188,11.719,18.237,11.719,19.531C11.719,20.826,12.768,21.875,14.063,21.875L22.656,21.875C23.951,21.875,25.000,20.826,25.000,19.531C25.000,18.237,23.951,17.188,22.656,17.188ZZM46.094,32.645L46.094,44.531C46.094,45.367,45.649,46.139,44.927,46.558C44.204,46.977,43.313,46.981,42.588,46.566L38.281,44.105L33.984,46.566C33.258,46.986,32.364,46.985,31.638,46.565C30.913,46.145,30.467,45.370,30.469,44.531L30.469,39.844L7.813,39.844C5.655,39.844,3.906,38.095,3.906,35.938L3.906,10.938C3.906,8.780,5.655,7.031,7.813,7.031L42.188,7.031C44.345,7.031,46.094,8.780,46.094,10.938L46.094,17.355C50.261,21.600,50.261,28.400,46.094,32.645ZZM38.281,31.250C41.733,31.250,44.531,28.452,44.531,25.000C44.531,21.548,41.733,18.750,38.281,18.750C34.829,18.750,32.031,21.548,32.031,25.000C32.031,28.452,34.829,31.250,38.281,31.250ZZM30.469,35.156L30.469,32.645C26.991,29.081,26.360,23.618,28.932,19.355C31.505,15.091,36.632,13.104,41.406,14.520L41.406,11.719L8.594,11.719L8.594,35.156ZM41.406,40.492L41.406,35.480C39.367,36.090,37.195,36.090,35.156,35.480L35.156,40.492L37.119,39.371C37.839,38.960,38.723,38.960,39.443,39.371Z" style="fill: rgb(0, 0, 0);"/></g></g></g></g></g></g></g></g></g></g></g></g></g></g></g></svg>