<svg width="50" xmlns="http://www.w3.org/2000/svg" height="50" id="screenshot-add6defc-a363-8029-8006-2544d7748019" viewBox="0 0 50 50" xmlns:xlink="http://www.w3.org/1999/xlink" fill="none" version="1.1"><g id="shape-add6defc-a363-8029-8006-2544d7748019"><g class="frame-container-wrapper"><g class="frame-container-blur"><g class="frame-container-shadows"><g fill="none"><g class="fills" id="fills-add6defc-a363-8029-8006-2544d7748019"><rect rx="0" ry="0" x="0" y="0" width="50" height="50" transform="matrix(1.000000, 0.000000, 0.000000, 1.000000, 0.000000, 0.000000)" class="frame-background"/></g><g class="frame-children"><g id="shape-add6defc-a363-8029-8006-25431f8de8aa"><g class="frame-container-wrapper"><g class="frame-container-blur"><g class="frame-container-shadows"><g fill="none"><g class="fills" id="fills-add6defc-a363-8029-8006-25431f8de8aa"><rect rx="0" ry="0" x="0" y="0" width="50" height="50" transform="matrix(1.000000, 0.000000, 0.000000, 1.000000, 0.000000, 0.000000)" class="frame-background"/></g><g class="frame-children"><g id="shape-add6defc-a363-8029-8006-25431f8de8ab" rx="0" ry="0" style="fill: rgb(0, 0, 0);"><g id="shape-add6defc-a363-8029-8006-25431f8de8ac" style="display: none;"><g class="fills" id="fills-add6defc-a363-8029-8006-25431f8de8ac"><rect width="50" height="50" x="0" transform="matrix(1.000000, 0.000000, 0.000000, 1.000000, 0.000000, 0.000000)" style="fill: none;" ry="0" fill="none" rx="0" y="0"/></g></g><g id="shape-add6defc-a363-8029-8006-25431f8de8ad"><g class="fills" id="fills-add6defc-a363-8029-8006-25431f8de8ad"><path d="M21.094,16.406C21.094,14.680,22.493,13.281,24.219,13.281C25.945,13.281,27.344,14.680,27.344,16.406C27.344,18.132,25.945,19.531,24.219,19.531C22.493,19.531,21.094,18.132,21.094,16.406ZZM46.094,25.000C46.094,36.650,36.650,46.094,25.000,46.094C13.350,46.094,3.906,36.650,3.906,25.000C3.906,13.350,13.350,3.906,25.000,3.906C36.644,3.919,46.081,13.356,46.094,25.000ZZM41.406,25.000C41.406,15.939,34.061,8.594,25.000,8.594C15.939,8.594,8.594,15.939,8.594,25.000C8.594,34.061,15.939,41.406,25.000,41.406C34.057,41.397,41.397,34.057,41.406,25.000ZZM27.344,32.164L27.344,25.781C27.344,23.624,25.595,21.875,23.438,21.875C22.295,21.873,21.317,22.696,21.124,23.823C20.931,24.949,21.578,26.050,22.656,26.430L22.656,32.813C22.656,34.970,24.405,36.719,26.563,36.719C27.705,36.720,28.683,35.898,28.876,34.771C29.069,33.645,28.422,32.543,27.344,32.164ZZ" style="fill: rgb(0, 0, 0);"/></g></g></g></g></g></g></g></g></g></g></g></g></g></g></g></svg>