<svg width="50" xmlns="http://www.w3.org/2000/svg" height="50" id="screenshot-add6defc-a363-8029-8006-2544d87573bd" viewBox="0 0 50 50" xmlns:xlink="http://www.w3.org/1999/xlink" fill="none" version="1.1"><g id="shape-add6defc-a363-8029-8006-2544d87573bd"><g class="frame-container-wrapper"><g class="frame-container-blur"><g class="frame-container-shadows"><g fill="none"><g class="fills" id="fills-add6defc-a363-8029-8006-2544d87573bd"><rect rx="0" ry="0" x="0" y="0" width="50" height="50" transform="matrix(1.000000, 0.000000, 0.000000, 1.000000, 0.000000, 0.000000)" class="frame-background"/></g><g class="frame-children"><g id="shape-add6defc-a363-8029-8006-2542bd3e9178"><g class="frame-container-wrapper"><g class="frame-container-blur"><g class="frame-container-shadows"><g fill="none"><g class="fills" id="fills-add6defc-a363-8029-8006-2542bd3e9178"><rect rx="0" ry="0" x="0" y="0" width="50" height="50" transform="matrix(1.000000, 0.000000, 0.000000, 1.000000, 0.000000, 0.000000)" class="frame-background"/></g><g class="frame-children"><g id="shape-add6defc-a363-8029-8006-2542bd3e9179" rx="0" ry="0" style="fill: rgb(0, 0, 0);"><g id="shape-add6defc-a363-8029-8006-2542bd3e917a" style="display: none;"><g class="fills" id="fills-add6defc-a363-8029-8006-2542bd3e917a"><rect width="50" height="50" x="0" transform="matrix(1.000000, 0.000000, 0.000000, 1.000000, 0.000000, 0.000000)" style="fill: none;" ry="0" fill="none" rx="0" y="0"/></g></g><g id="shape-add6defc-a363-8029-8006-2542bd3e917b"><g class="fills" id="fills-add6defc-a363-8029-8006-2542bd3e917b"><path d="M17.969,17.969C17.969,16.674,19.018,15.625,20.313,15.625L32.031,15.625C33.326,15.625,34.375,16.674,34.375,17.969C34.375,19.263,33.326,20.313,32.031,20.313L20.313,20.313C19.018,20.313,17.969,19.263,17.969,17.969ZZM20.313,28.125L32.031,28.125C33.326,28.125,34.375,27.076,34.375,25.781C34.375,24.487,33.326,23.438,32.031,23.438L20.313,23.438C19.018,23.438,17.969,24.487,17.969,25.781C17.969,27.076,19.018,28.125,20.313,28.125ZZM46.094,37.500C46.094,41.383,42.946,44.531,39.063,44.531L17.188,44.531C13.304,44.531,10.156,41.383,10.156,37.500L10.156,12.500C10.156,11.206,9.107,10.156,7.813,10.156C6.518,10.156,5.469,11.206,5.469,12.500C5.469,13.229,6.123,13.771,6.129,13.777L6.094,13.750L6.094,13.750C6.796,14.240,7.175,15.074,7.082,15.926C6.990,16.777,6.440,17.510,5.649,17.838C4.857,18.165,3.950,18.035,3.283,17.498L3.283,17.498C3.025,17.309,0.781,15.537,0.781,12.500C0.781,8.617,3.929,5.469,7.813,5.469L34.375,5.469C38.258,5.469,41.406,8.617,41.406,12.500L41.406,32.031L42.188,32.031C42.695,32.031,43.188,32.196,43.594,32.500C43.850,32.691,46.094,34.463,46.094,37.500ZZM18.090,33.633C18.409,32.676,19.304,32.031,20.313,32.031L36.719,32.031L36.719,12.500C36.719,11.206,35.669,10.156,34.375,10.156L14.441,10.156C14.708,10.909,14.844,11.702,14.844,12.500L14.844,37.500C14.844,38.794,15.893,39.844,17.188,39.844C18.482,39.844,19.531,38.794,19.531,37.500C19.531,36.801,18.912,36.254,18.906,36.250C18.099,35.644,17.770,34.590,18.090,33.633ZZM41.406,37.500C41.399,37.222,41.316,36.952,41.164,36.719L24.172,36.719C24.206,36.978,24.223,37.239,24.223,37.500C24.223,38.298,24.087,39.091,23.820,39.844L39.063,39.844C40.357,39.844,41.406,38.794,41.406,37.500ZZ" style="fill: rgb(0, 0, 0);"/></g></g></g></g></g></g></g></g></g></g></g></g></g></g></g></svg>