<svg width="50" xmlns="http://www.w3.org/2000/svg" height="50" id="screenshot-add6defc-a363-8029-8006-2544d947bf8e" viewBox="0 0 50 50" xmlns:xlink="http://www.w3.org/1999/xlink" fill="none" version="1.1"><g id="shape-add6defc-a363-8029-8006-2544d947bf8e"><g class="frame-container-wrapper"><g class="frame-container-blur"><g class="frame-container-shadows"><g fill="none"><g class="fills" id="fills-add6defc-a363-8029-8006-2544d947bf8e"><rect rx="0" ry="0" x="0" y="0" width="50" height="50" transform="matrix(1.000000, 0.000000, 0.000000, 1.000000, 0.000000, 0.000000)" class="frame-background"/></g><g class="frame-children"><g id="shape-add6defc-a363-8029-8006-253fdca691ce"><g class="frame-container-wrapper"><g class="frame-container-blur"><g class="frame-container-shadows"><g fill="none"><g class="fills" id="fills-add6defc-a363-8029-8006-253fdca691ce"><rect rx="0" ry="0" x="0" y="0" width="50" height="50" transform="matrix(1.000000, 0.000000, 0.000000, 1.000000, 0.000000, 0.000000)" class="frame-background"/></g><g class="frame-children"><g id="shape-add6defc-a363-8029-8006-253fdca691cf" rx="0" ry="0" style="fill: rgb(0, 0, 0);"><g id="shape-add6defc-a363-8029-8006-253fdca691d0" style="display: none;"><g class="fills" id="fills-add6defc-a363-8029-8006-253fdca691d0"><rect width="50" height="50" x="0" transform="matrix(1.000000, 0.000000, 0.000000, 1.000000, 0.000000, 0.000000)" style="fill: none;" ry="0" fill="none" rx="0" y="0"/></g></g><g id="shape-add6defc-a363-8029-8006-253fdca6f2fb"><g class="fills" id="fills-add6defc-a363-8029-8006-253fdca6f2fb"><path d="M32.908,20.408L28.320,25.000L32.914,29.592C33.831,30.509,33.831,31.995,32.914,32.912C31.997,33.829,30.511,33.829,29.594,32.912L25.000,28.320L20.408,32.914C19.491,33.831,18.005,33.831,17.088,32.914C16.171,31.997,16.171,30.511,17.088,29.594L21.680,25.000L17.092,20.408C16.175,19.491,16.175,18.005,17.092,17.088C18.009,16.171,19.495,16.171,20.412,17.088L25.000,21.680L29.592,17.086C30.509,16.169,31.995,16.169,32.912,17.086C33.829,18.003,33.829,19.489,32.908,20.408ZZM46.094,25.000C46.094,36.650,36.650,46.094,25.000,46.094C13.350,46.094,3.906,36.650,3.906,25.000C3.906,13.350,13.350,3.906,25.000,3.906C36.644,3.919,46.081,13.356,46.094,25.000ZZM41.406,25.000C41.406,15.939,34.061,8.594,25.000,8.594C15.939,8.594,8.594,15.939,8.594,25.000C8.594,34.061,15.939,41.406,25.000,41.406C34.057,41.397,41.397,34.057,41.406,25.000ZZ" style="fill: rgb(0, 0, 0);"/></g></g></g></g></g></g></g></g></g></g></g></g></g></g></g></svg>