<svg width="50" xmlns="http://www.w3.org/2000/svg" height="50" id="screenshot-add6defc-a363-8029-8006-2544d805b35c" viewBox="0 0 50 50" xmlns:xlink="http://www.w3.org/1999/xlink" fill="none" version="1.1"><g id="shape-add6defc-a363-8029-8006-2544d805b35c"><g class="frame-container-wrapper"><g class="frame-container-blur"><g class="frame-container-shadows"><g fill="none"><g class="fills" id="fills-add6defc-a363-8029-8006-2544d805b35c"><rect rx="0" ry="0" x="0" y="0" width="50" height="50" transform="matrix(1.000000, 0.000000, 0.000000, 1.000000, 0.000000, 0.000000)" class="frame-background"/></g><g class="frame-children"><g id="shape-add6defc-a363-8029-8006-2541283b0444"><g class="frame-container-wrapper"><g class="frame-container-blur"><g class="frame-container-shadows"><g fill="none"><g class="fills" id="fills-add6defc-a363-8029-8006-2541283b0444"><rect rx="0" ry="0" x="0" y="0" width="50" height="50" transform="matrix(1.000000, 0.000000, 0.000000, 1.000000, 0.000000, 0.000000)" class="frame-background"/></g><g class="frame-children"><g id="shape-add6defc-a363-8029-8006-2541283b0445" rx="0" ry="0" style="fill: rgb(0, 0, 0);"><g id="shape-add6defc-a363-8029-8006-2541283b0446" style="display: none;"><g class="fills" id="fills-add6defc-a363-8029-8006-2541283b0446"><rect width="50" height="50" x="0" transform="matrix(1.000000, 0.000000, 0.000000, 1.000000, 0.000000, 0.000000)" style="fill: none;" ry="0" fill="none" rx="0" y="0"/></g></g><g id="shape-add6defc-a363-8029-8006-2541283b0447"><g class="fills" id="fills-add6defc-a363-8029-8006-2541283b0447"><path d="M45.313,36.719L39.844,36.719L39.844,33.594L43.750,33.594C44.472,33.594,45.153,33.261,45.597,32.692C46.041,32.123,46.198,31.382,46.023,30.682L39.773,5.682C39.512,4.639,38.575,3.908,37.500,3.908C36.425,3.908,35.488,4.639,35.227,5.682L28.977,30.682C28.802,31.382,28.959,32.123,29.403,32.692C29.847,33.261,30.528,33.594,31.250,33.594L35.156,33.594L35.156,36.719L22.656,36.719L22.656,34.375C23.951,34.375,25.000,33.326,25.000,32.031C25.000,30.737,23.951,29.688,22.656,29.688L22.656,27.344C23.951,27.344,25.000,26.294,25.000,25.000C25.000,23.706,23.951,22.656,22.656,22.656L6.250,22.656C4.956,22.656,3.906,23.706,3.906,25.000C3.906,26.294,4.956,27.344,6.250,27.344L6.250,29.688C4.956,29.688,3.906,30.737,3.906,32.031C3.906,33.326,4.956,34.375,6.250,34.375L6.250,36.719L4.688,36.719C3.393,36.719,2.344,37.768,2.344,39.063C2.344,40.357,3.393,41.406,4.688,41.406L45.313,41.406C46.607,41.406,47.656,40.357,47.656,39.063C47.656,37.768,46.607,36.719,45.313,36.719ZZM37.500,15.914L40.748,28.906L34.252,28.906ZM10.938,27.344L17.969,27.344L17.969,29.688L10.938,29.688ZM10.938,34.375L17.969,34.375L17.969,36.719L10.938,36.719ZM22.656,19.531C26.108,19.531,28.906,16.733,28.906,13.281C28.906,9.829,26.108,7.031,22.656,7.031C19.204,7.031,16.406,9.829,16.406,13.281C16.406,16.733,19.204,19.531,22.656,19.531ZZM22.656,11.719C23.519,11.719,24.219,12.418,24.219,13.281C24.219,14.144,23.519,14.844,22.656,14.844C21.793,14.844,21.094,14.144,21.094,13.281C21.094,12.418,21.793,11.719,22.656,11.719ZZ" style="fill: rgb(0, 0, 0);"/></g></g></g></g></g></g></g></g></g></g></g></g></g></g></g></svg>