<svg width="50" xmlns="http://www.w3.org/2000/svg" height="50" id="screenshot-add6defc-a363-8029-8006-253d9bed685a" viewBox="0 0 50 50" xmlns:xlink="http://www.w3.org/1999/xlink" fill="none" version="1.1"><g id="shape-add6defc-a363-8029-8006-253d9bed685a"><g class="frame-container-wrapper"><g class="frame-container-blur"><g class="frame-container-shadows"><g fill="none"><g class="fills" id="fills-add6defc-a363-8029-8006-253d9bed685a"><rect rx="0" ry="0" x="0" y="0" width="50" height="50" transform="matrix(1.000000, 0.000000, 0.000000, 1.000000, 0.000000, 0.000000)" class="frame-background"/></g><g class="frame-children"><g id="shape-add6defc-a363-8029-8006-253d9bed6890"><g class="frame-container-wrapper"><g class="frame-container-blur"><g class="frame-container-shadows"><g fill="none"><g class="fills" id="fills-add6defc-a363-8029-8006-253d9bed6890"><rect rx="0" ry="0" x="0" y="0" width="50" height="50" transform="matrix(1.000000, 0.000000, 0.000000, 1.000000, 0.000000, 0.000000)" class="frame-background"/></g><g class="frame-children"><g id="shape-add6defc-a363-8029-8006-253d9bed6891" rx="0" ry="0" style="fill: rgb(0, 0, 0);"><g id="shape-add6defc-a363-8029-8006-253d9bed6892" style="display: none;"><g class="fills" id="fills-add6defc-a363-8029-8006-253d9bed6892"><rect width="50" height="50" x="0" transform="matrix(1.000000, 0.000000, 0.000000, 1.000000, 0.000000, 0.000000)" style="fill: none;" ry="0" fill="none" rx="0" y="0"/></g></g><g id="shape-add6defc-a363-8029-8006-253d9bed6893"><g class="fills" id="fills-add6defc-a363-8029-8006-253d9bed6893"><path d="M7.813,17.969L13.684,17.969C14.677,20.778,17.333,22.656,20.313,22.656C23.292,22.656,25.948,20.778,26.941,17.969L42.188,17.969C43.482,17.969,44.531,16.919,44.531,15.625C44.531,14.331,43.482,13.281,42.188,13.281L26.941,13.281C25.948,10.472,23.292,8.594,20.313,8.594C17.333,8.594,14.677,10.472,13.684,13.281L7.813,13.281C6.518,13.281,5.469,14.331,5.469,15.625C5.469,16.919,6.518,17.969,7.813,17.969ZZM20.313,13.281C21.607,13.281,22.656,14.331,22.656,15.625C22.656,16.919,21.607,17.969,20.313,17.969C19.018,17.969,17.969,16.919,17.969,15.625C17.969,14.331,19.018,13.281,20.313,13.281ZZM42.188,32.031L39.441,32.031C38.448,29.222,35.792,27.344,32.813,27.344C29.833,27.344,27.177,29.222,26.184,32.031L7.813,32.031C6.518,32.031,5.469,33.081,5.469,34.375C5.469,35.669,6.518,36.719,7.813,36.719L26.184,36.719C27.177,39.528,29.833,41.406,32.813,41.406C35.792,41.406,38.448,39.528,39.441,36.719L42.188,36.719C43.482,36.719,44.531,35.669,44.531,34.375C44.531,33.081,43.482,32.031,42.188,32.031ZZM32.813,36.719C31.518,36.719,30.469,35.669,30.469,34.375C30.469,33.081,31.518,32.031,32.813,32.031C34.107,32.031,35.156,33.081,35.156,34.375C35.156,35.669,34.107,36.719,32.813,36.719ZZ" style="fill: rgb(0, 0, 0);"/></g></g></g></g></g></g></g></g></g></g></g></g></g></g></g></svg>