<?xml version="1.0" encoding="UTF-8" standalone="no"?>
<svg
   width="16"
   height="12"
   viewBox="0 0 16 12"
   fill="none"
   version="1.1"
   id="svg1"
   sodipodi:docname="menu.svg"
   inkscape:version="1.3.2 (091e20e, 2023-11-25)"
   xmlns:inkscape="http://www.inkscape.org/namespaces/inkscape"
   xmlns:sodipodi="http://sodipodi.sourceforge.net/DTD/sodipodi-0.dtd"
   xmlns="http://www.w3.org/2000/svg"
   xmlns:svg="http://www.w3.org/2000/svg">
  <defs
     id="defs1" />
  <sodipodi:namedview
     id="namedview1"
     pagecolor="#ffffff"
     bordercolor="#666666"
     borderopacity="1.0"
     inkscape:showpageshadow="2"
     inkscape:pageopacity="0.0"
     inkscape:pagecheckerboard="0"
     inkscape:deskcolor="#d1d1d1"
     inkscape:zoom="12.212323"
     inkscape:cx="2.784073"
     inkscape:cy="14.943921"
     inkscape:window-width="1920"
     inkscape:window-height="1027"
     inkscape:window-x="0"
     inkscape:window-y="0"
     inkscape:window-maximized="1"
     inkscape:current-layer="svg1" />
  <path
     d="M 0,1 A 1,1 0 0 1 1,0 h 14 a 1,1 0 1 1 0,2 H 1 A 1,1 0 0 1 0,1 Z M 0,6 A 1,1 0 0 1 1,5 h 14 a 1,1 0 1 1 0,2 H 1 A 1,1 0 0 1 0,6 Z m 0,5 a 1,1 0 0 1 1,-1 h 14 a 1,1 0 1 1 0,2 H 1 A 1,1 0 0 1 0,11 Z"
     fill="#0D0D0D"
     id="path1"
     style="fill:#f2f2f2;fill-opacity:1" />
</svg>
