<svg width="50" xmlns="http://www.w3.org/2000/svg" height="50" fill="none"><g class="fills"><rect rx="0" ry="0" width="50" height="50" transform="matrix(1.000000, 0.000000, 0.000000, 1.000000, 0.000000, 0.000000)" class="frame-background"/></g><g class="frame-children"><g class="fills"><rect rx="0" ry="0" width="50" height="50" transform="matrix(1.000000, 0.000000, 0.000000, 1.000000, 0.000000, 0.000000)" class="frame-background"/></g><g class="frame-children"><path d="M44.531,31.250C44.531,32.544,43.482,33.594,42.188,33.594L7.813,33.594C6.518,33.594,5.469,32.544,5.469,31.250C5.469,29.956,6.518,28.906,7.813,28.906L42.188,28.906C43.482,28.906,44.531,29.956,44.531,31.250ZZM7.813,21.094L42.188,21.094C43.482,21.094,44.531,20.044,44.531,18.750C44.531,17.456,43.482,16.406,42.188,16.406L7.813,16.406C6.518,16.406,5.469,17.456,5.469,18.750C5.469,20.044,6.518,21.094,7.813,21.094ZZ" style="fill: rgb(0, 0, 0);" class="fills"/></g></g></svg>