<svg width="50" xmlns="http://www.w3.org/2000/svg" height="50" fill="none"><g class="fills"><rect rx="0" ry="0" width="50" height="50" transform="matrix(1.000000, 0.000000, 0.000000, 1.000000, 0.000000, 0.000000)" class="frame-background"/></g><g class="frame-children"><g class="fills"><rect rx="0" ry="0" width="50" height="50" transform="matrix(1.000000, 0.000000, 0.000000, 1.000000, 0.000000, 0.000000)" class="frame-background"/></g><g class="frame-children"><path d="M44.531,25.000C44.531,26.294,43.482,27.344,42.188,27.344L7.813,27.344C6.518,27.344,5.469,26.294,5.469,25.000C5.469,23.706,6.518,22.656,7.813,22.656L42.188,22.656C43.482,22.656,44.531,23.706,44.531,25.000ZZM7.813,14.844L42.188,14.844C43.482,14.844,44.531,13.794,44.531,12.500C44.531,11.206,43.482,10.156,42.188,10.156L7.813,10.156C6.518,10.156,5.469,11.206,5.469,12.500C5.469,13.794,6.518,14.844,7.813,14.844ZZM42.188,35.156L7.813,35.156C6.518,35.156,5.469,36.206,5.469,37.500C5.469,38.794,6.518,39.844,7.813,39.844L42.188,39.844C43.482,39.844,44.531,38.794,44.531,37.500C44.531,36.206,43.482,35.156,42.188,35.156ZZ" style="fill: rgb(0, 0, 0);" class="fills"/></g></g></svg>