<svg width="50" xmlns="http://www.w3.org/2000/svg" height="50" fill="none"><g class="fills"><rect rx="0" ry="0" width="50" height="50" transform="matrix(1.000000, 0.000000, 0.000000, 1.000000, 0.000000, 0.000000)" class="frame-background"/></g><g class="frame-children"><g class="fills"><rect rx="0" ry="0" width="50" height="50" transform="matrix(1.000000, 0.000000, 0.000000, 1.000000, 0.000000, 0.000000)" class="frame-background"/></g><g class="frame-children"><path d="M46.971,23.342L28.221,4.592C27.550,3.921,26.542,3.720,25.665,4.083C24.789,4.446,24.218,5.301,24.219,6.250L24.219,13.281L9.375,13.281C7.218,13.281,5.469,15.030,5.469,17.188L5.469,32.813C5.469,34.970,7.218,36.719,9.375,36.719L24.219,36.719L24.219,43.750C24.218,44.699,24.789,45.554,25.665,45.917C26.542,46.280,27.550,46.079,28.221,45.408L46.971,26.658C47.411,26.219,47.658,25.622,47.658,25.000C47.658,24.378,47.411,23.781,46.971,23.342ZZM28.906,38.086L28.906,34.375C28.906,33.081,27.857,32.031,26.563,32.031L10.156,32.031L10.156,17.969L26.563,17.969C27.857,17.969,28.906,16.919,28.906,15.625L28.906,11.914L41.992,25.000Z" style="fill: rgb(0, 0, 0);" class="fills"/></g></g></svg>