<svg width="50" xmlns="http://www.w3.org/2000/svg" height="50" fill="none"><g class="fills"><rect rx="0" ry="0" width="50" height="50" transform="matrix(1.000000, 0.000000, 0.000000, 1.000000, 0.000000, 0.000000)" class="frame-background"/></g><g class="frame-children"><g class="fills"><rect rx="0" ry="0" width="50" height="50" transform="matrix(1.000000, 0.000000, 0.000000, 1.000000, 0.000000, 0.000000)" class="frame-background"/></g><g class="frame-children"><path d="M44.531,25.000C44.531,26.294,43.482,27.344,42.188,27.344L25.000,27.344C23.706,27.344,22.656,26.294,22.656,25.000C22.656,23.706,23.706,22.656,25.000,22.656L42.188,22.656C43.482,22.656,44.531,23.706,44.531,25.000ZZM25.000,14.844L42.188,14.844C43.482,14.844,44.531,13.794,44.531,12.500C44.531,11.206,43.482,10.156,42.188,10.156L25.000,10.156C23.706,10.156,22.656,11.206,22.656,12.500C22.656,13.794,23.706,14.844,25.000,14.844ZZM42.188,35.156L25.000,35.156C23.706,35.156,22.656,36.206,22.656,37.500C22.656,38.794,23.706,39.844,25.000,39.844L42.188,39.844C43.482,39.844,44.531,38.794,44.531,37.500C44.531,36.206,43.482,35.156,42.188,35.156ZZM15.529,7.717L10.938,12.305L9.471,10.836C8.554,9.919,7.067,9.919,6.150,10.836C5.234,11.753,5.234,13.239,6.150,14.156L9.275,17.281C9.715,17.723,10.313,17.971,10.936,17.971C11.559,17.971,12.156,17.723,12.596,17.281L18.846,11.031C19.763,10.114,19.763,8.628,18.846,7.711C17.929,6.794,16.442,6.794,15.529,7.717ZZM15.529,20.217L10.938,24.805L9.471,23.336C8.554,22.419,7.067,22.419,6.150,23.336C5.234,24.253,5.234,25.739,6.150,26.656L9.275,29.781C9.715,30.223,10.313,30.471,10.936,30.471C11.559,30.471,12.156,30.223,12.596,29.781L18.846,23.531C19.763,22.614,19.763,21.128,18.846,20.211C17.929,19.294,16.442,19.294,15.529,20.217ZZM15.529,32.717L10.938,37.305L9.471,35.836C8.554,34.919,7.067,34.919,6.150,35.836C5.234,36.753,5.234,38.239,6.150,39.156L9.275,42.281C9.715,42.723,10.313,42.971,10.936,42.971C11.559,42.971,12.156,42.723,12.596,42.281L18.846,36.031C19.763,35.114,19.763,33.628,18.846,32.711C17.929,31.794,16.442,31.794,15.529,32.717ZZ" style="fill: rgb(0, 0, 0);" class="fills"/></g></g></svg>