<svg width="50" xmlns="http://www.w3.org/2000/svg" height="50" fill="none"><g class="fills"><rect rx="0" ry="0" width="50" height="50" transform="matrix(1.000000, 0.000000, 0.000000, 1.000000, 0.000000, 0.000000)" class="frame-background"/></g><g class="frame-children"><g class="fills"><rect rx="0" ry="0" width="50" height="50" transform="matrix(1.000000, 0.000000, 0.000000, 1.000000, 0.000000, 0.000000)" class="frame-background"/></g><g class="frame-children"><path d="M17.283,28.029C18.200,28.946,18.200,30.433,17.283,31.350C16.366,32.266,14.880,32.266,13.963,31.350L4.588,21.975C4.147,21.535,3.899,20.937,3.899,20.314C3.899,19.691,4.147,19.094,4.588,18.654L13.963,9.279C14.880,8.362,16.366,8.362,17.283,9.279C18.200,10.196,18.200,11.683,17.283,12.600L9.570,20.313ZM25.000,17.969L22.852,17.969L28.227,12.594C29.143,11.677,29.143,10.190,28.227,9.273C27.310,8.357,25.823,8.357,24.906,9.273L15.531,18.648C15.090,19.088,14.842,19.686,14.842,20.309C14.842,20.932,15.090,21.529,15.531,21.969L24.906,31.344C25.823,32.261,27.310,32.261,28.227,31.344C29.143,30.427,29.143,28.940,28.227,28.023L22.852,22.656L25.000,22.656C34.057,22.666,41.397,30.006,41.406,39.063C41.406,40.357,42.456,41.406,43.750,41.406C45.044,41.406,46.094,40.357,46.094,39.063C46.081,27.418,36.644,17.982,25.000,17.969ZZ" style="fill: rgb(0, 0, 0);" class="fills"/></g></g></svg>