<svg width="50" xmlns="http://www.w3.org/2000/svg" height="50" fill="none"><g class="fills"><rect rx="0" ry="0" width="50" height="50" transform="matrix(1.000000, 0.000000, 0.000000, 1.000000, 0.000000, 0.000000)" class="frame-background"/></g><g class="frame-children"><g class="fills"><rect rx="0" ry="0" width="50" height="50" transform="matrix(1.000000, 0.000000, 0.000000, 1.000000, 0.000000, 0.000000)" class="frame-background"/></g><g class="frame-children"><path d="M45.408,15.721L20.408,40.721C19.968,41.162,19.371,41.410,18.748,41.410C18.125,41.410,17.528,41.162,17.088,40.721L6.150,29.783C5.234,28.866,5.234,27.380,6.150,26.463C7.067,25.546,8.554,25.546,9.471,26.463L18.750,35.742L42.092,12.404C43.009,11.487,44.495,11.487,45.412,12.404C46.329,13.321,46.329,14.808,45.408,15.721ZZ" style="fill: rgb(0, 0, 0);" class="fills"/></g></g></svg>