<svg width="50" xmlns="http://www.w3.org/2000/svg" height="50" fill="none"><defs><clipPath id="a" class="frame-clip frame-clip-def"><rect rx="0" ry="0" width="50" height="50" transform="matrix(1.000000, 0.000000, 0.000000, 1.000000, 0.000000, 0.000000)"/></clipPath></defs><g clip-path="url(#a)"><g class="fills"><rect rx="0" ry="0" width="50" height="50" transform="matrix(1.000000, 0.000000, 0.000000, 1.000000, 0.000000, 0.000000)" class="frame-background"/></g><g class="frame-children"><g class="fills"><rect rx="0" ry="0" x="7" y="7" width="36" height="36" transform="matrix(1.000000, 0.000000, 0.000000, 1.000000, 0.000000, 0.000000)" class="frame-background"/></g><g class="frame-children"><path d="M37.375,13.750L32.313,13.750L32.313,12.063C32.313,9.888,30.550,8.125,28.375,8.125L21.625,8.125C19.450,8.125,17.688,9.888,17.688,12.063L17.688,13.750L12.625,13.750C11.693,13.750,10.938,14.506,10.938,15.438C10.938,16.369,11.693,17.125,12.625,17.125L13.188,17.125L13.188,36.250C13.188,37.803,14.447,39.063,16.000,39.063L34.000,39.063C35.553,39.063,36.813,37.803,36.813,36.250L36.813,17.125L37.375,17.125C38.307,17.125,39.063,16.369,39.063,15.438C39.063,14.506,38.307,13.750,37.375,13.750ZZM21.063,12.063C21.063,11.752,21.314,11.500,21.625,11.500L28.375,11.500C28.686,11.500,28.938,11.752,28.938,12.063L28.938,13.750L21.063,13.750ZM33.438,35.688L16.563,35.688L16.563,17.125L33.438,17.125ZM23.313,21.625L23.313,30.625C23.313,31.557,22.557,32.313,21.625,32.313C20.693,32.313,19.938,31.557,19.938,30.625L19.938,21.625C19.938,20.693,20.693,19.938,21.625,19.938C22.557,19.938,23.313,20.693,23.313,21.625ZZM30.063,21.625L30.063,30.625C30.063,31.557,29.307,32.313,28.375,32.313C27.443,32.313,26.688,31.557,26.688,30.625L26.688,21.625C26.688,20.693,27.443,19.938,28.375,19.938C29.307,19.938,30.063,20.693,30.063,21.625ZZ" style="fill: rgb(0, 0, 0);" class="fills"/></g></g></g></svg>