<svg width="50" xmlns="http://www.w3.org/2000/svg" height="50" fill="none"><defs><clipPath id="a" class="frame-clip frame-clip-def"><rect rx="0" ry="0" width="50" height="50"/></clipPath></defs><g clip-path="url(#a)"><g class="fills"><rect rx="0" ry="0" width="50" height="50" class="frame-background"/></g><g class="frame-children"><g class="fills"><rect rx="0" ry="0" x="3" y="15" width="20" height="20" class="frame-background"/></g><g class="frame-children"><path d="M10.5 27.5h-5a2.5 2.5 0 0 1 0-5h5v-5a2.5 2.5 0 0 1 5 0v5h5a2.5 2.5 0 0 1 0 5h-5v5a2.5 2.5 0 0 1-5 0v-5Z" style="fill: rgb(204, 204, 204); fill-opacity: 1;" class="fills"/><g class="strokes"><path d="M10.5 27.5h-5a2.5 2.5 0 0 1 0-5h5v-5a2.5 2.5 0 0 1 5 0v5h5a2.5 2.5 0 0 1 0 5h-5v5a2.5 2.5 0 0 1-5 0v-5Z" style="fill: none; stroke-width: 2; stroke: rgb(0, 0, 0); stroke-opacity: 1;" class="stroke-shape"/></g></g><g class="fills"><rect rx="0" ry="0" x="27" y="17.5" width="20" height="15" class="frame-background"/></g><g class="frame-children"><path d="M27 30a2.5 2.5 0 0 1 2.5-2.5h15a2.5 2.5 0 0 1 0 5h-15A2.5 2.5 0 0 1 27 30Z" style="fill: rgb(204, 204, 204); fill-opacity: 1;" class="fills"/><g class="strokes"><path d="M27 30a2.5 2.5 0 0 1 2.5-2.5h15a2.5 2.5 0 0 1 0 5h-15A2.5 2.5 0 0 1 27 30Z" style="fill: none; stroke-width: 2; stroke: rgb(0, 0, 0); stroke-opacity: 1;" class="stroke-shape"/></g><path d="M27 20a2.5 2.5 0 0 1 2.5-2.5h15a2.5 2.5 0 0 1 0 5h-15A2.5 2.5 0 0 1 27 20Z" style="fill: rgb(204, 204, 204); fill-opacity: 1;" class="fills"/><g class="strokes"><path d="M27 20a2.5 2.5 0 0 1 2.5-2.5h15a2.5 2.5 0 0 1 0 5h-15A2.5 2.5 0 0 1 27 20Z" style="fill: none; stroke-width: 2; stroke: rgb(0, 0, 0); stroke-opacity: 1;" class="stroke-shape"/></g></g></g></g></svg>