<svg width="50" xmlns="http://www.w3.org/2000/svg" height="50" fill="none"><defs><clipPath id="a" class="frame-clip frame-clip-def"><rect rx="0" ry="0" width="50" height="50"/></clipPath></defs><g clip-path="url(#a)"><g class="fills"><rect rx="0" ry="0" width="50" height="50" class="frame-background"/></g><g class="frame-children"><g class="fills"><rect rx="0" ry="0" x="-150" y="-55" width="350" height="160" class="frame-background"/></g><g class="frame-children"><rect rx="0" ry="0" x="-143" y="-51" width="336" height="152" style="fill: rgb(204, 204, 204); fill-opacity: 1;" class="fills"/><g class="strokes"><rect rx="0" ry="0" x="-143" y="-51" width="336" height="152" style="fill: none; stroke-width: 3; stroke: rgb(0, 0, 0); stroke-opacity: 1;" class="stroke-shape"/></g><g class="fills"><rect rx="0" ry="0" x="14" y="17" width="22" height="16" class="frame-background"/></g><g class="frame-children"><g class="fills"><rect rx="0" ry="0" x="25.717" y="17" width="10.283" height="16" class="frame-background"/></g><g class="frame-children"><path d="M36 24.989c0 1.684-.178 3.12-.533 4.31-.342 1.19-.889 2.105-1.643 2.743-.754.639-1.749.958-2.987.958-1.749 0-3.043-.704-3.882-2.112-.825-1.422-1.238-3.388-1.238-5.899 0-1.669.164-3.098.491-4.288.341-1.205.889-2.119 1.643-2.743.753-.639 1.749-.958 2.986-.958 1.735 0 3.03.704 3.883 2.112.853 1.393 1.28 3.352 1.28 5.877Zm-8.021 0c0 2.032.213 3.556.64 4.572.426 1.001 1.166 1.502 2.218 1.502 1.039 0 1.778-.501 2.219-1.502.441-1.002.661-2.526.661-4.572 0-2.017-.22-3.526-.661-4.528-.441-1.016-1.18-1.524-2.219-1.524-1.052 0-1.792.508-2.218 1.524-.427 1.002-.64 2.511-.64 4.528Z" style="display: inline; font-weight: 500; font-size: 5.64444px; line-height: 1.25; font-family: &quot;Noto Sans&quot;; stroke-width: 0.264583; fill: rgb(0, 0, 0); fill-opacity: 1;" class="fills"/></g><g class="fills"><rect rx="0" ry="0" x="14" y="17.277" width="9.792" height="15.445" class="frame-background"/></g><g class="frame-children"><path d="M18.757 23.059c1.508 0 2.724.391 3.648 1.173.925.782 1.387 1.899 1.387 3.349 0 1.593-.505 2.852-1.515 3.776-1.009.911-2.439 1.366-4.288 1.366a11.14 11.14 0 0 1-2.24-.214c-.682-.142-1.265-.348-1.749-.618v-2.07c.512.299 1.131.541 1.856.726.74.185 1.444.277 2.112.277 1.067 0 1.92-.242 2.56-.725.64-.498.96-1.266.96-2.304 0-.925-.292-1.629-.875-2.112-.569-.498-1.472-.747-2.709-.747-.412 0-.86.036-1.344.107-.484.071-.875.142-1.173.213l-1.046-.619.576-7.36h7.83v2.006H16.88l-.341 3.989c.241-.043.547-.085.917-.128.37-.057.804-.085 1.301-.085Z" style="display: inline; font-weight: 500; font-size: 5.64444px; line-height: 1.25; font-family: &quot;Noto Sans&quot;; stroke-width: 0.264583; fill: rgb(0, 0, 0); fill-opacity: 1;" class="fills"/></g></g></g></g></g></svg>