<svg width="50" xmlns="http://www.w3.org/2000/svg" height="50" id="screenshot-c079da11-ea97-8013-8006-2a6d424af8a7" viewBox="0 0 50 50" xmlns:xlink="http://www.w3.org/1999/xlink" fill="none" version="1.1"><g id="shape-c079da11-ea97-8013-8006-2a6d424af8a7"><g class="frame-container-wrapper"><g class="frame-container-blur"><g class="frame-container-shadows"><g fill="none"><g class="fills" id="fills-c079da11-ea97-8013-8006-2a6d424af8a7"><rect rx="0" ry="0" x="0" y="0" width="50" height="50" transform="matrix(1.000000, 0.000000, 0.000000, 1.000000, 0.000000, 0.000000)" class="frame-background"/></g><g class="frame-children"><g id="shape-c079da11-ea97-8013-8006-2a6d424af8a8"><g class="frame-container-wrapper"><g class="frame-container-blur"><g class="frame-container-shadows"><g fill="none"><g class="fills" id="fills-c079da11-ea97-8013-8006-2a6d424af8a8"><rect rx="0" ry="0" x="3" y="13" width="44" height="24" transform="matrix(1.000000, 0.000000, 0.000000, 1.000000, 0.000000, 0.000000)" class="frame-background"/></g><g class="frame-children"><g id="shape-c079da11-ea97-8013-8006-2a6d424af8a9"><g class="fills" id="fills-c079da11-ea97-8013-8006-2a6d424af8a9"><rect rx="0" ry="0" x="3" y="13" transform="matrix(1.000000, 0.000000, 0.000000, 1.000000, 0.000000, 0.000000)" width="44" height="24" style="fill: rgb(204, 204, 204); fill-opacity: 1;"/></g><g id="strokes-18cb738f-1f02-80ab-8006-2a6e91d41fb4-c079da11-ea97-8013-8006-2a6d424af8a9" class="strokes"><g class="stroke-shape"><rect rx="0" ry="0" x="3" y="13" transform="matrix(1.000000, 0.000000, 0.000000, 1.000000, 0.000000, 0.000000)" width="44" height="24" style="fill: none; stroke-width: 3; stroke: rgb(0, 0, 0); stroke-opacity: 1;"/></g></g></g></g></g></g></g></g></g><g id="shape-c079da11-ea97-8013-8006-2a6db578f679"><g class="frame-container-wrapper"><g class="frame-container-blur"><g class="frame-container-shadows"><g fill="none"><g class="fills" id="fills-c079da11-ea97-8013-8006-2a6db578f679"><rect rx="0" ry="0" x="20.103970176357052" y="17.277270460764612" width="9.792059647285896" height="15.445459078470776" transform="matrix(1.000000, 0.000000, 0.000000, 1.000000, 0.000000, 0.000000)" class="frame-background"/></g><g class="frame-children"><g id="shape-c079da11-ea97-8013-8006-2a6db578f67a"><g class="fills" id="fills-c079da11-ea97-8013-8006-2a6db578f67a"><path d="M24.861,23.059C26.369,23.059,27.585,23.450,28.509,24.232C29.434,25.014,29.896,26.131,29.896,27.581C29.896,29.174,29.391,30.433,28.381,31.357C27.372,32.268,25.942,32.723,24.093,32.723C23.297,32.723,22.550,32.652,21.853,32.509C21.171,32.367,20.588,32.161,20.104,31.891L20.104,29.821C20.616,30.120,21.235,30.362,21.960,30.547C22.700,30.732,23.404,30.824,24.072,30.824C25.139,30.824,25.992,30.582,26.632,30.099C27.272,29.601,27.592,28.833,27.592,27.795C27.592,26.870,27.300,26.166,26.717,25.683C26.148,25.185,25.245,24.936,24.008,24.936C23.596,24.936,23.148,24.972,22.664,25.043C22.180,25.114,21.789,25.185,21.491,25.256L20.445,24.637L21.021,17.277L28.851,17.277L28.851,19.283L22.984,19.283L22.643,23.272C22.884,23.229,23.190,23.187,23.560,23.144C23.930,23.087,24.364,23.059,24.861,23.059ZZ" style="display: inline; font-weight: 500; font-size: 5.64444px; line-height: 1.25; font-family: &quot;Noto Sans&quot;; stroke-width: 0.264583; fill: rgb(0, 0, 0); fill-opacity: 1;"/></g></g></g></g></g></g></g></g></g></g></g></g></g></g></svg>