<svg width="50" xmlns="http://www.w3.org/2000/svg" height="50" id="screenshot-c079da11-ea97-8013-8006-2a6d3f6218e4" viewBox="0 0 50 50" xmlns:xlink="http://www.w3.org/1999/xlink" fill="none" version="1.1"><g id="shape-c079da11-ea97-8013-8006-2a6d3f6218e4"><g class="frame-container-wrapper"><g class="frame-container-blur"><g class="frame-container-shadows"><g fill="none"><g class="fills" id="fills-c079da11-ea97-8013-8006-2a6d3f6218e4"><rect rx="0" ry="0" x="0" y="0" width="50" height="50" transform="matrix(1.000000, 0.000000, 0.000000, 1.000000, 0.000000, 0.000000)" class="frame-background"/></g><g class="frame-children"><g id="shape-c079da11-ea97-8013-8006-2a6d3f6218e5"><g class="frame-container-wrapper"><g class="frame-container-blur"><g class="frame-container-shadows"><g fill="none"><g class="fills" id="fills-c079da11-ea97-8013-8006-2a6d3f6218e5"><rect rx="0" ry="0" x="3" y="13" width="44" height="24" transform="matrix(1.000000, 0.000000, 0.000000, 1.000000, 0.000000, 0.000000)" class="frame-background"/></g><g class="frame-children"><g id="shape-c079da11-ea97-8013-8006-2a6d3f6218e6"><g class="fills" id="fills-c079da11-ea97-8013-8006-2a6d3f6218e6"><rect rx="0" ry="0" x="3" y="13" transform="matrix(1.000000, 0.000000, 0.000000, 1.000000, 0.000000, 0.000000)" width="44" height="24" style="fill: rgb(204, 204, 204); fill-opacity: 1;"/></g><g id="strokes-18cb738f-1f02-80ab-8006-2a6e91c52661-c079da11-ea97-8013-8006-2a6d3f6218e6" class="strokes"><g class="stroke-shape"><rect rx="0" ry="0" x="3" y="13" transform="matrix(1.000000, 0.000000, 0.000000, 1.000000, 0.000000, 0.000000)" width="44" height="24" style="fill: none; stroke-width: 3; stroke: rgb(0, 0, 0); stroke-opacity: 1;"/></g></g></g></g></g></g></g></g></g><g id="shape-c079da11-ea97-8013-8006-2a6daa302aa0"><g class="frame-container-wrapper"><g class="frame-container-blur"><g class="frame-container-shadows"><g fill="none"><g class="fills" id="fills-c079da11-ea97-8013-8006-2a6daa302aa0"><rect rx="0" ry="0" x="19.314631215539748" y="17.351954437913946" width="11.370737568920504" height="15.296091124172108" transform="matrix(1.000000, 0.000000, 0.000000, 1.000000, 0.000000, 0.000000)" class="frame-background"/></g><g class="frame-children"><g id="shape-c079da11-ea97-8013-8006-2a6daa304439"><g class="fills" id="fills-c079da11-ea97-8013-8006-2a6daa304439"><path d="M30.685,29.277L28.573,29.277L28.573,32.648L26.376,32.648L26.376,29.277L19.315,29.277L19.315,27.485L26.333,17.352L28.573,17.352L28.573,27.357L30.685,27.357ZM26.376,23.219C26.376,22.550,26.390,21.924,26.419,21.341C26.447,20.744,26.468,20.246,26.483,19.848L26.397,19.848C26.284,20.132,26.141,20.424,25.971,20.723C25.814,21.021,25.651,21.284,25.480,21.512L21.448,27.357L26.376,27.357Z" style="display: inline; font-weight: 500; font-size: 5.64444px; line-height: 1.25; font-family: &quot;Noto Sans&quot;; stroke-width: 0.264583; fill: rgb(0, 0, 0); fill-opacity: 1;"/></g></g></g></g></g></g></g></g></g></g></g></g></g></g></svg>