<svg width="50" xmlns="http://www.w3.org/2000/svg" height="50" id="screenshot-15768c80-d9e4-805b-8005-5e500b2c9e72" viewBox="0 0 50 50" xmlns:xlink="http://www.w3.org/1999/xlink" fill="none" version="1.1"><g id="shape-15768c80-d9e4-805b-8005-5e500b2c9e72"><defs><clipPath id="frame-clip-15768c80-d9e4-805b-8005-5e500b2c9e72-render-31" class="frame-clip frame-clip-def"><rect rx="0" ry="0" x="0" y="0" width="50" height="50" transform="matrix(1.000000, 0.000000, 0.000000, 1.000000, 0.000000, 0.000000)"/></clipPath></defs><g class="frame-container-wrapper"><g class="frame-container-blur"><g class="frame-container-shadows"><g clip-path="url(#frame-clip-15768c80-d9e4-805b-8005-5e500b2c9e72-render-31)" fill="none"><g class="fills" id="fills-15768c80-d9e4-805b-8005-5e500b2c9e72"><rect rx="0" ry="0" x="0" y="0" width="50" height="50" transform="matrix(1.000000, 0.000000, 0.000000, 1.000000, 0.000000, 0.000000)" class="frame-background"/></g><g class="frame-children"><g id="shape-c079da11-ea97-8013-8006-2a6e18fba4bb"><g class="frame-container-wrapper"><g class="frame-container-blur"><g class="frame-container-shadows"><g fill="none"><g class="fills" id="fills-c079da11-ea97-8013-8006-2a6e18fba4bb"><rect rx="0" ry="0" x="3" y="3" width="44" height="44" transform="matrix(1.000000, 0.000000, 0.000000, 1.000000, 0.000000, 0.000000)" class="frame-background"/></g><g class="frame-children"><g id="shape-c079da11-ea97-8013-8006-2a6e18fba4bc"><g class="fills" id="fills-c079da11-ea97-8013-8006-2a6e18fba4bc"><rect rx="0" ry="0" x="3" y="3" transform="matrix(1.000000, 0.000000, 0.000000, 1.000000, 0.000000, 0.000000)" width="44" height="44" style="fill: rgb(204, 204, 204); fill-opacity: 1;"/></g><g id="strokes-18cb738f-1f02-80ab-8006-2a6e91cdfed4-c079da11-ea97-8013-8006-2a6e18fba4bc" class="strokes"><g class="stroke-shape"><rect rx="0" ry="0" x="3" y="3" transform="matrix(1.000000, 0.000000, 0.000000, 1.000000, 0.000000, 0.000000)" width="44" height="44" style="fill: none; stroke-width: 3; stroke: rgb(0, 0, 0); stroke-opacity: 1;"/></g></g></g></g></g></g></g></g></g><g id="shape-15768c80-d9e4-805b-8005-5e504f291632"><g class="frame-container-wrapper"><g class="frame-container-blur"><g class="frame-container-shadows"><g fill="none"><g class="fills" id="fills-15768c80-d9e4-805b-8005-5e504f291632"><rect rx="0" ry="0" x="14.000000000000114" y="17" width="22" height="16" transform="matrix(1.000000, 0.000000, 0.000000, 1.000000, 0.000000, 0.000000)" class="frame-background"/></g><g class="frame-children"><g id="shape-15768c80-d9e4-805b-8005-5e504f291633"><g class="frame-container-wrapper"><g class="frame-container-blur"><g class="frame-container-shadows"><g fill="none"><g class="fills" id="fills-15768c80-d9e4-805b-8005-5e504f291633"><rect rx="0" ry="0" x="25.717271158307653" y="17" width="10.28272884169246" height="16" transform="matrix(1.000000, 0.000000, 0.000000, 1.000000, 0.000000, 0.000000)" class="frame-background"/></g><g class="frame-children"><g id="shape-15768c80-d9e4-805b-8005-5e504f291634"><g class="fills" id="fills-15768c80-d9e4-805b-8005-5e504f291634"><path d="M36.000,24.989C36.000,26.673,35.822,28.109,35.467,29.299C35.125,30.489,34.578,31.404,33.824,32.042C33.070,32.681,32.075,33.000,30.837,33.000C29.088,33.000,27.794,32.296,26.955,30.888C26.130,29.466,25.717,27.500,25.717,24.989C25.717,23.320,25.881,21.891,26.208,20.701C26.549,19.496,27.097,18.582,27.851,17.958C28.604,17.319,29.600,17.000,30.837,17.000C32.572,17.000,33.867,17.704,34.720,19.112C35.573,20.505,36.000,22.464,36.000,24.989ZL36.000,24.989ZM27.979,24.989C27.979,27.021,28.192,28.545,28.619,29.561C29.045,30.562,29.785,31.063,30.837,31.063C31.876,31.063,32.615,30.562,33.056,29.561C33.497,28.559,33.717,27.035,33.717,24.989C33.717,22.972,33.497,21.463,33.056,20.461C32.615,19.445,31.876,18.937,30.837,18.937C29.785,18.937,29.045,19.445,28.619,20.461C28.192,21.463,27.979,22.972,27.979,24.989ZL27.979,24.989Z" style="display: inline; font-weight: 500; font-size: 5.64444px; line-height: 1.25; font-family: &quot;Noto Sans&quot;; stroke-width: 0.264583; fill: rgb(0, 0, 0); fill-opacity: 1;"/></g></g></g></g></g></g></g></g><g id="shape-15768c80-d9e4-805b-8005-5e504f291635"><g class="frame-container-wrapper"><g class="frame-container-blur"><g class="frame-container-shadows"><g fill="none"><g class="fills" id="fills-15768c80-d9e4-805b-8005-5e504f291635"><rect rx="0" ry="0" x="14.000000000000114" y="17.17061146101014" width="10.176062282830117" height="15.658777077979721" transform="matrix(1.000000, 0.000000, 0.000000, 1.000000, 0.000000, 0.000000)" class="frame-background"/></g><g class="frame-children"><g id="shape-15768c80-d9e4-805b-8005-5e504f291636"><g class="fills" id="fills-15768c80-d9e4-805b-8005-5e504f291636"><path d="M23.707,20.904C23.707,21.942,23.408,22.767,22.811,23.379C22.228,23.990,21.467,24.396,20.528,24.595L20.528,24.680C21.737,24.822,22.647,25.206,23.259,25.832C23.870,26.444,24.176,27.254,24.176,28.264C24.176,29.146,23.963,29.935,23.536,30.632C23.124,31.315,22.476,31.855,21.595,32.253C20.727,32.637,19.611,32.829,18.245,32.829C17.435,32.829,16.681,32.765,15.984,32.637C15.287,32.509,14.626,32.296,14.000,31.997L14.000,29.949C14.640,30.276,15.323,30.525,16.048,30.696C16.788,30.867,17.492,30.952,18.160,30.952C19.454,30.952,20.386,30.710,20.955,30.227C21.524,29.729,21.808,29.039,21.808,28.157C21.808,27.304,21.467,26.678,20.784,26.280C20.101,25.882,19.077,25.683,17.712,25.683L16.325,25.683L16.325,23.827L17.733,23.827C19.028,23.827,19.966,23.585,20.549,23.101C21.132,22.618,21.424,21.985,21.424,21.203C21.424,20.520,21.196,19.994,20.741,19.624C20.300,19.240,19.660,19.048,18.821,19.048C18.039,19.048,17.356,19.169,16.773,19.411C16.204,19.652,15.671,19.944,15.173,20.285L14.064,18.728C14.619,18.301,15.294,17.939,16.091,17.640C16.901,17.327,17.833,17.171,18.885,17.171C20.464,17.171,21.659,17.519,22.469,18.216C23.294,18.899,23.707,19.795,23.707,20.904ZZ" style="display: inline; font-weight: 500; font-size: 5.64444px; line-height: 1.25; font-family: &quot;Noto Sans&quot;; stroke-width: 0.264583; fill: rgb(0, 0, 0); fill-opacity: 1;"/></g></g></g></g></g></g></g></g></g></g></g></g></g></g></g></g></g></g></g></g></svg>