<svg width="50" xmlns="http://www.w3.org/2000/svg" height="50" id="screenshot-c079da11-ea97-8013-8006-2a6d38c31d83" viewBox="0 0 50 50" xmlns:xlink="http://www.w3.org/1999/xlink" fill="none" version="1.1"><g id="shape-c079da11-ea97-8013-8006-2a6d38c31d83"><g class="frame-container-wrapper"><g class="frame-container-blur"><g class="frame-container-shadows"><g fill="none"><g class="fills" id="fills-c079da11-ea97-8013-8006-2a6d38c31d83"><rect rx="0" ry="0" x="0" y="0" width="50" height="50" transform="matrix(1.000000, 0.000000, 0.000000, 1.000000, 0.000000, 0.000000)" class="frame-background"/></g><g class="frame-children"><g id="shape-c079da11-ea97-8013-8006-2a6d38c31d84"><g class="frame-container-wrapper"><g class="frame-container-blur"><g class="frame-container-shadows"><g fill="none"><g class="fills" id="fills-c079da11-ea97-8013-8006-2a6d38c31d84"><rect rx="0" ry="0" x="3" y="13" width="44" height="24" transform="matrix(1.000000, 0.000000, 0.000000, 1.000000, 0.000000, 0.000000)" class="frame-background"/></g><g class="frame-children"><g id="shape-c079da11-ea97-8013-8006-2a6d38c31d85"><g class="fills" id="fills-c079da11-ea97-8013-8006-2a6d38c31d85"><rect rx="0" ry="0" x="3" y="13" transform="matrix(1.000000, 0.000000, 0.000000, 1.000000, 0.000000, 0.000000)" width="44" height="24" style="fill: rgb(204, 204, 204); fill-opacity: 1;"/></g><g id="strokes-18cb738f-1f02-80ab-8006-2a6e91c76400-c079da11-ea97-8013-8006-2a6d38c31d85" class="strokes"><g class="stroke-shape"><rect rx="0" ry="0" x="3" y="13" transform="matrix(1.000000, 0.000000, 0.000000, 1.000000, 0.000000, 0.000000)" width="44" height="24" style="fill: none; stroke-width: 3; stroke: rgb(0, 0, 0); stroke-opacity: 1;"/></g></g></g></g></g></g></g></g></g><g id="shape-c079da11-ea97-8013-8006-2a6d77f72d47"><g class="frame-container-wrapper"><g class="frame-container-blur"><g class="frame-container-shadows"><g fill="none"><g class="fills" id="fills-c079da11-ea97-8013-8006-2a6d77f72d47"><rect rx="0" ry="0" x="20" y="17" width="10.176062282830117" height="15.658777077979721" transform="matrix(1.000000, 0.000000, 0.000000, 1.000000, 0.000000, 0.000000)" class="frame-background"/></g><g class="frame-children"><g id="shape-c079da11-ea97-8013-8006-2a6d77f76b4b"><g class="fills" id="fills-c079da11-ea97-8013-8006-2a6d77f76b4b"><path d="M29.707,20.733C29.707,21.772,29.408,22.596,28.811,23.208C28.228,23.820,27.467,24.225,26.528,24.424L26.528,24.509C27.737,24.652,28.647,25.036,29.259,25.661C29.870,26.273,30.176,27.084,30.176,28.093C30.176,28.975,29.963,29.765,29.536,30.461C29.124,31.144,28.476,31.685,27.595,32.083C26.727,32.467,25.611,32.659,24.245,32.659C23.435,32.659,22.681,32.595,21.984,32.467C21.287,32.339,20.626,32.125,20.000,31.827L20.000,29.779C20.640,30.106,21.323,30.355,22.048,30.525C22.788,30.696,23.492,30.781,24.160,30.781C25.454,30.781,26.386,30.540,26.955,30.056C27.524,29.558,27.808,28.869,27.808,27.987C27.808,27.133,27.467,26.508,26.784,26.109C26.101,25.711,25.077,25.512,23.712,25.512L22.325,25.512L22.325,23.656L23.733,23.656C25.028,23.656,25.966,23.414,26.549,22.931C27.132,22.447,27.424,21.814,27.424,21.032C27.424,20.349,27.196,19.823,26.741,19.453C26.300,19.069,25.660,18.877,24.821,18.877C24.039,18.877,23.356,18.998,22.773,19.240C22.204,19.482,21.671,19.773,21.173,20.115L20.064,18.557C20.619,18.131,21.294,17.768,22.091,17.469C22.901,17.156,23.833,17.000,24.885,17.000C26.464,17.000,27.659,17.348,28.469,18.045C29.294,18.728,29.707,19.624,29.707,20.733ZZ" style="display: inline; font-weight: 500; font-size: 5.64444px; line-height: 1.25; font-family: &quot;Noto Sans&quot;; stroke-width: 0.264583; fill: rgb(0, 0, 0); fill-opacity: 1;"/></g></g></g></g></g></g></g></g></g></g></g></g></g></g></svg>