<svg width="50" xmlns="http://www.w3.org/2000/svg" height="50" id="screenshot-e89fb189-5781-80b0-8006-14fc349c9a91" viewBox="0 0 50 50" xmlns:xlink="http://www.w3.org/1999/xlink" fill="none" version="1.1"><g id="shape-e89fb189-5781-80b0-8006-14fc349c9a91"><g class="frame-container-wrapper"><g class="frame-container-blur"><g class="frame-container-shadows"><g fill="none"><g class="fills" id="fills-e89fb189-5781-80b0-8006-14fc349c9a91"><rect rx="0" ry="0" x="0" y="0" width="50" height="50" transform="matrix(1.000000, 0.000000, 0.000000, 1.000000, 0.000000, 0.000000)" class="frame-background"/></g><g class="frame-children"><g id="shape-e89fb189-5781-80b0-8006-14fc2cd340c1"><g class="frame-container-wrapper"><g class="frame-container-blur"><g class="frame-container-shadows"><g fill="none"><g class="fills" id="fills-e89fb189-5781-80b0-8006-14fc2cd340c1"><rect rx="0" ry="0" x="0" y="0" width="50" height="50" transform="matrix(1.000000, 0.000000, 0.000000, 1.000000, 0.000000, 0.000000)" class="frame-background"/></g><g class="frame-children"><g id="shape-e89fb189-5781-80b0-8006-14fc2cd340c2" rx="0" ry="0" style="fill: rgb(0, 0, 0);"><g id="shape-e89fb189-5781-80b0-8006-14fc2cd340c3" style="display: none;"><g class="fills" id="fills-e89fb189-5781-80b0-8006-14fc2cd340c3"><rect width="50" height="50" x="0" transform="matrix(1.000000, 0.000000, 0.000000, 1.000000, 0.000000, 0.000000)" style="fill: none;" ry="0" fill="none" rx="0" y="0"/></g></g><g id="shape-e89fb189-5781-80b0-8006-14fc2cd340c4"><g class="fills" id="fills-e89fb189-5781-80b0-8006-14fc2cd340c4"><path d="M36.449,11.924C33.762,7.701,29.809,5.479,25.000,5.479C20.191,5.479,16.238,7.701,13.551,11.924C11.361,15.363,10.156,20.008,10.156,25.000C10.156,29.992,11.361,34.635,13.551,38.074C16.238,42.299,20.197,44.531,25.000,44.531C29.803,44.531,33.762,42.299,36.449,38.074C38.639,34.635,39.844,29.992,39.844,25.000C39.844,20.008,38.639,15.363,36.449,11.924ZZM32.494,35.557C30.686,38.402,28.164,39.844,25.000,39.844C21.836,39.844,19.314,38.402,17.506,35.559C15.789,32.861,14.844,29.111,14.844,25.000C14.844,20.889,15.789,17.139,17.506,14.441C19.314,11.598,21.836,10.156,25.000,10.156C28.164,10.156,30.686,11.598,32.494,14.441C34.211,17.139,35.156,20.898,35.156,25.000C35.156,29.102,34.211,32.861,32.494,35.557ZZ" style="fill: rgb(0, 0, 0);"/></g></g></g></g></g></g></g></g></g></g></g></g></g></g></g></svg>