<svg width="50" xmlns="http://www.w3.org/2000/svg" height="50" id="screenshot-8ebc30a7-37ae-8042-8006-14b74822fab4" viewBox="0 0 50 50" xmlns:xlink="http://www.w3.org/1999/xlink" fill="none" version="1.1"><g id="shape-8ebc30a7-37ae-8042-8006-14b74822fab4"><g class="frame-container-wrapper"><g class="frame-container-blur"><g class="frame-container-shadows"><g fill="none"><g class="fills" id="fills-8ebc30a7-37ae-8042-8006-14b74822fab4"><rect rx="0" ry="0" x="0" y="0" width="50" height="50" transform="matrix(1.000000, 0.000000, 0.000000, 1.000000, 0.000000, 0.000000)" class="frame-background"/></g><g class="frame-children"><g id="shape-8ebc30a7-37ae-8042-8006-14b6b49185cb"><g class="frame-container-wrapper"><g class="frame-container-blur"><g class="frame-container-shadows"><g fill="none"><g class="fills" id="fills-8ebc30a7-37ae-8042-8006-14b6b49185cb"><rect rx="0" ry="0" x="0" y="0" width="50" height="50" transform="matrix(1.000000, 0.000000, 0.000000, 1.000000, 0.000000, 0.000000)" class="frame-background"/></g><g class="frame-children"><g id="shape-8ebc30a7-37ae-8042-8006-14b6b49185cc" rx="0" ry="0" style="fill: rgb(0, 0, 0);"><g id="shape-8ebc30a7-37ae-8042-8006-14b6b49185cd" style="display: none;"><g class="fills" id="fills-8ebc30a7-37ae-8042-8006-14b6b49185cd"><rect width="50" height="50" x="0" transform="matrix(1.000000, 0.000000, 0.000000, 1.000000, 0.000000, 0.000000)" style="fill: none;" ry="0" fill="none" rx="0" y="0"/></g></g><g id="shape-8ebc30a7-37ae-8042-8006-14b6b491dedc"><g class="fills" id="fills-8ebc30a7-37ae-8042-8006-14b6b491dedc"><path d="M28.906,9.375L28.906,40.625C28.906,41.919,27.857,42.969,26.563,42.969C25.268,42.969,24.219,41.919,24.219,40.625L24.219,13.514L19.955,16.072C18.847,16.710,17.433,16.342,16.776,15.246C16.119,14.150,16.461,12.730,17.545,12.053L25.357,7.365C26.081,6.931,26.983,6.920,27.717,7.336C28.452,7.752,28.906,8.531,28.906,9.375ZZ" style="fill: rgb(0, 0, 0);"/></g></g></g></g></g></g></g></g></g></g></g></g></g></g></g></svg>