<svg width="50" xmlns="http://www.w3.org/2000/svg" height="50" id="screenshot-8ebc30a7-37ae-8042-8006-14b761e37bef" viewBox="0 0 50 50" xmlns:xlink="http://www.w3.org/1999/xlink" fill="none" version="1.1"><g id="shape-8ebc30a7-37ae-8042-8006-14b761e37bef"><g class="frame-container-wrapper"><g class="frame-container-blur"><g class="frame-container-shadows"><g fill="none"><g class="fills" id="fills-8ebc30a7-37ae-8042-8006-14b761e37bef"><rect rx="0" ry="0" x="0" y="0" width="50" height="50" transform="matrix(1.000000, 0.000000, 0.000000, 1.000000, 0.000000, 0.000000)" class="frame-background"/></g><g class="frame-children"><g id="shape-8ebc30a7-37ae-8042-8006-14b6c47320dd"><g class="frame-container-wrapper"><g class="frame-container-blur"><g class="frame-container-shadows"><g fill="none"><g class="fills" id="fills-8ebc30a7-37ae-8042-8006-14b6c47320dd"><rect rx="0" ry="0" x="0" y="0" width="50" height="50" transform="matrix(1.000000, 0.000000, 0.000000, 1.000000, 0.000000, 0.000000)" class="frame-background"/></g><g class="frame-children"><g id="shape-8ebc30a7-37ae-8042-8006-14b6c47320de" rx="0" ry="0" style="fill: rgb(0, 0, 0);"><g id="shape-8ebc30a7-37ae-8042-8006-14b6c47320df" style="display: none;"><g class="fills" id="fills-8ebc30a7-37ae-8042-8006-14b6c47320df"><rect width="50" height="50" x="0" transform="matrix(1.000000, 0.000000, 0.000000, 1.000000, 0.000000, 0.000000)" style="fill: none;" ry="0" fill="none" rx="0" y="0"/></g></g><g id="shape-8ebc30a7-37ae-8042-8006-14b6c47320e0"><g class="fills" id="fills-8ebc30a7-37ae-8042-8006-14b6c47320e0"><path d="M35.156,40.625C35.156,41.919,34.107,42.969,32.813,42.969L17.188,42.969C16.300,42.969,15.488,42.467,15.091,41.673C14.694,40.879,14.780,39.929,15.313,39.219L29.365,20.484C30.640,18.803,30.833,16.537,29.862,14.664C28.891,12.790,26.928,11.643,24.819,11.715C22.709,11.788,20.830,13.068,19.990,15.004C19.471,16.190,18.089,16.732,16.902,16.213C15.716,15.694,15.175,14.312,15.693,13.125C16.012,12.398,16.413,11.710,16.891,11.076C20.266,6.596,26.634,5.701,31.114,9.077C35.594,12.453,36.489,18.821,33.113,23.301L21.875,38.281L32.813,38.281C34.107,38.281,35.156,39.331,35.156,40.625ZZ" style="fill: rgb(0, 0, 0);"/></g></g></g></g></g></g></g></g></g></g></g></g></g></g></g></svg>