<svg width="50" xmlns="http://www.w3.org/2000/svg" height="50" id="screenshot-8ebc30a7-37ae-8042-8006-14b763aabbc2" viewBox="0 0 50 50" xmlns:xlink="http://www.w3.org/1999/xlink" fill="none" version="1.1"><g id="shape-8ebc30a7-37ae-8042-8006-14b763aabbc2"><g class="frame-container-wrapper"><g class="frame-container-blur"><g class="frame-container-shadows"><g fill="none"><g class="fills" id="fills-8ebc30a7-37ae-8042-8006-14b763aabbc2"><rect rx="0" ry="0" x="0" y="0" width="50" height="50" transform="matrix(1.000000, 0.000000, 0.000000, 1.000000, 0.000000, 0.000000)" class="frame-background"/></g><g class="frame-children"><g id="shape-8ebc30a7-37ae-8042-8006-14b6c6e503ce"><g class="frame-container-wrapper"><g class="frame-container-blur"><g class="frame-container-shadows"><g fill="none"><g class="fills" id="fills-8ebc30a7-37ae-8042-8006-14b6c6e503ce"><rect rx="0" ry="0" x="0" y="0" width="50" height="50" transform="matrix(1.000000, 0.000000, 0.000000, 1.000000, 0.000000, 0.000000)" class="frame-background"/></g><g class="frame-children"><g id="shape-8ebc30a7-37ae-8042-8006-14b6c6e503cf" rx="0" ry="0" style="fill: rgb(0, 0, 0);"><g id="shape-8ebc30a7-37ae-8042-8006-14b6c6e503d0" style="display: none;"><g class="fills" id="fills-8ebc30a7-37ae-8042-8006-14b6c6e503d0"><rect width="50" height="50" x="0" transform="matrix(1.000000, 0.000000, 0.000000, 1.000000, 0.000000, 0.000000)" style="fill: none;" ry="0" fill="none" rx="0" y="0"/></g></g><g id="shape-8ebc30a7-37ae-8042-8006-14b6c6e503d1"><g class="fills" id="fills-8ebc30a7-37ae-8042-8006-14b6c6e503d1"><path d="M35.156,31.250C35.156,35.871,32.440,40.061,28.222,41.947C24.003,43.834,19.069,43.065,15.625,39.984C14.979,39.432,14.682,38.573,14.850,37.740C15.017,36.906,15.623,36.229,16.433,35.970C17.243,35.711,18.130,35.911,18.750,36.492C21.086,38.580,24.522,38.871,27.176,37.204C29.829,35.537,31.060,32.316,30.193,29.305C29.326,26.294,26.571,24.219,23.438,24.219C22.550,24.219,21.738,23.717,21.341,22.923C20.944,22.129,21.030,21.179,21.563,20.469L28.125,11.719L17.188,11.719C15.893,11.719,14.844,10.669,14.844,9.375C14.844,8.081,15.893,7.031,17.188,7.031L32.813,7.031C33.700,7.031,34.512,7.533,34.909,8.327C35.306,9.121,35.220,10.071,34.688,10.781L27.563,20.281C32.127,22.004,35.150,26.371,35.156,31.250ZZ" style="fill: rgb(0, 0, 0);"/></g></g></g></g></g></g></g></g></g></g></g></g></g></g></g></svg>