<svg width="50" xmlns="http://www.w3.org/2000/svg" height="50" id="screenshot-8ebc30a7-37ae-8042-8006-14b766978ef2" viewBox="0 0 50 50" xmlns:xlink="http://www.w3.org/1999/xlink" fill="none" version="1.1"><g id="shape-8ebc30a7-37ae-8042-8006-14b766978ef2"><g class="frame-container-wrapper"><g class="frame-container-blur"><g class="frame-container-shadows"><g fill="none"><g class="fills" id="fills-8ebc30a7-37ae-8042-8006-14b766978ef2"><rect rx="0" ry="0" x="0" y="0" width="50" height="50" transform="matrix(1.000000, 0.000000, 0.000000, 1.000000, 0.000000, 0.000000)" class="frame-background"/></g><g class="frame-children"><g id="shape-8ebc30a7-37ae-8042-8006-14b6d9cbcc0f"><g class="frame-container-wrapper"><g class="frame-container-blur"><g class="frame-container-shadows"><g fill="none"><g class="fills" id="fills-8ebc30a7-37ae-8042-8006-14b6d9cbcc0f"><rect rx="0" ry="0" x="0" y="0" width="50" height="50" transform="matrix(1.000000, 0.000000, 0.000000, 1.000000, 0.000000, 0.000000)" class="frame-background"/></g><g class="frame-children"><g id="shape-8ebc30a7-37ae-8042-8006-14b6d9cbcc10" rx="0" ry="0" style="fill: rgb(0, 0, 0);"><g id="shape-8ebc30a7-37ae-8042-8006-14b6d9cbcc11" style="display: none;"><g class="fills" id="fills-8ebc30a7-37ae-8042-8006-14b6d9cbcc11"><rect width="50" height="50" x="0" transform="matrix(1.000000, 0.000000, 0.000000, 1.000000, 0.000000, 0.000000)" style="fill: none;" ry="0" fill="none" rx="0" y="0"/></g></g><g id="shape-8ebc30a7-37ae-8042-8006-14b6d9cbcc12"><g class="fills" id="fills-8ebc30a7-37ae-8042-8006-14b6d9cbcc12"><path d="M36.719,18.750C36.719,12.278,31.472,7.031,25.000,7.031C18.528,7.031,13.281,12.278,13.281,18.750C13.281,25.222,18.528,30.469,25.000,30.469C25.510,30.468,26.020,30.433,26.525,30.365L21.395,39.475C20.759,40.603,21.159,42.033,22.287,42.668C23.415,43.303,24.845,42.904,25.480,41.775L35.156,24.588C36.182,22.814,36.721,20.800,36.719,18.750ZZM17.969,18.750C17.969,14.867,21.117,11.719,25.000,11.719C28.883,11.719,32.031,14.867,32.031,18.750C32.031,22.633,28.883,25.781,25.000,25.781C21.117,25.781,17.969,22.633,17.969,18.750ZZ" style="fill: rgb(0, 0, 0);"/></g></g></g></g></g></g></g></g></g></g></g></g></g></g></g></svg>