<svg width="50" xmlns="http://www.w3.org/2000/svg" height="50" id="screenshot-8ebc30a7-37ae-8042-8006-14b765678fc0" viewBox="0 0 50 50" xmlns:xlink="http://www.w3.org/1999/xlink" fill="none" version="1.1"><g id="shape-8ebc30a7-37ae-8042-8006-14b765678fc0"><g class="frame-container-wrapper"><g class="frame-container-blur"><g class="frame-container-shadows"><g fill="none"><g class="fills" id="fills-8ebc30a7-37ae-8042-8006-14b765678fc0"><rect rx="0" ry="0" x="0" y="0" width="50" height="50" transform="matrix(1.000000, 0.000000, 0.000000, 1.000000, 0.000000, 0.000000)" class="frame-background"/></g><g class="frame-children"><g id="shape-8ebc30a7-37ae-8042-8006-14b6eee8eeb4"><g class="frame-container-wrapper"><g class="frame-container-blur"><g class="frame-container-shadows"><g fill="none"><g class="fills" id="fills-8ebc30a7-37ae-8042-8006-14b6eee8eeb4"><rect rx="0" ry="0" x="0" y="0" width="50" height="50" transform="matrix(1.000000, 0.000000, 0.000000, 1.000000, 0.000000, 0.000000)" class="frame-background"/></g><g class="frame-children"><g id="shape-8ebc30a7-37ae-8042-8006-14b6eee8eeb5" rx="0" ry="0" style="fill: rgb(0, 0, 0);"><g id="shape-8ebc30a7-37ae-8042-8006-14b6eee8eeb6" style="display: none;"><g class="fills" id="fills-8ebc30a7-37ae-8042-8006-14b6eee8eeb6"><rect width="50" height="50" x="0" transform="matrix(1.000000, 0.000000, 0.000000, 1.000000, 0.000000, 0.000000)" style="fill: none;" ry="0" fill="none" rx="0" y="0"/></g></g><g id="shape-8ebc30a7-37ae-8042-8006-14b6eee8eeb7"><g class="fills" id="fills-8ebc30a7-37ae-8042-8006-14b6eee8eeb7"><path d="M38.281,18.750C38.281,24.506,33.553,29.307,27.344,30.285L27.344,30.469C27.344,31.763,26.294,32.813,25.000,32.813C23.706,32.813,22.656,31.763,22.656,30.469L22.656,28.125C22.656,26.831,23.706,25.781,25.000,25.781C29.738,25.781,33.594,22.627,33.594,18.750C33.594,14.873,29.738,11.719,25.000,11.719C20.262,11.719,16.406,14.873,16.406,18.750C16.406,20.044,15.357,21.094,14.063,21.094C12.768,21.094,11.719,20.044,11.719,18.750C11.719,12.289,17.676,7.031,25.000,7.031C32.324,7.031,38.281,12.289,38.281,18.750ZZM25.000,36.719C22.843,36.719,21.094,38.468,21.094,40.625C21.094,42.782,22.843,44.531,25.000,44.531C27.157,44.531,28.906,42.782,28.906,40.625C28.906,38.468,27.157,36.719,25.000,36.719ZZ" style="fill: rgb(0, 0, 0);"/></g></g></g></g></g></g></g></g></g></g></g></g></g></g></g></svg>