<svg width="50" xmlns="http://www.w3.org/2000/svg" height="50" fill="none"><g class="frame-container-wrapper"><g class="frame-container-blur"><g class="frame-container-shadows"><g class="fills"><rect rx="0" ry="0" width="50" height="50" transform="matrix(1.000000, 0.000000, 0.000000, 1.000000, 0.000000, 0.000000)" class="frame-background"/></g><g class="frame-children"><g class="frame-container-wrapper"><g class="frame-container-blur"><g class="frame-container-shadows"><g class="fills"><rect rx="0" ry="0" width="50" height="50" transform="matrix(1.000000, 0.000000, 0.000000, 1.000000, 0.000000, 0.000000)" class="frame-background"/></g><g class="frame-children"><path d="M45.406,21.779L26.656,3.029C26.216,2.588,25.619,2.340,24.996,2.340C24.373,2.340,23.776,2.588,23.336,3.029L4.586,21.779C3.914,22.450,3.714,23.461,4.078,24.337C4.443,25.214,5.300,25.784,6.250,25.781L13.281,25.781L13.281,34.375C13.281,35.669,14.331,36.719,15.625,36.719L34.375,36.719C35.669,36.719,36.719,35.669,36.719,34.375L36.719,25.781L43.750,25.781C44.698,25.781,45.553,25.210,45.916,24.334C46.278,23.458,46.077,22.449,45.406,21.779ZZM34.375,21.094C33.081,21.094,32.031,22.143,32.031,23.437L32.031,32.031L17.969,32.031L17.969,23.437C17.969,22.143,16.919,21.094,15.625,21.094L11.914,21.094L25.000,8.008L38.086,21.094ZM36.719,42.188C36.719,43.482,35.669,44.531,34.375,44.531L15.625,44.531C14.331,44.531,13.281,43.482,13.281,42.188C13.281,40.893,14.331,39.844,15.625,39.844L34.375,39.844C35.669,39.844,36.719,40.893,36.719,42.188ZZ" style="fill: rgb(0, 0, 0);" class="fills"/></g></g></g></g></g></g></g></g></svg>