<?xml version="1.0" encoding="UTF-8" standalone="no"?>
<svg
   width="17"
   height="19.999786"
   viewBox="0 0 17 19.999786"
   fill="none"
   version="1.1"
   id="svg1"
   sodipodi:docname="refresh.svg"
   inkscape:version="1.3.2 (091e20e, 2023-11-25)"
   xmlns:inkscape="http://www.inkscape.org/namespaces/inkscape"
   xmlns:sodipodi="http://sodipodi.sourceforge.net/DTD/sodipodi-0.dtd"
   xmlns="http://www.w3.org/2000/svg"
   xmlns:svg="http://www.w3.org/2000/svg">
  <defs
     id="defs1" />
  <sodipodi:namedview
     id="namedview1"
     pagecolor="#ffffff"
     bordercolor="#666666"
     borderopacity="1.0"
     inkscape:showpageshadow="2"
     inkscape:pageopacity="0.0"
     inkscape:pagecheckerboard="0"
     inkscape:deskcolor="#d1d1d1"
     showguides="true"
     inkscape:zoom="17.270833"
     inkscape:cx="7.5271411"
     inkscape:cy="13.751508"
     inkscape:window-width="1920"
     inkscape:window-height="1027"
     inkscape:window-x="0"
     inkscape:window-y="0"
     inkscape:window-maximized="1"
     inkscape:current-layer="svg1" />
  <path
     d="m 8.793,0.29278645 a 1,1 0 0 1 1.414,0 l 3,3.00000005 a 1,1 0 0 1 0,1.414 l -3,3 a 1,1 0 0 1 -1.414,-1.414 l 1.293,-1.293 H 8.5 c -3.548,0 -6.5,2.952 -6.5,6.4999995 0,3.548 2.952,6.5 6.5,6.5 3.548,0 6.5,-2.952 6.5,-6.5 a 1,1 0 1 1 2,0 c 0,4.652 -3.848,8.5 -8.5,8.5 -4.652,0 -8.5,-3.848 -8.5,-8.5 C 0,6.8477865 3.848,2.9997865 8.5,2.9997865 h 1.586 l -1.293,-1.293 a 1,1 0 0 1 0,-1.41400005 z"
     fill="#0D0D0D"
     id="path1"
     style="fill:#f2f2f2;fill-opacity:1" />
</svg>
