<svg width="64" xmlns="http://www.w3.org/2000/svg" height="64" fill="none"><g class="fills"><rect rx="0" ry="0" width="64" height="64" transform="matrix(1.000000, 0.000000, 0.000000, 1.000000, 0.000000, 0.000000)" class="frame-background"/></g><g style="fill: rgb(0, 0, 0);" class="frame-children"><path d="M2.000,32.000C2.000,40.267,4.933,47.333,10.800,53.200C16.667,59.067,23.733,62.000,32.000,62.000C40.267,62.000,47.350,59.067,53.250,53.200C59.083,47.333,62.000,40.267,62.000,32.000C62.000,23.700,59.083,16.633,53.250,10.800C47.383,4.933,40.300,2.000,32.000,2.000C23.700,2.000,16.617,4.933,10.750,10.800L10.800,10.800C4.933,16.633,2.000,23.700,2.000,32.000ZM64.000,32.000C64.000,40.833,60.883,48.367,54.650,54.600C48.383,60.867,40.833,64.000,32.000,64.000C23.167,64.000,15.617,60.867,9.350,54.600C3.117,48.367,0.000,40.833,0.000,32.000C0.000,23.133,3.117,15.583,9.350,9.350C15.617,3.117,23.167,0.000,32.000,0.000C40.833,0.000,48.383,3.117,54.650,9.350C60.883,15.583,64.000,23.133,64.000,32.000Z" style="fill: rgb(150, 150, 163);" class="fills"/><path d="M4.000,32.000C4.000,24.267,6.733,17.683,12.200,12.250L12.400,12.050C17.833,6.683,24.367,4.000,32.000,4.000C39.733,4.000,46.350,6.750,51.850,12.250C57.283,17.683,60.000,24.267,60.000,32.000C60.000,39.700,57.283,46.300,51.850,51.800C46.317,57.267,39.700,60.000,32.000,60.000C24.300,60.000,17.717,57.267,12.250,51.800C6.750,46.300,4.000,39.700,4.000,32.000ZM13.800,13.500L13.700,13.600L13.600,13.700C8.533,18.733,6.000,24.833,6.000,32.000C6.000,39.133,8.567,45.267,13.700,50.400C18.767,55.467,24.867,58.000,32.000,58.000C39.133,58.000,45.283,55.467,50.450,50.400C55.483,45.267,58.000,39.133,58.000,32.000C58.000,24.833,55.483,18.733,50.450,13.700C45.317,8.567,39.167,6.000,32.000,6.000C24.900,6.000,18.833,8.500,13.800,13.500Z" style="fill: rgb(218, 220, 231);" class="fills"/><path d="M13.800,13.500C18.833,8.500,24.900,6.000,32.000,6.000C39.167,6.000,45.317,8.567,50.450,13.700C55.483,18.733,58.000,24.833,58.000,32.000C58.000,39.133,55.483,45.267,50.450,50.400C45.283,55.467,39.133,58.000,32.000,58.000C24.867,58.000,18.767,55.467,13.700,50.400C8.567,45.267,6.000,39.133,6.000,32.000C6.000,24.833,8.533,18.733,13.600,13.700L13.700,13.600L13.800,13.500ZM2.000,32.000C2.000,23.700,4.933,16.633,10.800,10.800L10.750,10.800C16.617,4.933,23.700,2.000,32.000,2.000C40.300,2.000,47.383,4.933,53.250,10.800C59.083,16.633,62.000,23.700,62.000,32.000C62.000,40.267,59.083,47.333,53.250,53.200C47.350,59.067,40.267,62.000,32.000,62.000C23.733,62.000,16.667,59.067,10.800,53.200C4.933,47.333,2.000,40.267,2.000,32.000ZM4.000,32.000C4.000,39.700,6.750,46.300,12.250,51.800C17.717,57.267,24.300,60.000,32.000,60.000C39.700,60.000,46.317,57.267,51.850,51.800C57.283,46.300,60.000,39.700,60.000,32.000C60.000,24.267,57.283,17.683,51.850,12.250C46.350,6.750,39.733,4.000,32.000,4.000C24.367,4.000,17.833,6.683,12.400,12.050L12.200,12.250C6.733,17.683,4.000,24.267,4.000,32.000Z" style="fill: rgb(255, 255, 255);" class="fills"/></g></svg>