<svg width="64" xmlns="http://www.w3.org/2000/svg" height="64" fill="none"><g class="fills"><rect rx="0" ry="0" width="64" height="64" transform="matrix(1.000000, 0.000000, 0.000000, 1.000000, 0.000000, 0.000000)" class="frame-background"/></g><g style="fill: rgb(0, 0, 0);" class="frame-children"><path d="M62.000,6.000L62.000,58.000C62.000,60.667,60.667,62.000,58.000,62.000L28.000,62.000L27.200,61.950L26.800,61.950L26.000,62.000L6.000,62.000C3.333,62.000,2.000,60.667,2.000,58.000L2.000,6.000L2.100,5.050C2.367,3.017,3.667,2.000,6.000,2.000L26.000,2.000L26.800,2.050L27.200,2.050L28.000,2.000L58.000,2.000C60.333,2.000,61.650,3.017,61.950,5.050L62.000,6.000ZM27.450,4.050L27.200,4.050L26.800,4.050L26.550,4.050L26.000,4.000L6.000,4.000C4.900,4.000,4.267,4.433,4.100,5.300L4.050,5.500L4.000,6.000L4.000,58.000C4.000,59.333,4.667,60.000,6.000,60.000L26.000,60.000L26.550,60.000L26.800,59.950L27.200,59.950L27.450,60.000L28.000,60.000L58.000,60.000C59.333,60.000,60.000,59.333,60.000,58.000L60.000,24.550L60.000,24.000L60.000,6.000L59.950,5.300L60.000,5.350C59.767,4.450,59.100,4.000,58.000,4.000L28.000,4.000L27.450,4.050Z" style="fill: rgb(54, 189, 247);" class="fills"/><path d="M27.450,4.050L28.000,4.000L58.000,4.000C59.100,4.000,59.767,4.450,60.000,5.350L59.950,5.300L60.000,6.000L60.000,24.000L60.000,24.550L60.000,58.000C60.000,59.333,59.333,60.000,58.000,60.000L28.000,60.000L27.450,60.000L27.200,59.950L26.800,59.950L26.550,60.000L26.000,60.000L6.000,60.000C4.667,60.000,4.000,59.333,4.000,58.000L4.000,6.000L4.050,5.500L4.100,5.300C4.267,4.433,4.900,4.000,6.000,4.000L26.000,4.000L26.550,4.050L26.800,4.050L27.200,4.050L27.450,4.050Z" style="fill: rgb(28, 159, 215);" class="fills"/><path d="M62.000,6.000L61.950,5.050C61.650,3.017,60.333,2.000,58.000,2.000L28.000,2.000L27.200,2.050L26.800,2.050L26.000,2.000L6.000,2.000C3.667,2.000,2.367,3.017,2.100,5.050L2.000,6.000L2.000,58.000C2.000,60.667,3.333,62.000,6.000,62.000L26.000,62.000L26.800,61.950L27.200,61.950L28.000,62.000L58.000,62.000C60.667,62.000,62.000,60.667,62.000,58.000L62.000,6.000ZM0.000,58.250L0.000,6.000C0.000,2.000,2.000,0.000,6.000,0.000L26.000,0.000L27.000,0.050L28.000,0.000L58.000,0.000C62.000,0.000,64.000,2.000,64.000,6.000L64.000,58.250C63.900,62.083,61.900,64.000,58.000,64.000L28.000,64.000L27.000,63.950L26.000,64.000L6.000,64.000C2.100,64.000,0.100,62.083,0.000,58.250Z" style="fill: rgb(22, 125, 168);" class="fills"/></g></svg>