<svg width="64" xmlns="http://www.w3.org/2000/svg" height="64" fill="none"><g class="fills"><rect rx="0" ry="0" width="64" height="64" transform="matrix(1.000000, 0.000000, 0.000000, 1.000000, 0.000000, 0.000000)" class="frame-background"/></g><g style="fill: rgb(0, 0, 0);" class="frame-children"><path d="M6.000,2.000L58.000,2.000C60.500,2.000,61.833,3.183,62.000,5.550L62.000,58.500C61.833,60.833,60.500,62.000,58.000,62.000L6.000,62.000C3.333,62.000,2.000,60.667,2.000,58.000L2.000,6.000C2.000,3.333,3.333,2.000,6.000,2.000ZM6.000,8.000L6.000,6.000L58.000,6.000L58.000,8.000L6.000,8.000ZM6.000,4.000C4.667,4.000,4.000,4.667,4.000,6.000L4.000,58.000C4.000,59.333,4.667,60.000,6.000,60.000L58.000,60.000C59.267,60.000,59.933,59.400,60.000,58.200L60.000,5.850C59.933,4.617,59.267,4.000,58.000,4.000L6.000,4.000Z" style="fill: rgb(218, 220, 231);" class="fills"/><path d="M6.000,4.000L58.000,4.000C59.267,4.000,59.933,4.617,60.000,5.850L60.000,58.200C59.933,59.400,59.267,60.000,58.000,60.000L6.000,60.000C4.667,60.000,4.000,59.333,4.000,58.000L4.000,6.000C4.000,4.667,4.667,4.000,6.000,4.000ZM6.000,0.000L58.000,0.000C62.000,0.000,64.000,2.000,64.000,6.000L64.000,58.000C64.000,62.000,62.000,64.000,58.000,64.000L6.000,64.000C2.000,64.000,0.000,62.000,0.000,58.000L0.000,6.000C0.000,2.000,2.000,0.000,6.000,0.000ZM58.000,8.000L58.000,6.000L6.000,6.000L6.000,8.000L6.000,58.000L58.000,58.000L58.000,8.000ZM6.000,2.000C3.333,2.000,2.000,3.333,2.000,6.000L2.000,58.000C2.000,60.667,3.333,62.000,6.000,62.000L58.000,62.000C60.500,62.000,61.833,60.833,62.000,58.500L62.000,5.550C61.833,3.183,60.500,2.000,58.000,2.000L6.000,2.000Z" style="fill: rgb(152, 154, 175);" class="fills"/><path d="M58.000,8.000L58.000,58.000L6.000,58.000L6.000,8.000L58.000,8.000Z" style="fill: rgb(255, 255, 255);" class="fills"/></g></svg>