<svg width="37" xmlns="http://www.w3.org/2000/svg" height="37" fill="none"><g class="fills"><rect rx="0" ry="0" width="37" height="37" class="frame-background"/></g><g class="frame-children"><g class="fills"><rect rx="0" ry="0" width="37" height="37" class="frame-background"/></g><g class="frame-children"><path d="M18.5 1.5c9.383 0 17 7.617 17 17s-7.617 17-17 17-17-7.617-17-17 7.617-17 17-17Zm0 4c-7.175 0-13 5.825-13 13s5.825 13 13 13 13-5.825 13-13-5.825-13-13-13Z" style="fill: rgb(255, 0, 0); fill-opacity: 1;" class="fills"/><g class="strokes"><path d="M18.5 1.5c9.383 0 17 7.617 17 17s-7.617 17-17 17-17-7.617-17-17 7.617-17 17-17Zm0 4c-7.175 0-13 5.825-13 13s5.825 13 13 13 13-5.825 13-13-5.825-13-13-13Z" style="fill: none; stroke-width: 2; stroke: rgb(0, 0, 0); stroke-opacity: 1;" class="stroke-shape"/></g></g></g></svg>