<svg width="50" xmlns="http://www.w3.org/2000/svg" height="50" id="screenshot-8ebc30a7-37ae-8042-8006-14b76b881d2a" viewBox="0 0 50 50" xmlns:xlink="http://www.w3.org/1999/xlink" fill="none" version="1.1"><g id="shape-8ebc30a7-37ae-8042-8006-14b76b881d2a"><g class="frame-container-wrapper"><g class="frame-container-blur"><g class="frame-container-shadows"><g fill="none"><g class="fills" id="fills-8ebc30a7-37ae-8042-8006-14b76b881d2a"><rect rx="0" ry="0" x="0" y="0" width="50" height="50" transform="matrix(1.000000, 0.000000, 0.000000, 1.000000, 0.000000, 0.000000)" class="frame-background"/></g><g class="frame-children"><g id="shape-8ebc30a7-37ae-8042-8006-14b6ca6bb6bc"><g class="frame-container-wrapper"><g class="frame-container-blur"><g class="frame-container-shadows"><g fill="none"><g class="fills" id="fills-8ebc30a7-37ae-8042-8006-14b6ca6bb6bc"><rect rx="0" ry="0" x="0" y="0" width="50" height="50" transform="matrix(1.000000, 0.000000, 0.000000, 1.000000, 0.000000, 0.000000)" class="frame-background"/></g><g class="frame-children"><g id="shape-8ebc30a7-37ae-8042-8006-14b6ca6bb6bd" rx="0" ry="0" style="fill: rgb(0, 0, 0);"><g id="shape-8ebc30a7-37ae-8042-8006-14b6ca6bb6be" style="display: none;"><g class="fills" id="fills-8ebc30a7-37ae-8042-8006-14b6ca6bb6be"><rect width="50" height="50" x="0" transform="matrix(1.000000, 0.000000, 0.000000, 1.000000, 0.000000, 0.000000)" style="fill: none;" ry="0" fill="none" rx="0" y="0"/></g></g><g id="shape-8ebc30a7-37ae-8042-8006-14b6ca6bb6bf"><g class="fills" id="fills-8ebc30a7-37ae-8042-8006-14b6ca6bb6bf"><path d="M35.938,30.469L33.594,30.469L33.594,9.375C33.594,8.380,32.965,7.493,32.026,7.163C31.087,6.833,30.042,7.133,29.420,7.910L10.670,31.348C10.107,32.051,9.997,33.015,10.387,33.828C10.777,34.640,11.599,35.156,12.500,35.156L28.906,35.156L28.906,40.625C28.906,41.919,29.956,42.969,31.250,42.969C32.544,42.969,33.594,41.919,33.594,40.625L33.594,35.156L35.938,35.156C37.232,35.156,38.281,34.107,38.281,32.813C38.281,31.518,37.232,30.469,35.938,30.469ZZM28.906,30.469L17.383,30.469L28.906,16.057Z" style="fill: rgb(0, 0, 0);"/></g></g></g></g></g></g></g></g></g></g></g></g></g></g></g></svg>