<svg width="50" xmlns="http://www.w3.org/2000/svg" height="50" id="screenshot-8ebc30a7-37ae-8042-8006-14b76a8d18fc" viewBox="0 0 50 50" xmlns:xlink="http://www.w3.org/1999/xlink" fill="none" version="1.1"><g id="shape-8ebc30a7-37ae-8042-8006-14b76a8d18fc"><g class="frame-container-wrapper"><g class="frame-container-blur"><g class="frame-container-shadows"><g fill="none"><g class="fills" id="fills-8ebc30a7-37ae-8042-8006-14b76a8d18fc"><rect rx="0" ry="0" x="0" y="0" width="50" height="50" transform="matrix(1.000000, 0.000000, 0.000000, 1.000000, 0.000000, 0.000000)" class="frame-background"/></g><g class="frame-children"><g id="shape-8ebc30a7-37ae-8042-8006-14b6ccc5f746"><g class="frame-container-wrapper"><g class="frame-container-blur"><g class="frame-container-shadows"><g fill="none"><g class="fills" id="fills-8ebc30a7-37ae-8042-8006-14b6ccc5f746"><rect rx="0" ry="0" x="0" y="0" width="50" height="50" transform="matrix(1.000000, 0.000000, 0.000000, 1.000000, 0.000000, 0.000000)" class="frame-background"/></g><g class="frame-children"><g id="shape-8ebc30a7-37ae-8042-8006-14b6ccc5f747" rx="0" ry="0" style="fill: rgb(0, 0, 0);"><g id="shape-8ebc30a7-37ae-8042-8006-14b6ccc5f748" style="display: none;"><g class="fills" id="fills-8ebc30a7-37ae-8042-8006-14b6ccc5f748"><rect width="50" height="50" x="0" transform="matrix(1.000000, 0.000000, 0.000000, 1.000000, 0.000000, 0.000000)" style="fill: none;" ry="0" fill="none" rx="0" y="0"/></g></g><g id="shape-8ebc30a7-37ae-8042-8006-14b6ccc5f749"><g class="fills" id="fills-8ebc30a7-37ae-8042-8006-14b6ccc5f749"><path d="M35.156,31.250C35.156,35.871,32.440,40.061,28.222,41.947C24.003,43.834,19.069,43.065,15.625,39.984C14.979,39.432,14.682,38.573,14.850,37.740C15.017,36.906,15.623,36.229,16.433,35.970C17.243,35.711,18.130,35.911,18.750,36.492C21.552,38.997,25.828,38.855,28.458,36.171C31.088,33.487,31.143,29.209,28.582,26.458C26.021,23.708,21.749,23.458,18.885,25.891C18.125,26.537,17.039,26.631,16.179,26.125C15.319,25.619,14.873,24.625,15.068,23.646L18.014,8.916C18.233,7.820,19.195,7.031,20.313,7.031L32.813,7.031C34.107,7.031,35.156,8.081,35.156,9.375C35.156,10.669,34.107,11.719,32.813,11.719L22.234,11.719L20.602,19.881C24.102,19.008,27.809,19.796,30.651,22.016C33.494,24.237,35.156,27.643,35.156,31.250ZZ" style="fill: rgb(0, 0, 0);"/></g></g></g></g></g></g></g></g></g></g></g></g></g></g></g></svg>