<svg width="50" xmlns="http://www.w3.org/2000/svg" height="50" id="screenshot-8ebc30a7-37ae-8042-8006-14b7692f908c" viewBox="0 0 50 50" xmlns:xlink="http://www.w3.org/1999/xlink" fill="none" version="1.1"><g id="shape-8ebc30a7-37ae-8042-8006-14b7692f908c"><g class="frame-container-wrapper"><g class="frame-container-blur"><g class="frame-container-shadows"><g fill="none"><g class="fills" id="fills-8ebc30a7-37ae-8042-8006-14b7692f908c"><rect rx="0" ry="0" x="0" y="0" width="50" height="50" transform="matrix(1.000000, 0.000000, 0.000000, 1.000000, 0.000000, 0.000000)" class="frame-background"/></g><g class="frame-children"><g id="shape-8ebc30a7-37ae-8042-8006-14b6d3ff114e"><g class="frame-container-wrapper"><g class="frame-container-blur"><g class="frame-container-shadows"><g fill="none"><g class="fills" id="fills-8ebc30a7-37ae-8042-8006-14b6d3ff114e"><rect rx="0" ry="0" x="0" y="0" width="50" height="50" transform="matrix(1.000000, 0.000000, 0.000000, 1.000000, 0.000000, 0.000000)" class="frame-background"/></g><g class="frame-children"><g id="shape-8ebc30a7-37ae-8042-8006-14b6d3ff114f" rx="0" ry="0" style="fill: rgb(0, 0, 0);"><g id="shape-8ebc30a7-37ae-8042-8006-14b6d3ff1150" style="display: none;"><g class="fills" id="fills-8ebc30a7-37ae-8042-8006-14b6d3ff1150"><rect width="50" height="50" x="0" transform="matrix(1.000000, 0.000000, 0.000000, 1.000000, 0.000000, 0.000000)" style="fill: none;" ry="0" fill="none" rx="0" y="0"/></g></g><g id="shape-8ebc30a7-37ae-8042-8006-14b6d3ff6fa1"><g class="fills" id="fills-8ebc30a7-37ae-8042-8006-14b6d3ff6fa1"><path d="M25.000,19.531C24.490,19.532,23.980,19.567,23.475,19.635L28.605,10.525C29.241,9.397,28.841,7.967,27.713,7.332C26.585,6.697,25.155,7.096,24.520,8.225L14.844,25.416C12.204,30.014,12.981,35.812,16.738,39.553C20.494,43.295,26.295,44.048,30.882,41.390C35.470,38.732,37.701,33.325,36.323,28.205C34.946,23.085,30.302,19.528,25.000,19.531ZZM25.000,38.281C21.117,38.281,17.969,35.133,17.969,31.250C17.969,27.367,21.117,24.219,25.000,24.219C28.883,24.219,32.031,27.367,32.031,31.250C32.031,35.133,28.883,38.281,25.000,38.281ZZ" style="fill: rgb(0, 0, 0);"/></g></g></g></g></g></g></g></g></g></g></g></g></g></g></g></svg>