<svg width="50" xmlns="http://www.w3.org/2000/svg" height="50" id="screenshot-8ebc30a7-37ae-8042-8006-14b768665737" viewBox="0 0 50 50" xmlns:xlink="http://www.w3.org/1999/xlink" fill="none" version="1.1"><g id="shape-8ebc30a7-37ae-8042-8006-14b768665737"><g class="frame-container-wrapper"><g class="frame-container-blur"><g class="frame-container-shadows"><g fill="none"><g class="fills" id="fills-8ebc30a7-37ae-8042-8006-14b768665737"><rect rx="0" ry="0" x="0" y="0" width="50.00000000000006" height="50" transform="matrix(1.000000, 0.000000, 0.000000, 1.000000, 0.000000, 0.000000)" class="frame-background"/></g><g class="frame-children"><g id="shape-8ebc30a7-37ae-8042-8006-14b6d62a7fa3"><g class="frame-container-wrapper"><g class="frame-container-blur"><g class="frame-container-shadows"><g fill="none"><g class="fills" id="fills-8ebc30a7-37ae-8042-8006-14b6d62a7fa3"><rect rx="0" ry="0" x="0" y="0" width="50" height="50" transform="matrix(1.000000, 0.000000, 0.000000, 1.000000, 0.000000, 0.000000)" class="frame-background"/></g><g class="frame-children"><g id="shape-8ebc30a7-37ae-8042-8006-14b6d62a7fa4" rx="0" ry="0" style="fill: rgb(0, 0, 0);"><g id="shape-8ebc30a7-37ae-8042-8006-14b6d62a7fa5" style="display: none;"><g class="fills" id="fills-8ebc30a7-37ae-8042-8006-14b6d62a7fa5"><rect width="50" height="50" x="0" transform="matrix(1.000000, 0.000000, 0.000000, 1.000000, 0.000000, 0.000000)" style="fill: none;" ry="0" fill="none" rx="0" y="0"/></g></g><g id="shape-8ebc30a7-37ae-8042-8006-14b6d62a7fa6"><g class="fills" id="fills-8ebc30a7-37ae-8042-8006-14b6d62a7fa6"><path d="M35.057,10.049L25.682,41.299C25.384,42.290,24.472,42.968,23.438,42.969C23.209,42.969,22.982,42.935,22.764,42.869C21.528,42.493,20.829,41.188,21.201,39.951L29.662,11.719L17.188,11.719C15.893,11.719,14.844,10.669,14.844,9.375C14.844,8.081,15.893,7.031,17.188,7.031L32.813,7.031C33.553,7.031,34.250,7.382,34.693,7.976C35.135,8.571,35.270,9.339,35.057,10.049ZZ" style="fill: rgb(0, 0, 0);"/></g></g></g></g></g></g></g></g></g></g></g></g></g></g></g></svg>