<svg width="50" xmlns="http://www.w3.org/2000/svg" height="50" id="screenshot-8ebc30a7-37ae-8042-8006-14b767900eda" viewBox="0 0 50 50" xmlns:xlink="http://www.w3.org/1999/xlink" fill="none" version="1.1"><g id="shape-8ebc30a7-37ae-8042-8006-14b767900eda"><g class="frame-container-wrapper"><g class="frame-container-blur"><g class="frame-container-shadows"><g fill="none"><g class="fills" id="fills-8ebc30a7-37ae-8042-8006-14b767900eda"><rect rx="0" ry="0" x="0" y="0" width="50" height="50" transform="matrix(1.000000, 0.000000, 0.000000, 1.000000, 0.000000, 0.000000)" class="frame-background"/></g><g class="frame-children"><g id="shape-8ebc30a7-37ae-8042-8006-14b6d82cd427"><g class="frame-container-wrapper"><g class="frame-container-blur"><g class="frame-container-shadows"><g fill="none"><g class="fills" id="fills-8ebc30a7-37ae-8042-8006-14b6d82cd427"><rect rx="0" ry="0" x="0" y="0" width="50" height="50" transform="matrix(1.000000, 0.000000, 0.000000, 1.000000, 0.000000, 0.000000)" class="frame-background"/></g><g class="frame-children"><g id="shape-8ebc30a7-37ae-8042-8006-14b6d82cd428" rx="0" ry="0" style="fill: rgb(0, 0, 0);"><g id="shape-8ebc30a7-37ae-8042-8006-14b6d82cd429" style="display: none;"><g class="fills" id="fills-8ebc30a7-37ae-8042-8006-14b6d82cd429"><rect width="50" height="50" x="0" transform="matrix(1.000000, 0.000000, 0.000000, 1.000000, 0.000000, 0.000000)" style="fill: none;" ry="0" fill="none" rx="0" y="0"/></g></g><g id="shape-8ebc30a7-37ae-8042-8006-14b6d82cd42a"><g class="fills" id="fills-8ebc30a7-37ae-8042-8006-14b6d82cd42a"><path d="M31.727,23.225C34.890,20.428,35.993,15.967,34.498,12.019C33.003,8.071,29.222,5.459,25.000,5.459C20.778,5.459,16.997,8.071,15.502,12.019C14.007,15.967,15.110,20.428,18.273,23.225C14.086,26.160,12.286,31.471,13.825,36.347C15.363,41.224,19.887,44.539,25.000,44.539C30.113,44.539,34.637,41.224,36.175,36.347C37.714,31.471,35.914,26.160,31.727,23.225ZZM19.531,15.625C19.531,12.605,21.980,10.156,25.000,10.156C28.020,10.156,30.469,12.605,30.469,15.625C30.469,18.645,28.020,21.094,25.000,21.094C21.980,21.094,19.531,18.645,19.531,15.625ZZM25.000,39.844C21.117,39.844,17.969,36.696,17.969,32.813C17.969,28.929,21.117,25.781,25.000,25.781C28.883,25.781,32.031,28.929,32.031,32.813C32.031,36.696,28.883,39.844,25.000,39.844ZZ" style="fill: rgb(0, 0, 0);"/></g></g></g></g></g></g></g></g></g></g></g></g></g></g></g></svg>