<svg width="175" xmlns="http://www.w3.org/2000/svg" height="30" fill="none"><g class="fills"><rect rx="0" ry="0" width="175" height="30" class="frame-background"/></g><g class="frame-children"><rect rx="0" ry="0" x="7" y="3" width="161" height="24" style="fill: rgb(204, 204, 204); fill-opacity: 1;" class="fills"/><g class="strokes"><rect rx="0" ry="0" x="7" y="3" width="161" height="24" style="fill: none; stroke-width: 3; stroke: rgb(0, 0, 0); stroke-opacity: 1;" class="stroke-shape"/></g><g class="fills"><rect rx="0" ry="0" x="82.604" y="7.277" width="9.792" height="15.445" class="frame-background"/></g><g class="frame-children"><path d="M87.361 13.059c1.508 0 2.724.391 3.648 1.173.925.782 1.387 1.899 1.387 3.349 0 1.593-.505 2.852-1.515 3.776-1.009.911-2.439 1.366-4.288 1.366a11.14 11.14 0 0 1-2.24-.214c-.682-.142-1.265-.348-1.749-.618v-2.07c.512.299 1.131.541 1.856.726.74.185 1.444.277 2.112.277 1.067 0 1.92-.242 2.56-.725.64-.498.96-1.266.96-2.304 0-.925-.292-1.629-.875-2.112-.569-.498-1.472-.747-2.709-.747-.412 0-.86.036-1.344.107-.484.071-.875.142-1.173.213l-1.046-.619.576-7.36h7.83v2.006h-5.867l-.341 3.989c.241-.043.547-.085.917-.128.37-.057.804-.085 1.301-.085Z" style="display: inline; font-weight: 500; font-size: 5.64444px; line-height: 1.25; font-family: &quot;Noto Sans&quot;; stroke-width: 0.264583; fill: rgb(0, 0, 0); fill-opacity: 1;" class="fills"/></g></g></svg>