<svg width="256" xmlns="http://www.w3.org/2000/svg" height="256" fill="none"><g class="fills"><rect rx="0" ry="0" width="256" height="256" transform="matrix(1.000000, 0.000000, 0.000000, 1.000000, 0.000000, 0.000000)" class="frame-background"/></g><g class="frame-children"><path d="M88.000,195.780C107.126,212.884,136.321,211.923,154.280,193.598C172.239,175.272,172.610,146.063,155.123,127.287C137.636,108.511,108.474,106.807,88.920,123.420L104.000,48.000L168.000,48.000" style="fill: none;" class="fills"/><g stroke-linejoin="round" class="strokes"><path d="M88.000,195.780C107.126,212.884,136.321,211.923,154.280,193.598C172.239,175.272,172.610,146.063,155.123,127.287C137.636,108.511,108.474,106.807,88.920,123.420L104.000,48.000L168.000,48.000" style="fill: none; stroke-width: 48; stroke: rgb(0, 0, 0); stroke-opacity: 1; stroke-linecap: round;" class="stroke-shape"/></g><path d="M88.000,195.780C107.126,212.884,136.321,211.923,154.280,193.598C172.239,175.272,172.610,146.063,155.123,127.287C137.636,108.511,108.474,106.807,88.920,123.420L104.000,48.000L168.000,48.000" style="fill: none;" class="fills"/><g stroke-linejoin="round" class="strokes"><path d="M88.000,195.780C107.126,212.884,136.321,211.923,154.280,193.598C172.239,175.272,172.610,146.063,155.123,127.287C137.636,108.511,108.474,106.807,88.920,123.420L104.000,48.000L168.000,48.000" style="fill: none; stroke-width: 24; stroke: rgb(255, 255, 255); stroke-opacity: 1; stroke-linecap: round;" class="stroke-shape"/></g></g></svg>