<svg width="256" xmlns="http://www.w3.org/2000/svg" height="256" fill="none"><g class="fills"><rect rx="0" ry="0" width="256" height="256" transform="matrix(1.000000, 0.000000, 0.000000, 1.000000, 0.000000, 0.000000)" class="frame-background"/></g><g class="frame-children"><ellipse cx="128" cy="96" rx="48" ry="48" transform="matrix(1.000000, 0.000000, 0.000000, 1.000000, 0.000000, 0.000000)" style="fill: none;" class="fills"/><g stroke-linejoin="round" class="strokes"><g class="inner-stroke-shape" transform="matrix(1.000000, 0.000000, 0.000000, 1.000000, 0.000000, 0.000000)"><defs><clipPath id="b"><use href="#a"/></clipPath><ellipse cx="128" cy="96" rx="48" ry="48" id="a" style="fill: none; stroke-width: 48; stroke: rgb(0, 0, 0); stroke-opacity: 1;"/></defs><use href="#a" clip-path="url('#b')"/></g></g><ellipse cx="128" cy="96" rx="48" ry="48" transform="matrix(1.000000, 0.000000, 0.000000, 1.000000, 0.000000, 0.000000)" style="fill: none;" class="fills"/><g stroke-linejoin="round" class="strokes"><g class="outer-stroke-shape"><defs><mask id="d" x="46.059" y="14.059" width="163.882" height="163.882" maskUnits="userSpaceOnUse"><use href="#c" style="fill: none; stroke: white; stroke-width: 48;"/><use href="#c" style="fill: black; stroke: none;"/></mask><ellipse cx="128" cy="96" rx="48" ry="48" transform="matrix(1.000000, 0.000000, 0.000000, 1.000000, 0.000000, 0.000000)" id="c"/></defs><use href="#c" mask="url(#d)" style="fill: none; stroke-width: 48; stroke: rgb(0, 0, 0); stroke-opacity: 1;"/><use href="#c" style="fill: none; stroke-width: 24; stroke: none; stroke-opacity: 1;"/></g></g><path d="M120.000,208.000L169.570,120.000" style="fill: none;" class="fills"/><g stroke-linejoin="round" class="strokes"><path d="M120.000,208.000L169.570,120.000" style="fill: none; stroke-width: 48; stroke: rgb(0, 0, 0); stroke-opacity: 1; stroke-linecap: round;" class="stroke-shape"/></g><ellipse cx="128" cy="96" rx="48" ry="48" transform="matrix(1.000000, 0.000000, 0.000000, 1.000000, 0.000000, 0.000000)" style="fill: none;" class="fills"/><g stroke-linejoin="round" class="strokes"><ellipse cx="128" cy="96" rx="48" ry="48" transform="matrix(1.000000, 0.000000, 0.000000, 1.000000, 0.000000, 0.000000)" style="fill: none; stroke-width: 24; stroke: rgb(255, 255, 255); stroke-opacity: 1;" class="stroke-shape"/></g><path d="M120.000,208.000L169.570,120.000" style="fill: none;" class="fills"/><g stroke-linejoin="round" class="strokes"><path d="M120.000,208.000L169.570,120.000" style="fill: none; stroke-width: 24; stroke: rgb(255, 255, 255); stroke-opacity: 1; stroke-linecap: round;" class="stroke-shape"/></g></g></svg>