<svg width="100" xmlns="http://www.w3.org/2000/svg" height="90" fill="none"><g class="fills"><rect rx="0" ry="0" width="100" height="90" transform="matrix(1.000000, 0.000000, 0.000000, 1.000000, 0.000000, 0.000000)" class="frame-background"/></g><g style="fill: rgb(0, 0, 0);" class="frame-children"><path d="M12.239,52.466C10.573,50.305,9.907,47.894,10.240,45.234C10.407,42.407,11.572,40.163,13.737,38.500C15.902,36.838,18.399,36.172,21.230,36.505C23.894,36.671,26.059,37.835,27.724,39.997L39.213,54.212L72.182,13.810C74.014,11.649,76.262,10.402,78.926,10.069C81.590,9.737,84.005,10.485,86.169,12.314C88.334,14.143,89.583,16.387,89.916,19.047C90.249,21.708,89.499,24.118,87.668,26.280L46.956,76.159L42.210,79.650L36.466,79.650L31.470,76.159L12.239,52.466Z" style="fill: rgb(23, 229, 23); fill-opacity: 1;" class="fills"/><path d="M12.239,52.466L31.470,76.159L36.466,79.650L42.210,79.650L46.956,76.159L87.668,26.280C89.499,24.118,90.249,21.708,89.916,19.047C89.583,16.387,88.334,14.143,86.169,12.314C84.005,10.485,81.590,9.737,78.926,10.069C76.262,10.402,74.014,11.649,72.182,13.810L39.213,54.212L27.724,39.997C26.059,37.835,23.894,36.671,21.230,36.505C18.399,36.172,15.902,36.838,13.737,38.500C11.572,40.163,10.407,42.407,10.240,45.234C9.907,47.894,10.573,50.305,12.239,52.466ZM99.906,18.050C100.406,23.537,98.907,28.441,95.411,32.764L54.699,82.643L54.699,82.393C52.201,85.552,49.037,87.797,45.208,89.127C41.211,90.291,37.298,90.291,33.469,89.127L33.219,89.127C29.389,87.797,26.225,85.552,23.728,82.393L4.496,58.701C0.999,54.378,-0.416,49.557,0.250,44.236C0.749,38.750,3.164,34.260,7.493,30.769C11.822,27.277,16.734,25.864,22.229,26.529C27.557,27.028,31.970,29.439,35.467,33.762L39.213,38.500L64.440,7.575C67.936,3.253,72.432,0.842,77.927,0.343L77.927,0.094C83.255,-0.405,88.084,1.091,92.413,4.583L92.663,4.832C96.826,8.157,99.240,12.563,99.906,18.050Z" style="fill: rgb(0, 0, 0); fill-opacity: 1;" class="fills"/></g></svg>