<svg width="50" xmlns="http://www.w3.org/2000/svg" height="50" fill="none"><defs><clipPath id="a" class="frame-clip frame-clip-def"><rect rx="0" ry="0" width="50" height="50" transform="matrix(1.000000, 0.000000, 0.000000, 1.000000, 0.000000, 0.000000)"/></clipPath></defs><g clip-path="url(#a)"><g class="fills"><rect rx="0" ry="0" width="50" height="50" transform="matrix(1.000000, 0.000000, 0.000000, 1.000000, 0.000000, 0.000000)" class="frame-background"/></g><g class="frame-children"><g class="fills"><rect rx="0" ry="0" width="36" height="36" transform="matrix(1.000000, 0.000000, 0.000000, 1.000000, 0.000000, 0.000000)" class="frame-background"/></g><g class="frame-children"><path d="M26.438,10.688C25.899,10.686,25.365,10.781,24.861,10.969C24.263,9.738,23.138,8.845,21.803,8.544C20.468,8.243,19.068,8.566,18.000,9.422C16.649,8.340,14.797,8.129,13.238,8.879C11.678,9.629,10.686,11.207,10.688,12.938L10.688,15.188L9.563,15.188C7.077,15.188,5.063,17.202,5.063,19.688L5.063,21.375C5.063,28.520,10.855,34.313,18.000,34.313C25.145,34.313,30.938,28.520,30.938,21.375L30.938,15.188C30.938,12.702,28.923,10.688,26.438,10.688ZZM27.563,21.375C27.563,26.656,23.281,30.938,18.000,30.938C12.719,30.938,8.438,26.656,8.438,21.375L8.438,19.688C8.438,19.066,8.941,18.563,9.563,18.563L10.688,18.563L10.688,21.375C10.688,22.307,11.443,23.063,12.375,23.063C13.307,23.063,14.063,22.307,14.063,21.375L14.063,12.938C14.063,12.316,14.566,11.813,15.188,11.813C15.809,11.813,16.313,12.316,16.313,12.938L16.313,16.875C16.313,17.807,17.068,18.563,18.000,18.563C18.932,18.563,19.688,17.807,19.688,16.875L19.688,12.938C19.688,12.316,20.191,11.813,20.813,11.813C21.434,11.813,21.938,12.316,21.938,12.938L21.938,16.875C21.938,17.807,22.693,18.563,23.625,18.563C24.557,18.563,25.313,17.807,25.313,16.875L25.313,15.188C25.313,14.566,25.816,14.063,26.438,14.063C27.059,14.063,27.563,14.566,27.563,15.188Z" style="fill: rgb(0, 0, 0);" class="fills"/></g><g class="fills"><rect rx="0" ry="0" x="26" y="26" width="24" height="24" transform="matrix(1.000000, 0.000000, 0.000000, 1.000000, 0.000000, 0.000000)" class="frame-background"/></g><g class="frame-children"><path d="M48.875,33.500L48.875,40.250C48.875,40.871,48.371,41.375,47.750,41.375C47.129,41.375,46.625,40.871,46.625,40.250L46.625,36.219L38.046,44.799C37.835,45.011,37.548,45.130,37.249,45.130C36.950,45.130,36.663,45.011,36.452,44.799L27.452,35.799C27.012,35.359,27.012,34.645,27.452,34.205C27.892,33.765,28.606,33.765,29.046,34.205L37.250,42.406L45.031,34.625L41.000,34.625C40.379,34.625,39.875,34.121,39.875,33.500C39.875,32.879,40.379,32.375,41.000,32.375L47.750,32.375C48.371,32.375,48.875,32.879,48.875,33.500ZZ" style="fill: rgb(0, 0, 0);" class="fills"/></g></g></g></svg>