<svg width="50" xmlns="http://www.w3.org/2000/svg" height="50" fill="none"><defs><clipPath id="a" class="frame-clip frame-clip-def"><rect rx="0" ry="0" width="50" height="50" transform="matrix(1.000000, 0.000000, 0.000000, 1.000000, 0.000000, 0.000000)"/></clipPath></defs><g clip-path="url(#a)"><g class="fills"><rect rx="0" ry="0" width="50" height="50" transform="matrix(1.000000, 0.000000, 0.000000, 1.000000, 0.000000, 0.000000)" class="frame-background"/></g><g class="frame-children"><g class="fills"><rect rx="0" ry="0" x="6.5" y="6.5" width="37" height="37" transform="matrix(1.000000, 0.000000, 0.000000, 1.000000, 0.000000, 0.000000)" class="frame-background"/></g><g class="frame-children"><path d="M25.000,8.000C34.383,8.000,42.000,15.617,42.000,25.000C42.000,34.383,34.383,42.000,25.000,42.000C15.617,42.000,8.000,34.383,8.000,25.000C8.000,15.617,15.617,8.000,25.000,8.000ZM25.000,12.000C17.825,12.000,12.000,17.825,12.000,25.000C12.000,32.175,17.825,38.000,25.000,38.000C32.175,38.000,38.000,32.175,38.000,25.000C38.000,17.825,32.175,12.000,25.000,12.000Z" style="fill: rgb(160, 160, 160); fill-opacity: 1;" class="fills"/><g class="strokes"><path d="M25.000,8.000C34.383,8.000,42.000,15.617,42.000,25.000C42.000,34.383,34.383,42.000,25.000,42.000C15.617,42.000,8.000,34.383,8.000,25.000C8.000,15.617,15.617,8.000,25.000,8.000ZM25.000,12.000C17.825,12.000,12.000,17.825,12.000,25.000C12.000,32.175,17.825,38.000,25.000,38.000C32.175,38.000,38.000,32.175,38.000,25.000C38.000,17.825,32.175,12.000,25.000,12.000Z" style="fill: none; stroke-width: 2; stroke: rgb(0, 0, 0); stroke-opacity: 1;" class="stroke-shape"/></g></g></g></g></svg>