<svg width="100" xmlns="http://www.w3.org/2000/svg" height="100" fill="none"><defs><clipPath id="a" class="frame-clip frame-clip-def"><rect rx="0" ry="0" width="100" height="100"/></clipPath></defs><g clip-path="url(#a)"><g class="fills"><rect rx="0" ry="0" width="100" height="100" class="frame-background"/></g><g class="frame-children"><g class="fills"><rect rx="0" ry="0" x="3" y="40" width="30" height="30" class="frame-background"/></g><g class="frame-children"><circle cx="18" cy="55" style="fill: rgb(204, 204, 204); fill-opacity: 1;" r="12" class="fills"/><g class="strokes"><circle cx="18" cy="55" style="fill: none; stroke-width: 3; stroke: rgb(0, 0, 0); stroke-opacity: 1;" r="12" class="stroke-shape"/></g></g><g class="fills"><rect rx="0" ry="0" x="35" y="53" width="30" height="30" class="frame-background"/></g><g class="frame-children"><circle cx="50" cy="68" style="fill: rgb(204, 204, 204); fill-opacity: 1;" r="12" class="fills"/><g class="strokes"><circle cx="50" cy="68" style="fill: none; stroke-width: 3; stroke: rgb(0, 0, 0); stroke-opacity: 1;" r="12" class="stroke-shape"/></g></g><g class="fills"><rect rx="0" ry="0" x="65" y="67" width="30" height="30" class="frame-background"/></g><g class="frame-children"><circle cx="80" cy="82" style="fill: rgb(204, 204, 204); fill-opacity: 1;" r="12" class="fills"/><g class="strokes"><circle cx="80" cy="82" style="fill: none; stroke-width: 3; stroke: rgb(0, 0, 0); stroke-opacity: 1;" r="12" class="stroke-shape"/></g></g><g class="fills"><rect rx="0" ry="0" x="15" y="6" width="70" height="30" class="frame-background"/></g><g class="frame-children"><rect rx="0" ry="0" x="22" y="9" width="56" height="24" style="fill: rgb(204, 204, 204); fill-opacity: 1;" class="fills"/><g class="strokes"><rect rx="0" ry="0" x="22" y="9" width="56" height="24" style="fill: none; stroke-width: 3; stroke: rgb(0, 0, 0); stroke-opacity: 1;" class="stroke-shape"/></g></g></g></g></svg>