<svg width="50" xmlns="http://www.w3.org/2000/svg" height="50" id="screenshot-c079da11-ea97-8013-8006-2a6ca994d84a" viewBox="0 0 50 50" xmlns:xlink="http://www.w3.org/1999/xlink" fill="none" version="1.1"><g id="shape-c079da11-ea97-8013-8006-2a6ca994d84a"><g class="frame-container-wrapper"><g class="frame-container-blur"><g class="frame-container-shadows"><g fill="none"><g class="fills" id="fills-c079da11-ea97-8013-8006-2a6ca994d84a"><rect rx="0" ry="0" x="0" y="0" width="50" height="50" transform="matrix(1.000000, 0.000000, 0.000000, 1.000000, 0.000000, 0.000000)" class="frame-background"/></g><g class="frame-children"><g id="shape-c079da11-ea97-8013-8006-2a6d057eba7f"><g class="frame-container-wrapper"><g class="frame-container-blur"><g class="frame-container-shadows"><g fill="none"><g class="fills" id="fills-c079da11-ea97-8013-8006-2a6d057eba7f"><rect rx="0" ry="0" x="3" y="13" width="44" height="24" transform="matrix(1.000000, 0.000000, 0.000000, 1.000000, 0.000000, 0.000000)" class="frame-background"/></g><g class="frame-children"><g id="shape-c079da11-ea97-8013-8006-2a6d057eba80"><g class="fills" id="fills-c079da11-ea97-8013-8006-2a6d057eba80"><rect rx="0" ry="0" x="3" y="13" transform="matrix(1.000000, 0.000000, 0.000000, 1.000000, 0.000000, 0.000000)" width="44" height="24" style="fill: rgb(204, 204, 204); fill-opacity: 1;"/></g><g id="strokes-18cb738f-1f02-80ab-8006-2a6e91d855a8-c079da11-ea97-8013-8006-2a6d057eba80" class="strokes"><g class="stroke-shape"><rect rx="0" ry="0" x="3" y="13" transform="matrix(1.000000, 0.000000, 0.000000, 1.000000, 0.000000, 0.000000)" width="44" height="24" style="fill: none; stroke-width: 3; stroke: rgb(0, 0, 0); stroke-opacity: 1;"/></g></g></g></g></g></g></g></g></g><g id="shape-c079da11-ea97-8013-8006-2a6cba6e752c"><g class="frame-container-wrapper"><g class="frame-container-blur"><g class="frame-container-shadows"><g fill="none"><g class="fills" id="fills-c079da11-ea97-8013-8006-2a6cba6e752c"><rect rx="0" ry="0" x="20" y="17.5" width="10" height="15" transform="matrix(1.000000, 0.000000, 0.000000, 1.000000, 0.000000, 0.000000)" class="frame-background"/></g><g class="frame-children"><g id="shape-c079da11-ea97-8013-8006-2a6cba6e752d"><g class="fills" id="fills-c079da11-ea97-8013-8006-2a6cba6e752d"><path d="M30.000,32.500L20.000,32.500L20.000,30.801L23.833,26.927C24.583,26.167,25.208,25.511,25.708,24.959C26.208,24.392,26.583,23.854,26.833,23.343C27.083,22.818,27.208,22.251,27.208,21.644C27.208,20.898,26.986,20.331,26.542,19.945C26.097,19.558,25.521,19.365,24.813,19.365C24.132,19.365,23.521,19.489,22.979,19.738C22.438,19.986,21.875,20.345,21.292,20.815L20.104,19.344C20.701,18.847,21.382,18.419,22.146,18.059C22.910,17.686,23.819,17.500,24.875,17.500C26.292,17.500,27.403,17.859,28.208,18.577C29.028,19.296,29.437,20.256,29.437,21.457C29.437,22.244,29.278,22.977,28.958,23.653C28.639,24.316,28.188,24.979,27.604,25.642C27.021,26.305,26.333,27.017,25.542,27.776L22.771,30.449L22.771,30.552L30.000,30.552Z" style="display: inline; font-weight: 500; font-size: 5.64444px; line-height: 1.25; font-family: &quot;Noto Sans&quot;; stroke-width: 0.264583; fill: rgb(0, 0, 0); fill-opacity: 1;"/></g></g></g></g></g></g></g></g></g></g></g></g></g></g></svg>