<svg width="50" xmlns="http://www.w3.org/2000/svg" height="50" id="screenshot-cf5bc657-c124-8021-8005-425658880701" viewBox="0 0 50 50" xmlns:xlink="http://www.w3.org/1999/xlink" fill="none" version="1.1"><g id="shape-cf5bc657-c124-8021-8005-425658880701"><defs><clipPath id="frame-clip-cf5bc657-c124-8021-8005-425658880701-render-11" class="frame-clip frame-clip-def"><rect rx="0" ry="0" x="0" y="0" width="50" height="50" transform="matrix(1.000000, 0.000000, 0.000000, 1.000000, 0.000000, 0.000000)"/></clipPath></defs><g class="frame-container-wrapper"><g class="frame-container-blur"><g class="frame-container-shadows"><g clip-path="url(#frame-clip-cf5bc657-c124-8021-8005-425658880701-render-11)" fill="none"><g class="fills" id="fills-cf5bc657-c124-8021-8005-425658880701"><rect rx="0" ry="0" x="0" y="0" width="50" height="50" transform="matrix(1.000000, 0.000000, 0.000000, 1.000000, 0.000000, 0.000000)" class="frame-background"/></g><g class="frame-children"><g id="shape-cf5bc657-c124-8021-8005-4256ac142cd4"><g class="frame-container-wrapper"><g class="frame-container-blur"><g class="frame-container-shadows"><g fill="none"><g class="fills" id="fills-cf5bc657-c124-8021-8005-4256ac142cd4"><rect rx="0" ry="0" x="10" y="10" width="30" height="30" transform="matrix(1.000000, 0.000000, 0.000000, 1.000000, 0.000000, 0.000000)" class="frame-background"/></g><g class="frame-children"><g id="shape-cf5bc657-c124-8021-8005-4256ac142cd5"><g class="fills" id="fills-cf5bc657-c124-8021-8005-4256ac142cd5"><ellipse cx="24.99999999999997" cy="25" rx="11.999999999999972" ry="12" transform="matrix(1.000000, 0.000000, 0.000000, 1.000000, 0.000000, 0.000000)" style="fill: rgb(204, 204, 204); fill-opacity: 1;"/></g><g id="strokes-18cb738f-1f02-80ab-8006-2a6e91c9030f-cf5bc657-c124-8021-8005-4256ac142cd5" class="strokes"><g class="stroke-shape"><ellipse cx="24.99999999999997" cy="25" rx="11.999999999999972" ry="12" transform="matrix(1.000000, 0.000000, 0.000000, 1.000000, 0.000000, 0.000000)" style="fill: none; stroke-width: 3; stroke: rgb(0, 0, 0); stroke-opacity: 1;"/></g></g></g><g id="shape-3da3ee7f-b394-806f-8005-43a05d752c0c"><g class="fills" id="fills-3da3ee7f-b394-806f-8005-43a05d752c0c"><rect rx="0" ry="0" x="23.75" y="18" transform="matrix(1.000000, 0.000000, 0.000000, 1.000000, 0.000000, 0.000000)" width="2.5" height="14" style="fill: rgb(0, 0, 0); fill-opacity: 1;"/></g></g></g></g></g></g></g></g></g></g></g></g></g></g></svg>